%TF.GenerationSoftware,KiCad,Pcbnew,9.0.2*%
%TF.CreationDate,2025-08-01T13:46:34+01:00*%
%TF.ProjectId,FED3,46454433-2e6b-4696-9361-645f70636258,rev?*%
%TF.SameCoordinates,Original*%
%TF.FileFunction,Plated,1,4,PTH,Mixed*%
%TF.FilePolarity,Positive*%
%FSLAX46Y46*%
G04 Gerber Fmt 4.6, Leading zero omitted, Abs format (unit mm)*
G04 Created by KiCad (PCBNEW 9.0.2) date 2025-08-01 13:46:34*
%MOMM*%
%LPD*%
G01*
G04 APERTURE LIST*
%TA.AperFunction,ViaDrill*%
%ADD10C,0.210000*%
%TD*%
%TA.AperFunction,ComponentDrill*%
%ADD11C,0.210000*%
%TD*%
%TA.AperFunction,ViaDrill*%
%ADD12C,0.300000*%
%TD*%
G04 aperture for slot hole*
%TA.AperFunction,ComponentDrill*%
%ADD13C,0.600000*%
%TD*%
%TA.AperFunction,ComponentDrill*%
%ADD14C,0.700000*%
%TD*%
%TA.AperFunction,ComponentDrill*%
%ADD15C,1.000000*%
%TD*%
%TA.AperFunction,ComponentDrill*%
%ADD16C,1.016000*%
%TD*%
G04 APERTURE END LIST*
D10*
X95691100Y-94289600D03*
X95713900Y-117221400D03*
X97025000Y-86825000D03*
X97977100Y-126547600D03*
X98253900Y-122047400D03*
X98815300Y-96778800D03*
X99550000Y-105450000D03*
X100263100Y-81589600D03*
X101475000Y-92175000D03*
X101725000Y-110225000D03*
X103725000Y-88225000D03*
X103725000Y-98300000D03*
X104600000Y-118900000D03*
X104650000Y-116000000D03*
X105400000Y-122800000D03*
X105475000Y-83975000D03*
X107600000Y-128800000D03*
X108000000Y-112300000D03*
X108600000Y-120150000D03*
X108825000Y-94375000D03*
X108850000Y-118800000D03*
X109000000Y-108700000D03*
X109050000Y-122525000D03*
X109650000Y-119750000D03*
X110525000Y-112900000D03*
X111350000Y-119500000D03*
X111693100Y-87050600D03*
X111693100Y-91495600D03*
X111800000Y-97900000D03*
X111900000Y-126000000D03*
X111975000Y-120100000D03*
X112075000Y-114975000D03*
X112225000Y-108875000D03*
X112475000Y-121400000D03*
X112675000Y-123250000D03*
X113075000Y-122100000D03*
X113325000Y-80800000D03*
X113800000Y-129000000D03*
X114300000Y-102000000D03*
X114400000Y-115200000D03*
X114500000Y-98620000D03*
X114550000Y-112050000D03*
X115050000Y-123100000D03*
X115100000Y-125000000D03*
X115200000Y-126350000D03*
X115950000Y-103100000D03*
X116100000Y-105655000D03*
X116300000Y-128350000D03*
X116350000Y-119495000D03*
X116700000Y-103550000D03*
X116950000Y-117415000D03*
X117100000Y-114200000D03*
X117300000Y-86600000D03*
X117900000Y-109900000D03*
X118600000Y-107000000D03*
X118600000Y-112500000D03*
X119400000Y-108400000D03*
X119750000Y-99750000D03*
X119750000Y-104300000D03*
X120150000Y-113830000D03*
X120600000Y-127300000D03*
X121193750Y-122906250D03*
X121300000Y-86600000D03*
X121300000Y-125250000D03*
X122000000Y-98750000D03*
X122100000Y-107900000D03*
X122225000Y-112425000D03*
X122900000Y-97700000D03*
X124228175Y-121428176D03*
X124300000Y-86400000D03*
X125041765Y-120429854D03*
X125050000Y-96050000D03*
X126250000Y-80900000D03*
X126500000Y-127000000D03*
X126600000Y-86600000D03*
X127500000Y-127750000D03*
X128150000Y-122200000D03*
X128500000Y-126250000D03*
X128800000Y-91450000D03*
X129175000Y-100975000D03*
X129400000Y-114700000D03*
X129500000Y-123250000D03*
X130716405Y-125548435D03*
X131025000Y-106900000D03*
X131505030Y-114475628D03*
X131600000Y-98850000D03*
X132500000Y-119600000D03*
X132500000Y-124650000D03*
X133050000Y-111550000D03*
X133283100Y-86415600D03*
X134000000Y-94500000D03*
X134100000Y-101700000D03*
X134550000Y-128500000D03*
X134600000Y-80800000D03*
X135250000Y-106100000D03*
X135500000Y-123716000D03*
X135600000Y-112450000D03*
X136101000Y-127750000D03*
X136650000Y-112050000D03*
X136750000Y-127000000D03*
X136850000Y-103800000D03*
X137395300Y-109245800D03*
X137400000Y-120600000D03*
X138025000Y-111225000D03*
X139250000Y-115000000D03*
X139400000Y-123800000D03*
X141875000Y-122500000D03*
X142350000Y-119550000D03*
X143050000Y-111400000D03*
X144700000Y-122250000D03*
X144761300Y-108509200D03*
X145100000Y-125800000D03*
X146200000Y-129100000D03*
X147852894Y-103795731D03*
X148095100Y-123816200D03*
X149074710Y-115016462D03*
X149650000Y-120850000D03*
X152025000Y-119475000D03*
X152159100Y-123816200D03*
X152700000Y-108700000D03*
X154925000Y-119475000D03*
X157550000Y-121500000D03*
X158550000Y-111650000D03*
X159150000Y-109000000D03*
X159250000Y-103800000D03*
X160060000Y-116200000D03*
X160700000Y-107000000D03*
X161125000Y-122900000D03*
X161200000Y-123850000D03*
X161850000Y-120805000D03*
X161977136Y-115748717D03*
X162800000Y-124941002D03*
X163400000Y-81300000D03*
X163500000Y-96500000D03*
X163707689Y-123841600D03*
X163750000Y-86250000D03*
X163900000Y-102450000D03*
X164500000Y-119500000D03*
X164800000Y-114350000D03*
X164800000Y-122900000D03*
X165405000Y-115143717D03*
X165552592Y-126559814D03*
X165785000Y-106972500D03*
X166245879Y-126602052D03*
X166290335Y-122112423D03*
X166300000Y-111650000D03*
X166400000Y-116900000D03*
X166500000Y-127400000D03*
X166700000Y-103700000D03*
X167775000Y-118850000D03*
X167855300Y-114739000D03*
X168005000Y-111350000D03*
X168399824Y-114134000D03*
X168461636Y-117097000D03*
X168900000Y-111687500D03*
X169071464Y-121400169D03*
X169300000Y-111025000D03*
X169356276Y-117097000D03*
X169360000Y-108997500D03*
X169365000Y-115645000D03*
X169665300Y-120484700D03*
X169885000Y-106897500D03*
X170250000Y-119350000D03*
X170300000Y-117000000D03*
X170600000Y-123500000D03*
X170850000Y-108200000D03*
X171259900Y-98406000D03*
X171500000Y-128600000D03*
X171712500Y-107787500D03*
X171915000Y-127320000D03*
X172615854Y-117309459D03*
X172625000Y-105775000D03*
X172650000Y-107750000D03*
X173000000Y-121250000D03*
X173150000Y-114500000D03*
X173200000Y-110700000D03*
X173350000Y-118700000D03*
X173400000Y-117299813D03*
X173691900Y-84455400D03*
X173972880Y-120559319D03*
X174000000Y-96000000D03*
X174150000Y-103275000D03*
X174300000Y-123716000D03*
X174400000Y-121200000D03*
X174800000Y-106000000D03*
X174925000Y-114575000D03*
X175050000Y-121650000D03*
X175100000Y-107900000D03*
X175200000Y-99400000D03*
X175251800Y-111062165D03*
X175735500Y-91029400D03*
X176172000Y-102003600D03*
X176250000Y-129200000D03*
X176903900Y-84171400D03*
X177000000Y-117147512D03*
X177050000Y-95825000D03*
X177150000Y-107100000D03*
X177550000Y-116300000D03*
X177800000Y-90500000D03*
X177875000Y-123125000D03*
X178205779Y-115700000D03*
X178400000Y-103378000D03*
X178500000Y-104700000D03*
X178809985Y-115174790D03*
X178925000Y-107200000D03*
X179091310Y-111057219D03*
X179100448Y-110287271D03*
X179174262Y-114496407D03*
X179178408Y-113644953D03*
X179400000Y-127600000D03*
X179750000Y-116775000D03*
X179951900Y-91029400D03*
X180225000Y-108400000D03*
X181000000Y-113400000D03*
X181000000Y-127450000D03*
X181178200Y-105587800D03*
X181700000Y-104150000D03*
X182250000Y-109900000D03*
X182275000Y-115400000D03*
X182300000Y-122900000D03*
X182499000Y-107162600D03*
X182850000Y-113950000D03*
X182898234Y-113113248D03*
X183000000Y-112350000D03*
X183184800Y-108381800D03*
X183700000Y-114200000D03*
X183759600Y-89109600D03*
X183800000Y-106230000D03*
X184627690Y-109543265D03*
X184650000Y-124850000D03*
X184800000Y-118450000D03*
X184969500Y-93142200D03*
X185250000Y-89350000D03*
X185300000Y-123800000D03*
X185700000Y-127350000D03*
X185800000Y-104650000D03*
X186000000Y-97800000D03*
X186300000Y-98800000D03*
X186300000Y-126400000D03*
X186800000Y-81300000D03*
X187050000Y-112350000D03*
X187300000Y-106300000D03*
X187900000Y-89425000D03*
X188823600Y-122123200D03*
X188865168Y-121000000D03*
X188975000Y-127500000D03*
X189000000Y-87700000D03*
X189000000Y-113000000D03*
X189350000Y-115700000D03*
X189400000Y-119550000D03*
X189600000Y-87000000D03*
X189779200Y-106070400D03*
X189900000Y-113600000D03*
X190211771Y-108013359D03*
X190300000Y-112800000D03*
X190350000Y-124250000D03*
X190373000Y-107111800D03*
X190525400Y-123190000D03*
X190875000Y-126500000D03*
X191058800Y-125222000D03*
X191236600Y-96037400D03*
X191300000Y-90900000D03*
X191338200Y-110413800D03*
X192660000Y-117600000D03*
X193600000Y-128500000D03*
X193649600Y-101523800D03*
X193649600Y-104241600D03*
X193750000Y-115300000D03*
X193800000Y-121050000D03*
X196340000Y-120170000D03*
X196750000Y-117700000D03*
X197034500Y-90526000D03*
X197410000Y-124400000D03*
X197799100Y-82351600D03*
X199075000Y-126750000D03*
X200400000Y-114700000D03*
D11*
%TO.C,U3*%
X168630600Y-124975000D03*
X168630600Y-125900000D03*
X168630600Y-126825000D03*
X169710600Y-124975000D03*
X169710600Y-125900000D03*
X169710600Y-126825000D03*
%TD*%
D12*
X155050000Y-111000000D03*
X158889001Y-115006584D03*
X193624200Y-109931200D03*
D13*
%TO.C,J6*%
X196979200Y-102713600D02*
X195879200Y-102713600D01*
X196979200Y-111353600D02*
X195879200Y-111353600D01*
X201009200Y-102713600D02*
X200209200Y-102713600D01*
X201009200Y-111353600D02*
X200209200Y-111353600D01*
D14*
%TO.C,PI3*%
X110381100Y-100733600D03*
X110401100Y-103303600D03*
X111851100Y-102003600D03*
X125601100Y-100763600D03*
X125621100Y-103273600D03*
%TO.C,PI2*%
X140881100Y-107733600D03*
X140901100Y-110303600D03*
X142351100Y-109003600D03*
X156101100Y-107763600D03*
X156121100Y-110273600D03*
%TO.C,PI1*%
X171381100Y-100733600D03*
X171401100Y-103303600D03*
X172851100Y-102003600D03*
X186601100Y-100763600D03*
X186621100Y-103273600D03*
D15*
%TO.C,TP5*%
X99800000Y-116900000D03*
%TO.C,J1*%
X148582050Y-125569743D03*
X148582050Y-128109743D03*
X151122050Y-125569743D03*
X151122050Y-128109743D03*
X153662050Y-125569743D03*
X153662050Y-128109743D03*
%TO.C,J2*%
X158010000Y-126400000D03*
X160550000Y-126400000D03*
D16*
%TO.C,SCREEN0*%
X97251100Y-98903600D03*
X97251100Y-101443600D03*
X97251100Y-103983600D03*
X97251100Y-106523600D03*
X97251100Y-109063600D03*
X97251100Y-111603600D03*
%TO.C,MOTOR0*%
X112921100Y-84003600D03*
X115461100Y-84003600D03*
X118001100Y-84003600D03*
X120541100Y-84003600D03*
X123081100Y-84003600D03*
%TO.C,BZ1*%
X126510000Y-110180000D03*
X131459200Y-110180000D03*
%TO.C,X5*%
X139154300Y-125736400D03*
X141694300Y-125736400D03*
M02*
