M48
; DRILL file {KiCad 9.0.7} date 2026-01-30T16:58:06+0000
; FORMAT={-:-/ absolute / inch / decimal}
; #@! TF.CreationDate,2026-01-30T16:58:06+00:00
; #@! TF.GenerationSoftware,Kicad,Pcbnew,9.0.7
; #@! TF.FileFunction,Plated,1,4,PTH
FMAT,2
INCH
; #@! TA.AperFunction,Plated,PTH,ViaDrill
T1C0.0083
; #@! TA.AperFunction,Plated,PTH,ComponentDrill
T2C0.0083
; #@! TA.AperFunction,Plated,PTH,ViaDrill
T3C0.0118
; #@! TA.AperFunction,Plated,PTH,ComponentDrill
T4C0.0197
; #@! TA.AperFunction,Plated,PTH,ComponentDrill
T5C0.0236
; #@! TA.AperFunction,Plated,PTH,ComponentDrill
T6C0.0276
; #@! TA.AperFunction,Plated,PTH,ComponentDrill
T7C0.0394
; #@! TA.AperFunction,Plated,PTH,ComponentDrill
T8C0.0400
%
G90
G05
T1
X3.7674Y-3.7122
X3.7683Y-4.615
X3.8199Y-3.4183
X3.8574Y-4.9822
X3.8683Y-4.805
X3.8904Y-3.8102
X3.9193Y-4.1516
X3.9474Y-3.2122
X3.9951Y-3.6289
X4.0049Y-4.3396
X4.0837Y-3.4734
X4.0837Y-3.8701
X4.1181Y-4.6811
X4.1201Y-4.5669
X4.1496Y-4.8346
X4.1526Y-3.3061
X4.2362Y-5.0709
X4.252Y-4.4213
X4.2756Y-4.7303
X4.2844Y-3.7156
X4.2854Y-4.6772
X4.2913Y-4.2795
X4.2933Y-4.8238
X4.3169Y-4.7146
X4.3514Y-4.4449
X4.3591Y-4.8197
X4.3839Y-4.7047
X4.3974Y-3.4272
X4.3974Y-3.6022
X4.4016Y-3.8543
X4.4055Y-4.9606
X4.4085Y-4.7283
X4.4124Y-4.5266
X4.4183Y-4.2864
X4.4281Y-4.7795
X4.436Y-4.8524
X4.4518Y-4.8071
X4.4616Y-3.1811
X4.4803Y-5.0787
X4.5039Y-4.5354
X4.5079Y-3.8827
X4.5098Y-4.4114
X4.5295Y-4.8465
X4.5315Y-4.9213
X4.5354Y-4.9744
X4.5543Y-3.9579
X4.565Y-4.0591
X4.5709Y-4.1596
X4.5807Y-4.7045
X4.5945Y-4.0768
X4.6043Y-4.6226
X4.6102Y-4.4961
X4.6181Y-3.4094
X4.6417Y-4.3268
X4.6693Y-4.2126
X4.6693Y-4.4291
X4.6969Y-4.2543
X4.7142Y-3.9602
X4.7146Y-4.1063
X4.7303Y-4.4591
X4.7477Y-5.0269
X4.7714Y-4.8388
X4.772Y-4.9012
X4.7756Y-3.4094
X4.7996Y-3.8756
X4.8071Y-4.248
X4.812Y-4.4262
X4.8311Y-4.7972
X4.8362Y-4.8969
X4.8386Y-3.802
X4.8839Y-5.0413
X4.8909Y-4.7806
X4.8937Y-3.4016
X4.9229Y-4.7413
X4.9705Y-3.185
X4.9803Y-5.0
X4.9843Y-3.4094
X5.0197Y-5.0295
X5.052Y-3.8728
X5.0591Y-4.9705
X5.0709Y-3.6004
X5.0856Y-3.9754
X5.0945Y-4.5157
X5.0984Y-4.8524
X5.1463Y-4.9429
X5.1585Y-4.2087
X5.1774Y-4.5069
X5.1811Y-3.8917
X5.2165Y-4.7087
X5.2165Y-4.9075
X5.2193Y-4.8028
X5.2382Y-4.3917
X5.2474Y-3.4022
X5.2756Y-3.7205
X5.2795Y-4.0039
X5.2992Y-3.1811
X5.3177Y-4.9661
X5.3248Y-4.1772
X5.3346Y-4.8707
X5.3386Y-4.4272
X5.3583Y-5.0295
X5.3799Y-4.4114
X5.3839Y-5.0
X5.3878Y-4.0866
X5.4093Y-4.301
X5.4094Y-4.748
X5.4341Y-4.3789
X5.4823Y-4.5276
X5.4882Y-4.874
X5.5626Y-5.0484
X5.5856Y-4.8228
X5.6043Y-4.7067
X5.6319Y-4.3858
X5.6969Y-4.813
X5.6993Y-4.272
X5.7126Y-4.9528
X5.7333Y-5.002
X5.7559Y-5.0827
X5.821Y-4.0864
X5.8305Y-4.8747
X5.8691Y-4.5282
X5.8917Y-4.7579
X5.9852Y-4.7037
X5.9905Y-4.8747
X6.0118Y-4.2795
X6.0994Y-4.7037
X6.1535Y-5.0079
X6.1998Y-4.0876
X6.2028Y-4.7835
X6.2421Y-4.3957
X6.3016Y-4.5748
X6.302Y-4.2539
X6.3268Y-4.2126
X6.3435Y-4.8386
X6.3465Y-4.876
X6.3543Y-4.7553
X6.3771Y-4.557
X6.4094Y-4.9189
X6.4331Y-3.2008
X6.437Y-3.7992
X6.4452Y-4.8757
X6.4469Y-3.3957
X6.4528Y-4.0335
X6.4764Y-4.7047
X6.4882Y-4.502
X6.4882Y-4.8386
X6.512Y-4.5332
X6.5178Y-4.9827
X6.5187Y-4.6049
X6.527Y-4.2115
X6.5451Y-4.9843
X6.5472Y-4.3957
X6.5551Y-5.0157
X6.563Y-4.0827
X6.6053Y-4.6791
X6.6085Y-4.5173
X6.6144Y-4.3839
X6.6299Y-4.4935
X6.6323Y-4.6101
X6.6496Y-4.3971
X6.6614Y-4.2943
X6.6654Y-4.3711
X6.6676Y-4.6101
X6.6679Y-4.553
X6.6783Y-4.7921
X6.6797Y-4.7435
X6.7024Y-4.7685
X6.7028Y-4.6988
X6.7043Y-4.8157
X6.7047Y-4.2087
X6.7047Y-4.6063
X6.7165Y-4.8622
X6.7264Y-4.2598
X6.7362Y-4.0177
X6.7406Y-4.8917
X6.7425Y-3.8743
X6.752Y-5.063
X6.7603Y-4.2436
X6.7683Y-5.0126
X6.7902Y-4.7583
X6.7959Y-4.6185
X6.7963Y-4.1644
X6.7972Y-4.2421
X6.8169Y-4.5079
X6.8189Y-4.3583
X6.8197Y-4.7917
X6.8248Y-4.0679
X6.8248Y-4.6732
X6.8268Y-4.6181
X6.8383Y-3.325
X6.8493Y-4.7464
X6.8504Y-3.7795
X6.8583Y-5.0573
X6.8622Y-4.8707
X6.8661Y-4.7717
X6.8819Y-4.1732
X6.8868Y-4.5108
X6.8917Y-4.7894
X6.8937Y-4.248
X6.8976Y-3.9134
X6.8997Y-4.3725
X6.9187Y-3.5838
X6.9359Y-4.0159
X6.939Y-5.0866
X6.9647Y-3.3138
X6.9685Y-4.6121
X6.9705Y-3.7726
X6.9744Y-4.2018
X6.9902Y-4.5787
X7.0Y-3.563
X7.003Y-4.8474
X7.016Y-4.5551
X7.0236Y-4.07
X7.0373Y-4.3729
X7.0398Y-4.5344
X7.0404Y-4.3435
X7.0541Y-4.5077
X7.0543Y-4.4742
X7.063Y-5.0236
X7.0709Y-4.3307
X7.0768Y-4.5974
X7.0847Y-3.5838
X7.0955Y-4.2677
X7.126Y-4.4646
X7.126Y-5.0177
X7.1319Y-4.3268
X7.1591Y-4.0941
X7.1622Y-4.1272
X7.163Y-4.1579
X7.1752Y-4.3268
X7.1762Y-4.5433
X7.1772Y-4.8386
X7.1988Y-4.4862
X7.2007Y-4.4533
X7.2047Y-4.4232
X7.212Y-4.267
X7.2323Y-4.4961
X7.2346Y-3.5083
X7.2362Y-4.1823
X7.2688Y-4.3127
X7.2697Y-4.9154
X7.2756Y-4.6634
X7.2823Y-3.667
X7.2933Y-3.5177
X7.2953Y-4.874
X7.311Y-5.0138
X7.315Y-4.1201
X7.3228Y-3.8504
X7.3346Y-3.8898
X7.3346Y-4.9764
X7.3543Y-3.2008
X7.3642Y-4.4232
X7.3654Y-3.7591
X7.374Y-4.1709
X7.374Y-4.2055
X7.3866Y-4.0102
X7.3976Y-3.5207
X7.434Y-4.808
X7.4356Y-4.7638
X7.44Y-5.0197
X7.4409Y-3.4528
X7.4409Y-4.4488
X7.4547Y-4.5551
X7.4567Y-4.7067
X7.4646Y-3.4252
X7.4716Y-4.176
X7.4764Y-4.4724
X7.4887Y-4.2525
X7.4921Y-4.4409
X7.4941Y-4.8917
X7.495Y-4.217
X7.501Y-4.85
X7.5148Y-4.9803
X7.522Y-4.93
X7.5315Y-3.5787
X7.562Y-4.3179
X7.585Y-4.6299
X7.5856Y-4.2972
X7.5858Y-4.1276
X7.622Y-5.0591
X7.624Y-4.104
X7.628Y-4.5394
X7.6299Y-4.7657
X7.65Y-4.076
X7.6524Y-4.4087
X7.6598Y-4.3461
X7.7067Y-4.4665
X7.7299Y-4.7311
X7.7461Y-4.6339
X7.7573Y-3.564
X7.772Y-4.8976
X7.7862Y-3.9909
X7.7874Y-3.2422
X7.8004Y-4.4764
X7.8012Y-4.5394
X7.8376Y-4.9902
T2
X6.639Y-4.9203
X6.639Y-4.9567
X6.639Y-4.9931
X6.6815Y-4.9203
X6.6815Y-4.9567
X6.6815Y-4.9931
T3
X6.1043Y-4.3701
X6.2307Y-4.5264
X7.623Y-4.35
T4
X5.8497Y-4.9437
X5.8497Y-5.0437
X5.9497Y-4.9437
X5.9497Y-5.0437
X6.0497Y-4.9437
X6.0497Y-5.0437
T6
X4.3457Y-3.9659
X4.3465Y-4.0671
X4.4036Y-4.0159
X4.9449Y-3.9671
X4.9457Y-4.0659
X5.5465Y-4.2415
X5.5473Y-4.3427
X5.6044Y-4.2915
X6.1457Y-4.2427
X6.1465Y-4.3415
X6.7473Y-3.9659
X6.7481Y-4.0671
X6.8052Y-4.0159
X7.3465Y-3.9671
X7.3473Y-4.0659
T7
X6.2209Y-4.9764
X6.3209Y-4.9764
T8
X3.8288Y-3.8938
X3.8288Y-3.9938
X3.8288Y-4.0938
X3.8288Y-4.1938
X3.8288Y-4.2938
X3.8288Y-4.3938
X4.4457Y-3.3072
X4.5457Y-3.3072
X4.6457Y-3.3072
X4.7457Y-3.3072
X4.8457Y-3.3072
X4.9807Y-4.3378
X5.1756Y-4.3378
X5.4785Y-4.9503
X5.5785Y-4.9503
T5
G00X7.7118Y-4.0438
M15
G01X7.7551Y-4.0438
M16
G05
G00X7.7118Y-4.384
M15
G01X7.7551Y-4.384
M16
G05
G00X7.8823Y-4.0438
M15
G01X7.9137Y-4.0438
M16
G05
G00X7.8823Y-4.384
M15
G01X7.9137Y-4.384
M16
G05
M30
