%TF.GenerationSoftware,KiCad,Pcbnew,9.0.7*%
%TF.CreationDate,2026-02-04T15:51:40+00:00*%
%TF.ProjectId,FED3 tester 1st production aux,46454433-2074-4657-9374-657220317374,rev?*%
%TF.SameCoordinates,PX6146580PY6dc4960*%
%TF.FileFunction,Copper,L3,Inr*%
%TF.FilePolarity,Positive*%
%FSLAX46Y46*%
G04 Gerber Fmt 4.6, Leading zero omitted, Abs format (unit mm)*
G04 Created by KiCad (PCBNEW 9.0.7) date 2026-02-04 15:51:40*
%MOMM*%
%LPD*%
G01*
G04 APERTURE LIST*
%TA.AperFunction,ComponentPad*%
%ADD10C,2.500000*%
%TD*%
%TA.AperFunction,ComponentPad*%
%ADD11R,1.700000X1.700000*%
%TD*%
%TA.AperFunction,ComponentPad*%
%ADD12C,1.700000*%
%TD*%
%TA.AperFunction,ComponentPad*%
%ADD13C,2.300000*%
%TD*%
%TA.AperFunction,ComponentPad*%
%ADD14R,2.200000X2.200000*%
%TD*%
%TA.AperFunction,Profile*%
%ADD15C,0.250000*%
%TD*%
G04 APERTURE END LIST*
D10*
%TO.N,/main core/DUT stage/VccRGB*%
%TO.C,TP6*%
X34526100Y41053600D03*
%TD*%
%TO.N,/main core/DUT stage/+3V3test*%
%TO.C,TP3*%
X17201100Y57228600D03*
%TD*%
%TO.N,Net-(R49-Pad2)*%
%TO.C,TP11*%
X17976100Y54278600D03*
%TD*%
%TO.N,/main core/LED_GREEN*%
%TO.C,TP12*%
X33251100Y49278600D03*
%TD*%
%TO.N,GND*%
%TO.C,TP7*%
X97701100Y45153600D03*
%TD*%
%TO.N,/main core/LED_CHRG*%
%TO.C,TP10*%
X-3273900Y62503600D03*
%TD*%
%TO.N,GND*%
%TO.C,TP8*%
X75001100Y59253600D03*
%TD*%
D11*
%TO.N,/main core/DUT stage/ExtVUSB*%
%TO.C,J7*%
X36951100Y35653600D03*
D12*
%TO.N,/main core/DUT stage/ThermalPin*%
X39491100Y35653600D03*
%TD*%
D10*
%TO.N,Net-(R50-Pad2)*%
%TO.C,TP9*%
X-2998900Y48153600D03*
%TD*%
%TO.N,/main core/DUT stage/VUSBtest*%
%TO.C,TP4*%
X5351100Y50403600D03*
%TD*%
%TO.N,/main core/DUT stage/VBattest*%
%TO.C,TP2*%
X75201100Y34028600D03*
%TD*%
D13*
%TO.N,+3V3*%
%TO.C,J2*%
X48919050Y36483857D03*
%TO.N,/main core/DUT stage/SWCLK*%
X48919050Y33943857D03*
%TO.N,unconnected-(J2-Pin_4-Pad4)*%
X46379050Y36483857D03*
%TO.N,/main core/DUT stage/SWDIO*%
X46379050Y33943857D03*
%TO.N,/main core/DUT stage/~{RESET}*%
X43839050Y36483857D03*
D14*
%TO.N,GND*%
X43839050Y33943857D03*
%TD*%
D11*
%TO.N,GND*%
%TO.C,TP1*%
X38651100Y78850000D03*
%TD*%
D10*
%TO.N,GND*%
%TO.C,TP5*%
X67701100Y73328600D03*
%TD*%
%TO.N,/main core/RED_LED*%
%TO.C,TP13*%
X38276100Y56103600D03*
%TD*%
D11*
%TO.N,GND*%
%TO.C,J4*%
X84640000Y78075000D03*
D12*
%TO.N,/main core/DUT stage/Motor-O*%
X82100000Y78075000D03*
%TO.N,/main core/DUT stage/Motor-Y*%
X79560000Y78075000D03*
%TO.N,/main core/DUT stage/Motor-P*%
X77020000Y78075000D03*
%TO.N,/main core/DUT stage/Motor-B*%
X74480000Y78075000D03*
%TD*%
%TA.AperFunction,Conductor*%
%TO.N,GND*%
G36*
X96410945Y80825660D02*
G01*
X96432376Y80808229D01*
X97439763Y79782396D01*
X97515750Y79705018D01*
X97548677Y79643394D01*
X97543061Y79573750D01*
X97500684Y79518199D01*
X97435001Y79494377D01*
X97391282Y79499475D01*
X97273205Y79535293D01*
X97273194Y79535296D01*
X96887702Y79611974D01*
X96568680Y79643394D01*
X96496532Y79650500D01*
X96103468Y79650500D01*
X96031320Y79643394D01*
X95712297Y79611974D01*
X95326805Y79535296D01*
X95326794Y79535293D01*
X94950645Y79421190D01*
X94587500Y79270770D01*
X94587495Y79270768D01*
X94240862Y79085489D01*
X94240844Y79085478D01*
X93914039Y78867113D01*
X93914025Y78867103D01*
X93610182Y78617746D01*
X93332254Y78339818D01*
X93082897Y78035975D01*
X93082887Y78035961D01*
X92864522Y77709156D01*
X92864511Y77709138D01*
X92679232Y77362505D01*
X92679230Y77362500D01*
X92528810Y76999355D01*
X92414707Y76623206D01*
X92414704Y76623195D01*
X92338026Y76237703D01*
X92299500Y75846529D01*
X92299500Y75453472D01*
X92338026Y75062298D01*
X92414704Y74676806D01*
X92414707Y74676795D01*
X92528810Y74300646D01*
X92679230Y73937501D01*
X92679232Y73937496D01*
X92864511Y73590863D01*
X92864522Y73590845D01*
X93082887Y73264040D01*
X93082897Y73264026D01*
X93332254Y72960183D01*
X93610182Y72682255D01*
X93610187Y72682251D01*
X93610188Y72682250D01*
X93914031Y72432893D01*
X94240851Y72214518D01*
X94240860Y72214513D01*
X94240862Y72214512D01*
X94587495Y72029233D01*
X94587497Y72029233D01*
X94587503Y72029229D01*
X94950647Y71878810D01*
X95326785Y71764710D01*
X95326791Y71764709D01*
X95326794Y71764708D01*
X95326805Y71764705D01*
X95712297Y71688027D01*
X96103468Y71649500D01*
X96103471Y71649500D01*
X96496529Y71649500D01*
X96496532Y71649500D01*
X96887703Y71688027D01*
X96962748Y71702955D01*
X97273194Y71764705D01*
X97273205Y71764708D01*
X97273205Y71764709D01*
X97273215Y71764710D01*
X97649353Y71878810D01*
X98012497Y72029229D01*
X98359149Y72214518D01*
X98685969Y72432893D01*
X98989812Y72682250D01*
X99267750Y72960188D01*
X99517107Y73264031D01*
X99735482Y73590851D01*
X99920771Y73937503D01*
X100071190Y74300647D01*
X100185290Y74676785D01*
X100185292Y74676795D01*
X100185295Y74676806D01*
X100261973Y75062298D01*
X100300500Y75453468D01*
X100300500Y75846532D01*
X100261973Y76237703D01*
X100221949Y76438919D01*
X100185295Y76623195D01*
X100185291Y76623206D01*
X100185290Y76623215D01*
X100172306Y76666015D01*
X100171682Y76735878D01*
X100208930Y76794991D01*
X100272223Y76824583D01*
X100341468Y76815258D01*
X100379440Y76788890D01*
X100723129Y76438908D01*
X101690845Y75453472D01*
X101761830Y75381188D01*
X101794757Y75319564D01*
X101797354Y75295111D01*
X102045575Y37049597D01*
X102026326Y36982431D01*
X102006323Y36958269D01*
X97345928Y32595345D01*
X96799155Y1317051D01*
X96778302Y1250366D01*
X96724706Y1205541D01*
X96675304Y1195218D01*
X1271158Y1095475D01*
X1204098Y1115090D01*
X1158288Y1167846D01*
X1147028Y1219475D01*
X1147028Y5696529D01*
X1499500Y5696529D01*
X1499500Y5303472D01*
X1538026Y4912298D01*
X1614704Y4526806D01*
X1614707Y4526795D01*
X1728810Y4150646D01*
X1879230Y3787501D01*
X1879232Y3787496D01*
X2064511Y3440863D01*
X2064522Y3440845D01*
X2282887Y3114040D01*
X2282897Y3114026D01*
X2532254Y2810183D01*
X2810182Y2532255D01*
X2810187Y2532251D01*
X2810188Y2532250D01*
X3114031Y2282893D01*
X3440851Y2064518D01*
X3440860Y2064513D01*
X3440862Y2064512D01*
X3787495Y1879233D01*
X3787497Y1879233D01*
X3787503Y1879229D01*
X4150647Y1728810D01*
X4526785Y1614710D01*
X4526791Y1614709D01*
X4526794Y1614708D01*
X4526805Y1614705D01*
X4912297Y1538027D01*
X5303468Y1499500D01*
X5303471Y1499500D01*
X5696529Y1499500D01*
X5696532Y1499500D01*
X6087703Y1538027D01*
X6162748Y1552955D01*
X6473194Y1614705D01*
X6473205Y1614708D01*
X6473205Y1614709D01*
X6473215Y1614710D01*
X6849353Y1728810D01*
X7212497Y1879229D01*
X7559149Y2064518D01*
X7885969Y2282893D01*
X8189812Y2532250D01*
X8467750Y2810188D01*
X8717107Y3114031D01*
X8935482Y3440851D01*
X9120771Y3787503D01*
X9271190Y4150647D01*
X9385290Y4526785D01*
X9385292Y4526795D01*
X9385295Y4526806D01*
X9461973Y4912298D01*
X9500500Y5303468D01*
X9500500Y5696532D01*
X9495576Y5746529D01*
X88499500Y5746529D01*
X88499500Y5353472D01*
X88538026Y4962298D01*
X88614704Y4576806D01*
X88614707Y4576795D01*
X88728810Y4200646D01*
X88879230Y3837501D01*
X88879232Y3837496D01*
X89064511Y3490863D01*
X89064522Y3490845D01*
X89282887Y3164040D01*
X89282897Y3164026D01*
X89532254Y2860183D01*
X89810182Y2582255D01*
X89810187Y2582251D01*
X89810188Y2582250D01*
X90114031Y2332893D01*
X90440851Y2114518D01*
X90440860Y2114513D01*
X90440862Y2114512D01*
X90787495Y1929233D01*
X90787497Y1929233D01*
X90787503Y1929229D01*
X91150647Y1778810D01*
X91526785Y1664710D01*
X91526791Y1664709D01*
X91526794Y1664708D01*
X91526805Y1664705D01*
X91912297Y1588027D01*
X92303468Y1549500D01*
X92303471Y1549500D01*
X92696529Y1549500D01*
X92696532Y1549500D01*
X93087703Y1588027D01*
X93221848Y1614710D01*
X93473194Y1664705D01*
X93473205Y1664708D01*
X93473205Y1664709D01*
X93473215Y1664710D01*
X93849353Y1778810D01*
X94212497Y1929229D01*
X94559149Y2114518D01*
X94885969Y2332893D01*
X95189812Y2582250D01*
X95467750Y2860188D01*
X95717107Y3164031D01*
X95935482Y3490851D01*
X96120771Y3837503D01*
X96271190Y4200647D01*
X96385290Y4576785D01*
X96385292Y4576795D01*
X96385295Y4576806D01*
X96461973Y4962298D01*
X96495575Y5303468D01*
X96500500Y5353468D01*
X96500500Y5746532D01*
X96461973Y6137703D01*
X96395240Y6473195D01*
X96385295Y6523195D01*
X96385292Y6523206D01*
X96385291Y6523209D01*
X96385290Y6523215D01*
X96271190Y6899353D01*
X96120771Y7262497D01*
X95962213Y7559138D01*
X95935488Y7609138D01*
X95935487Y7609140D01*
X95935482Y7609149D01*
X95717107Y7935969D01*
X95467750Y8239812D01*
X95467749Y8239813D01*
X95467745Y8239818D01*
X95189817Y8517746D01*
X94885974Y8767103D01*
X94885973Y8767104D01*
X94885969Y8767107D01*
X94559149Y8985482D01*
X94559144Y8985485D01*
X94559137Y8985489D01*
X94212504Y9170768D01*
X94212499Y9170770D01*
X93849354Y9321190D01*
X93473205Y9435293D01*
X93473194Y9435296D01*
X93087702Y9511974D01*
X92793089Y9540990D01*
X92696532Y9550500D01*
X92303468Y9550500D01*
X92214251Y9541713D01*
X91912297Y9511974D01*
X91526805Y9435296D01*
X91526794Y9435293D01*
X91150645Y9321190D01*
X90787500Y9170770D01*
X90787495Y9170768D01*
X90440862Y8985489D01*
X90440844Y8985478D01*
X90114039Y8767113D01*
X90114025Y8767103D01*
X89810182Y8517746D01*
X89532254Y8239818D01*
X89282897Y7935975D01*
X89282887Y7935961D01*
X89064522Y7609156D01*
X89064511Y7609138D01*
X88879232Y7262505D01*
X88879230Y7262500D01*
X88728810Y6899355D01*
X88614707Y6523206D01*
X88614704Y6523195D01*
X88538026Y6137703D01*
X88499500Y5746529D01*
X9495576Y5746529D01*
X9461973Y6087703D01*
X9385295Y6473195D01*
X9385292Y6473206D01*
X9385291Y6473209D01*
X9385290Y6473215D01*
X9271190Y6849353D01*
X9120771Y7212497D01*
X9094045Y7262497D01*
X8935488Y7559138D01*
X8935487Y7559140D01*
X8935482Y7559149D01*
X8717107Y7885969D01*
X8467750Y8189812D01*
X8467749Y8189813D01*
X8467745Y8189818D01*
X8189817Y8467746D01*
X7885974Y8717103D01*
X7885973Y8717104D01*
X7885969Y8717107D01*
X7559149Y8935482D01*
X7559144Y8935485D01*
X7559137Y8935489D01*
X7212504Y9120768D01*
X7212499Y9120770D01*
X6849354Y9271190D01*
X6473205Y9385293D01*
X6473194Y9385296D01*
X6087702Y9461974D01*
X5793089Y9490990D01*
X5696532Y9500500D01*
X5303468Y9500500D01*
X5214251Y9491713D01*
X4912297Y9461974D01*
X4526805Y9385296D01*
X4526794Y9385293D01*
X4150645Y9271190D01*
X3787500Y9120770D01*
X3787495Y9120768D01*
X3440862Y8935489D01*
X3440844Y8935478D01*
X3114039Y8717113D01*
X3114025Y8717103D01*
X2810182Y8467746D01*
X2532254Y8189818D01*
X2282897Y7885975D01*
X2282887Y7885961D01*
X2064522Y7559156D01*
X2064511Y7559138D01*
X1879232Y7212505D01*
X1879230Y7212500D01*
X1728810Y6849355D01*
X1614707Y6473206D01*
X1614704Y6473195D01*
X1538026Y6087703D01*
X1499500Y5696529D01*
X1147028Y5696529D01*
X1147028Y22011786D01*
X47624500Y22011786D01*
X47624500Y21670313D01*
X47657969Y21330483D01*
X47657972Y21330466D01*
X47724589Y20995559D01*
X47823718Y20668775D01*
X47954394Y20353296D01*
X47954401Y20353282D01*
X48115362Y20052142D01*
X48115373Y20052124D01*
X48305080Y19768208D01*
X48305090Y19768194D01*
X48521723Y19504226D01*
X48763176Y19262773D01*
X48763181Y19262769D01*
X48763182Y19262768D01*
X49027150Y19046135D01*
X49311081Y18856418D01*
X49612240Y18695446D01*
X49927727Y18564767D01*
X50254504Y18465640D01*
X50589423Y18399020D01*
X50929260Y18365549D01*
X50929263Y18365549D01*
X51270737Y18365549D01*
X51270740Y18365549D01*
X51610577Y18399020D01*
X51945496Y18465640D01*
X52272273Y18564767D01*
X52587760Y18695446D01*
X52888919Y18856418D01*
X53172850Y19046135D01*
X53436818Y19262768D01*
X53678281Y19504231D01*
X53894914Y19768199D01*
X54084631Y20052130D01*
X54245603Y20353289D01*
X54376282Y20668776D01*
X54475409Y20995553D01*
X54542029Y21330472D01*
X54575500Y21670309D01*
X54575500Y22011789D01*
X54542029Y22351626D01*
X54475409Y22686545D01*
X54376282Y23013322D01*
X54245603Y23328809D01*
X54084631Y23629968D01*
X53894914Y23913899D01*
X53678281Y24177867D01*
X53678280Y24177868D01*
X53678276Y24177873D01*
X53436823Y24419326D01*
X53172855Y24635959D01*
X53172854Y24635960D01*
X53172850Y24635963D01*
X52888919Y24825680D01*
X52888914Y24825683D01*
X52888907Y24825687D01*
X52587767Y24986648D01*
X52587760Y24986652D01*
X52587753Y24986655D01*
X52272274Y25117331D01*
X51945490Y25216460D01*
X51610583Y25283077D01*
X51610566Y25283080D01*
X51353579Y25308391D01*
X51270740Y25316549D01*
X50929260Y25316549D01*
X50852646Y25309004D01*
X50589433Y25283080D01*
X50589416Y25283077D01*
X50254509Y25216460D01*
X49927725Y25117331D01*
X49612246Y24986655D01*
X49612232Y24986648D01*
X49311092Y24825687D01*
X49311074Y24825676D01*
X49027158Y24635969D01*
X49027144Y24635959D01*
X48763176Y24419326D01*
X48521723Y24177873D01*
X48305090Y23913905D01*
X48305080Y23913891D01*
X48115373Y23629975D01*
X48115362Y23629957D01*
X47954401Y23328817D01*
X47954394Y23328803D01*
X47823718Y23013324D01*
X47724589Y22686540D01*
X47657972Y22351633D01*
X47657969Y22351616D01*
X47624500Y22011786D01*
X1147028Y22011786D01*
X1147028Y26811786D01*
X89174500Y26811786D01*
X89174500Y26470313D01*
X89207969Y26130483D01*
X89207972Y26130466D01*
X89274589Y25795559D01*
X89373718Y25468775D01*
X89504394Y25153296D01*
X89504401Y25153282D01*
X89665362Y24852142D01*
X89665373Y24852124D01*
X89855080Y24568208D01*
X89855090Y24568194D01*
X90071723Y24304226D01*
X90313176Y24062773D01*
X90313181Y24062769D01*
X90313182Y24062768D01*
X90577150Y23846135D01*
X90861081Y23656418D01*
X91162240Y23495446D01*
X91477727Y23364767D01*
X91804504Y23265640D01*
X92139423Y23199020D01*
X92479260Y23165549D01*
X92479263Y23165549D01*
X92820737Y23165549D01*
X92820740Y23165549D01*
X93160577Y23199020D01*
X93495496Y23265640D01*
X93822273Y23364767D01*
X94137760Y23495446D01*
X94438919Y23656418D01*
X94722850Y23846135D01*
X94986818Y24062768D01*
X95228281Y24304231D01*
X95444914Y24568199D01*
X95634631Y24852130D01*
X95795603Y25153289D01*
X95926282Y25468776D01*
X96025409Y25795553D01*
X96092029Y26130472D01*
X96125500Y26470309D01*
X96125500Y26811789D01*
X96092029Y27151626D01*
X96025409Y27486545D01*
X95926282Y27813322D01*
X95795603Y28128809D01*
X95634631Y28429968D01*
X95444914Y28713899D01*
X95228281Y28977867D01*
X95228280Y28977868D01*
X95228276Y28977873D01*
X94986823Y29219326D01*
X94722855Y29435959D01*
X94722854Y29435960D01*
X94722850Y29435963D01*
X94438919Y29625680D01*
X94438914Y29625683D01*
X94438907Y29625687D01*
X94137767Y29786648D01*
X94137760Y29786652D01*
X94137753Y29786655D01*
X93822274Y29917331D01*
X93495490Y30016460D01*
X93160583Y30083077D01*
X93160566Y30083080D01*
X92903579Y30108391D01*
X92820740Y30116549D01*
X92479260Y30116549D01*
X92402646Y30109004D01*
X92139433Y30083080D01*
X92139416Y30083077D01*
X91804509Y30016460D01*
X91477725Y29917331D01*
X91162246Y29786655D01*
X91162232Y29786648D01*
X90861092Y29625687D01*
X90861074Y29625676D01*
X90577158Y29435969D01*
X90577144Y29435959D01*
X90313176Y29219326D01*
X90071723Y28977873D01*
X89855090Y28713905D01*
X89855080Y28713891D01*
X89665373Y28429975D01*
X89665362Y28429957D01*
X89504401Y28128817D01*
X89504394Y28128803D01*
X89373718Y27813324D01*
X89274589Y27486540D01*
X89207972Y27151633D01*
X89207969Y27151616D01*
X89174500Y26811786D01*
X1147028Y26811786D01*
X1147028Y32295346D01*
X-2660045Y35508190D01*
X-2698583Y35566470D01*
X-2704072Y35602954D01*
X-2704072Y37211786D01*
X224500Y37211786D01*
X224500Y36870313D01*
X257969Y36530483D01*
X257972Y36530466D01*
X324589Y36195559D01*
X423718Y35868775D01*
X554394Y35553296D01*
X554397Y35553289D01*
X561908Y35539237D01*
X715362Y35252142D01*
X715373Y35252124D01*
X905080Y34968208D01*
X905090Y34968194D01*
X1121723Y34704226D01*
X1363176Y34462773D01*
X1363181Y34462769D01*
X1363182Y34462768D01*
X1627150Y34246135D01*
X1911081Y34056418D01*
X2212240Y33895446D01*
X2527727Y33764767D01*
X2854504Y33665640D01*
X3189423Y33599020D01*
X3529260Y33565549D01*
X3529263Y33565549D01*
X3870737Y33565549D01*
X3870740Y33565549D01*
X4210577Y33599020D01*
X4545496Y33665640D01*
X4872273Y33764767D01*
X5187760Y33895446D01*
X5488919Y34056418D01*
X5772850Y34246135D01*
X6036818Y34462768D01*
X6278281Y34704231D01*
X6494914Y34968199D01*
X6684631Y35252130D01*
X6845603Y35553289D01*
X6976282Y35868776D01*
X7075409Y36195553D01*
X7140613Y36523353D01*
X35900600Y36523353D01*
X35900600Y34783848D01*
X35912231Y34725371D01*
X35912232Y34725370D01*
X35956547Y34659048D01*
X36022869Y34614733D01*
X36022870Y34614732D01*
X36081347Y34603101D01*
X36081350Y34603100D01*
X36081352Y34603100D01*
X37820850Y34603100D01*
X37820851Y34603101D01*
X37835668Y34606048D01*
X37879329Y34614732D01*
X37879329Y34614733D01*
X37879331Y34614733D01*
X37945652Y34659048D01*
X37989967Y34725369D01*
X37989967Y34725371D01*
X37989968Y34725371D01*
X38001599Y34783848D01*
X38001600Y34783850D01*
X38001600Y35757070D01*
X38440600Y35757070D01*
X38440600Y35550131D01*
X38480968Y35347188D01*
X38480970Y35347180D01*
X38560158Y35156004D01*
X38675124Y34983943D01*
X38821442Y34837625D01*
X38821445Y34837623D01*
X38993502Y34722659D01*
X39184680Y34643470D01*
X39329152Y34614733D01*
X39387630Y34603101D01*
X39387634Y34603100D01*
X39387635Y34603100D01*
X39594566Y34603100D01*
X39594567Y34603101D01*
X39797520Y34643470D01*
X39988698Y34722659D01*
X40160755Y34837623D01*
X40307077Y34983945D01*
X40379077Y35091702D01*
X42239050Y35091702D01*
X42239050Y34193857D01*
X42996636Y34193857D01*
X42964050Y34030037D01*
X42964050Y33857677D01*
X42996636Y33693857D01*
X42239050Y33693857D01*
X42239050Y32796013D01*
X42245451Y32736485D01*
X42245453Y32736478D01*
X42295695Y32601771D01*
X42295699Y32601764D01*
X42381859Y32486670D01*
X42381862Y32486667D01*
X42496956Y32400507D01*
X42496963Y32400503D01*
X42631670Y32350261D01*
X42631677Y32350259D01*
X42691205Y32343858D01*
X42691222Y32343857D01*
X43589050Y32343857D01*
X43589050Y33101444D01*
X43752870Y33068857D01*
X43925230Y33068857D01*
X44089050Y33101444D01*
X44089050Y32343857D01*
X44986878Y32343857D01*
X44986894Y32343858D01*
X45046422Y32350259D01*
X45046429Y32350261D01*
X45181136Y32400503D01*
X45181143Y32400507D01*
X45296237Y32486667D01*
X45296240Y32486670D01*
X45382400Y32601764D01*
X45382404Y32601771D01*
X45432646Y32736478D01*
X45434430Y32744025D01*
X45436673Y32743495D01*
X45458979Y32797374D01*
X45516363Y32837233D01*
X45586188Y32839740D01*
X45628430Y32819904D01*
X45659441Y32797374D01*
X45671234Y32788806D01*
X45860638Y32692300D01*
X46062807Y32626611D01*
X46272763Y32593357D01*
X46272764Y32593357D01*
X46485336Y32593357D01*
X46485337Y32593357D01*
X46695293Y32626611D01*
X46897462Y32692300D01*
X47086866Y32788806D01*
X47156971Y32839740D01*
X47258836Y32913748D01*
X47258838Y32913751D01*
X47258842Y32913753D01*
X47409154Y33064065D01*
X47409156Y33064069D01*
X47409159Y33064071D01*
X47534098Y33236037D01*
X47534097Y33236037D01*
X47534101Y33236041D01*
X47538564Y33244803D01*
X47586538Y33295598D01*
X47654358Y33312394D01*
X47720494Y33289858D01*
X47759536Y33244801D01*
X47764001Y33236037D01*
X47888940Y33064071D01*
X48039263Y32913748D01*
X48211229Y32788809D01*
X48211231Y32788808D01*
X48211234Y32788806D01*
X48400638Y32692300D01*
X48602807Y32626611D01*
X48812763Y32593357D01*
X48812764Y32593357D01*
X49025336Y32593357D01*
X49025337Y32593357D01*
X49235293Y32626611D01*
X49437462Y32692300D01*
X49626866Y32788806D01*
X49696971Y32839740D01*
X49798836Y32913748D01*
X49798838Y32913751D01*
X49798842Y32913753D01*
X49949154Y33064065D01*
X49949156Y33064069D01*
X49949159Y33064071D01*
X50074098Y33236037D01*
X50074097Y33236037D01*
X50074101Y33236041D01*
X50170607Y33425445D01*
X50236296Y33627614D01*
X50269550Y33837570D01*
X50269550Y34050144D01*
X50254880Y34142763D01*
X73750600Y34142763D01*
X73750600Y33914438D01*
X73786315Y33688940D01*
X73856870Y33471797D01*
X73900547Y33386077D01*
X73960521Y33268372D01*
X74094721Y33083663D01*
X74256163Y32922221D01*
X74440872Y32788021D01*
X74527219Y32744025D01*
X74644296Y32684371D01*
X74644298Y32684371D01*
X74644301Y32684369D01*
X74760692Y32646551D01*
X74861439Y32613816D01*
X75086938Y32578100D01*
X75086943Y32578100D01*
X75315262Y32578100D01*
X75540760Y32613816D01*
X75757899Y32684369D01*
X75961328Y32788021D01*
X76146037Y32922221D01*
X76307479Y33083663D01*
X76441679Y33268372D01*
X76545331Y33471801D01*
X76615884Y33688940D01*
X76627894Y33764768D01*
X76651600Y33914438D01*
X76651600Y34142763D01*
X76615884Y34368261D01*
X76572547Y34501637D01*
X76545331Y34585399D01*
X76545329Y34585402D01*
X76545329Y34585404D01*
X76444214Y34783852D01*
X76441679Y34788828D01*
X76307479Y34973537D01*
X76146037Y35134979D01*
X75961328Y35269179D01*
X75928411Y35285951D01*
X75757903Y35372830D01*
X75540760Y35443385D01*
X75315262Y35479100D01*
X75315257Y35479100D01*
X75086943Y35479100D01*
X75086938Y35479100D01*
X74861439Y35443385D01*
X74644296Y35372830D01*
X74440871Y35269179D01*
X74256161Y35134978D01*
X74094722Y34973539D01*
X73960521Y34788829D01*
X73856870Y34585404D01*
X73786315Y34368261D01*
X73750600Y34142763D01*
X50254880Y34142763D01*
X50236296Y34260100D01*
X50170607Y34462269D01*
X50074101Y34651673D01*
X50074099Y34651676D01*
X50074098Y34651678D01*
X49949159Y34823644D01*
X49798836Y34973967D01*
X49626870Y35098906D01*
X49626165Y35099266D01*
X49618104Y35103372D01*
X49567309Y35151345D01*
X49550513Y35219165D01*
X49573049Y35285301D01*
X49618104Y35324342D01*
X49626866Y35328806D01*
X49687462Y35372831D01*
X49798836Y35453748D01*
X49798838Y35453751D01*
X49798842Y35453753D01*
X49949154Y35604065D01*
X49949156Y35604069D01*
X49949159Y35604071D01*
X50074098Y35776037D01*
X50074097Y35776037D01*
X50074101Y35776041D01*
X50170607Y35965445D01*
X50236296Y36167614D01*
X50269550Y36377570D01*
X50269550Y36590144D01*
X50236296Y36800100D01*
X50170607Y37002269D01*
X50074101Y37191673D01*
X50074099Y37191676D01*
X50074098Y37191678D01*
X49949159Y37363644D01*
X49798836Y37513967D01*
X49626870Y37638906D01*
X49437464Y37735413D01*
X49437463Y37735414D01*
X49437462Y37735414D01*
X49235293Y37801103D01*
X49235291Y37801104D01*
X49235290Y37801104D01*
X49074007Y37826649D01*
X49025337Y37834357D01*
X48812763Y37834357D01*
X48764092Y37826649D01*
X48602810Y37801104D01*
X48400635Y37735413D01*
X48211229Y37638906D01*
X48039263Y37513967D01*
X47888940Y37363644D01*
X47763999Y37191675D01*
X47759534Y37182911D01*
X47711559Y37132115D01*
X47643738Y37115321D01*
X47577603Y37137859D01*
X47538566Y37182911D01*
X47534100Y37191675D01*
X47409159Y37363644D01*
X47258836Y37513967D01*
X47086870Y37638906D01*
X46897464Y37735413D01*
X46897463Y37735414D01*
X46897462Y37735414D01*
X46695293Y37801103D01*
X46695291Y37801104D01*
X46695290Y37801104D01*
X46534007Y37826649D01*
X46485337Y37834357D01*
X46272763Y37834357D01*
X46224092Y37826649D01*
X46062810Y37801104D01*
X45860635Y37735413D01*
X45671229Y37638906D01*
X45499263Y37513967D01*
X45348940Y37363644D01*
X45223999Y37191675D01*
X45219534Y37182911D01*
X45171559Y37132115D01*
X45103738Y37115321D01*
X45037603Y37137859D01*
X44998566Y37182911D01*
X44994100Y37191675D01*
X44869159Y37363644D01*
X44718836Y37513967D01*
X44546870Y37638906D01*
X44357464Y37735413D01*
X44357463Y37735414D01*
X44357462Y37735414D01*
X44155293Y37801103D01*
X44155291Y37801104D01*
X44155290Y37801104D01*
X43994007Y37826649D01*
X43945337Y37834357D01*
X43732763Y37834357D01*
X43684092Y37826649D01*
X43522810Y37801104D01*
X43320635Y37735413D01*
X43131229Y37638906D01*
X42959263Y37513967D01*
X42808940Y37363644D01*
X42684001Y37191678D01*
X42587494Y37002272D01*
X42521803Y36800097D01*
X42488550Y36590144D01*
X42488550Y36377570D01*
X42521804Y36167614D01*
X42527138Y36151197D01*
X42587494Y35965443D01*
X42683998Y35776042D01*
X42715097Y35733238D01*
X42738576Y35667431D01*
X42722750Y35599377D01*
X42672644Y35550683D01*
X42638944Y35540394D01*
X42639218Y35539237D01*
X42631670Y35537454D01*
X42496963Y35487212D01*
X42496956Y35487208D01*
X42381862Y35401048D01*
X42381859Y35401045D01*
X42295699Y35285951D01*
X42295695Y35285944D01*
X42245453Y35151237D01*
X42245451Y35151230D01*
X42239050Y35091702D01*
X40379077Y35091702D01*
X40422041Y35156002D01*
X40501230Y35347180D01*
X40541600Y35550135D01*
X40541600Y35757065D01*
X40501230Y35960020D01*
X40422041Y36151198D01*
X40307077Y36323255D01*
X40307075Y36323258D01*
X40160757Y36469576D01*
X40074726Y36527059D01*
X39988698Y36584541D01*
X39975171Y36590144D01*
X39797520Y36663730D01*
X39797512Y36663732D01*
X39594569Y36704100D01*
X39594565Y36704100D01*
X39387635Y36704100D01*
X39387630Y36704100D01*
X39184687Y36663732D01*
X39184679Y36663730D01*
X38993503Y36584542D01*
X38821442Y36469576D01*
X38675124Y36323258D01*
X38560158Y36151197D01*
X38480970Y35960021D01*
X38480968Y35960013D01*
X38440600Y35757070D01*
X38001600Y35757070D01*
X38001600Y36523351D01*
X38001599Y36523353D01*
X37989968Y36581830D01*
X37989967Y36581831D01*
X37945652Y36648153D01*
X37879330Y36692468D01*
X37879329Y36692469D01*
X37820852Y36704100D01*
X37820848Y36704100D01*
X36081352Y36704100D01*
X36081347Y36704100D01*
X36022870Y36692469D01*
X36022869Y36692468D01*
X35956547Y36648153D01*
X35912232Y36581831D01*
X35912231Y36581830D01*
X35900600Y36523353D01*
X7140613Y36523353D01*
X7142029Y36530472D01*
X7147088Y36581830D01*
X7159130Y36704100D01*
X7175500Y36870309D01*
X7175500Y37211789D01*
X7142029Y37551626D01*
X7075409Y37886545D01*
X6976282Y38213322D01*
X6845603Y38528809D01*
X6684631Y38829968D01*
X6494914Y39113899D01*
X6278281Y39377867D01*
X6278280Y39377868D01*
X6278276Y39377873D01*
X6036823Y39619326D01*
X5772855Y39835959D01*
X5772854Y39835960D01*
X5772850Y39835963D01*
X5488919Y40025680D01*
X5488914Y40025683D01*
X5488907Y40025687D01*
X5187767Y40186648D01*
X5187760Y40186652D01*
X5187753Y40186655D01*
X4872274Y40317331D01*
X4545490Y40416460D01*
X4210583Y40483077D01*
X4210566Y40483080D01*
X3953579Y40508391D01*
X3870740Y40516549D01*
X3529260Y40516549D01*
X3452646Y40509004D01*
X3189433Y40483080D01*
X3189416Y40483077D01*
X2854509Y40416460D01*
X2527725Y40317331D01*
X2212246Y40186655D01*
X2212232Y40186648D01*
X1911092Y40025687D01*
X1911074Y40025676D01*
X1627158Y39835969D01*
X1627144Y39835959D01*
X1363176Y39619326D01*
X1121723Y39377873D01*
X905090Y39113905D01*
X905080Y39113891D01*
X715373Y38829975D01*
X715362Y38829957D01*
X554401Y38528817D01*
X554394Y38528803D01*
X423718Y38213324D01*
X324589Y37886540D01*
X257972Y37551633D01*
X257969Y37551616D01*
X224500Y37211786D01*
X-2704072Y37211786D01*
X-2704072Y41167763D01*
X33075600Y41167763D01*
X33075600Y40939438D01*
X33111315Y40713940D01*
X33181870Y40496797D01*
X33273313Y40317331D01*
X33285521Y40293372D01*
X33419721Y40108663D01*
X33581163Y39947221D01*
X33765872Y39813021D01*
X33861984Y39764050D01*
X33969296Y39709371D01*
X33969298Y39709371D01*
X33969301Y39709369D01*
X34085692Y39671551D01*
X34186439Y39638816D01*
X34411938Y39603100D01*
X34411943Y39603100D01*
X34640262Y39603100D01*
X34865760Y39638816D01*
X35082899Y39709369D01*
X35286328Y39813021D01*
X35471037Y39947221D01*
X35632479Y40108663D01*
X35766679Y40293372D01*
X35870331Y40496801D01*
X35940884Y40713940D01*
X35976600Y40939438D01*
X35976600Y41167763D01*
X35940884Y41393261D01*
X35870329Y41610404D01*
X35766678Y41813829D01*
X35719466Y41878810D01*
X35632479Y41998537D01*
X35471037Y42159979D01*
X35286328Y42294179D01*
X35082903Y42397830D01*
X34865760Y42468385D01*
X34640262Y42504100D01*
X34640257Y42504100D01*
X34411943Y42504100D01*
X34411938Y42504100D01*
X34186439Y42468385D01*
X33969296Y42397830D01*
X33765871Y42294179D01*
X33581161Y42159978D01*
X33419722Y41998539D01*
X33285521Y41813829D01*
X33181870Y41610404D01*
X33111315Y41393261D01*
X33075600Y41167763D01*
X-2704072Y41167763D01*
X-2704072Y44395344D01*
X-2704072Y44395345D01*
X-3578083Y45562119D01*
X-3585903Y45583066D01*
X-3597929Y45601914D01*
X-3600938Y45623338D01*
X-3602519Y45627574D01*
X-3602837Y45636840D01*
X-3602150Y45846529D01*
X45400600Y45846529D01*
X45400600Y45453472D01*
X45439126Y45062298D01*
X45515804Y44676806D01*
X45515807Y44676795D01*
X45629910Y44300646D01*
X45780330Y43937501D01*
X45780332Y43937496D01*
X45965611Y43590863D01*
X45965622Y43590845D01*
X46183987Y43264040D01*
X46183997Y43264026D01*
X46433354Y42960183D01*
X46711282Y42682255D01*
X46711287Y42682251D01*
X46711288Y42682250D01*
X47015131Y42432893D01*
X47341951Y42214518D01*
X47341960Y42214513D01*
X47341962Y42214512D01*
X47688595Y42029233D01*
X47688597Y42029233D01*
X47688603Y42029229D01*
X48051747Y41878810D01*
X48427885Y41764710D01*
X48427891Y41764709D01*
X48427894Y41764708D01*
X48427905Y41764705D01*
X48813397Y41688027D01*
X49204568Y41649500D01*
X49204571Y41649500D01*
X49597629Y41649500D01*
X49597632Y41649500D01*
X49988803Y41688027D01*
X50063848Y41702955D01*
X50374294Y41764705D01*
X50374305Y41764708D01*
X50374305Y41764709D01*
X50374315Y41764710D01*
X50750453Y41878810D01*
X51113597Y42029229D01*
X51460249Y42214518D01*
X51787069Y42432893D01*
X52090912Y42682250D01*
X52368850Y42960188D01*
X52618207Y43264031D01*
X52836582Y43590851D01*
X53021871Y43937503D01*
X53172290Y44300647D01*
X53286390Y44676785D01*
X53286392Y44676795D01*
X53286395Y44676806D01*
X53363073Y45062298D01*
X53363820Y45069882D01*
X53401600Y45453468D01*
X53401600Y45846532D01*
X53373884Y46127941D01*
X53364574Y46222465D01*
X53364574Y46222466D01*
X53363719Y46231145D01*
X75774500Y46231145D01*
X75774500Y45868856D01*
X75815061Y45508870D01*
X75815062Y45508861D01*
X75815063Y45508857D01*
X75827704Y45453472D01*
X75895678Y45155657D01*
X75895681Y45155649D01*
X76015332Y44813707D01*
X76172517Y44487309D01*
X76172519Y44487306D01*
X76365264Y44180555D01*
X76425090Y44105536D01*
X76559091Y43937503D01*
X76591142Y43897313D01*
X76847313Y43641142D01*
X77130555Y43415264D01*
X77437306Y43222519D01*
X77763710Y43065331D01*
X78020531Y42975466D01*
X78105648Y42945682D01*
X78105656Y42945679D01*
X78105659Y42945679D01*
X78105660Y42945678D01*
X78458857Y42865063D01*
X78818856Y42824501D01*
X78818857Y42824500D01*
X78818860Y42824500D01*
X79181143Y42824500D01*
X79181143Y42824501D01*
X79541143Y42865063D01*
X79894340Y42945678D01*
X80236290Y43065331D01*
X80562694Y43222519D01*
X80869445Y43415264D01*
X81152687Y43641142D01*
X81408858Y43897313D01*
X81634736Y44180555D01*
X81827481Y44487306D01*
X81984669Y44813710D01*
X82104322Y45155660D01*
X82130030Y45268295D01*
X95951100Y45268295D01*
X95951100Y45038906D01*
X95951101Y45038890D01*
X95981042Y44811463D01*
X96040418Y44589870D01*
X96128202Y44377941D01*
X96128206Y44377931D01*
X96242899Y44179276D01*
X96242905Y44179269D01*
X96299481Y44105536D01*
X96946984Y44753040D01*
X96947840Y44750974D01*
X97040862Y44611756D01*
X97159256Y44493362D01*
X97298474Y44400340D01*
X97300537Y44399486D01*
X96653034Y43751983D01*
X96653034Y43751982D01*
X96726766Y43695406D01*
X96925430Y43580707D01*
X96925440Y43580703D01*
X97137369Y43492919D01*
X97358962Y43433543D01*
X97586389Y43403602D01*
X97586406Y43403600D01*
X97815794Y43403600D01*
X97815810Y43403602D01*
X98043237Y43433543D01*
X98264830Y43492919D01*
X98476759Y43580703D01*
X98476768Y43580707D01*
X98675427Y43695403D01*
X98675434Y43695408D01*
X98749164Y43751983D01*
X98101661Y44399486D01*
X98103726Y44400340D01*
X98242944Y44493362D01*
X98361338Y44611756D01*
X98454360Y44750974D01*
X98455214Y44753039D01*
X99102717Y44105536D01*
X99159292Y44179266D01*
X99159297Y44179273D01*
X99273993Y44377932D01*
X99273997Y44377941D01*
X99361781Y44589870D01*
X99421157Y44811463D01*
X99451098Y45038890D01*
X99451100Y45038906D01*
X99451100Y45268295D01*
X99451098Y45268311D01*
X99421157Y45495738D01*
X99361781Y45717331D01*
X99273997Y45929260D01*
X99273993Y45929270D01*
X99159294Y46127934D01*
X99102718Y46201666D01*
X99102717Y46201666D01*
X98455214Y45554163D01*
X98454360Y45556226D01*
X98361338Y45695444D01*
X98242944Y45813838D01*
X98103726Y45906860D01*
X98101660Y45907716D01*
X98749164Y46555219D01*
X98749164Y46555220D01*
X98675431Y46611795D01*
X98675424Y46611801D01*
X98476769Y46726494D01*
X98476759Y46726498D01*
X98264830Y46814282D01*
X98043237Y46873658D01*
X97815810Y46903599D01*
X97815794Y46903600D01*
X97586406Y46903600D01*
X97586389Y46903599D01*
X97358962Y46873658D01*
X97137369Y46814282D01*
X96925440Y46726498D01*
X96925430Y46726494D01*
X96726773Y46611799D01*
X96726759Y46611790D01*
X96653034Y46555220D01*
X97300538Y45907716D01*
X97298474Y45906860D01*
X97159256Y45813838D01*
X97040862Y45695444D01*
X96947840Y45556226D01*
X96946984Y45554162D01*
X96299480Y46201666D01*
X96242910Y46127941D01*
X96242901Y46127927D01*
X96128206Y45929270D01*
X96128202Y45929260D01*
X96040418Y45717331D01*
X95981042Y45495738D01*
X95951101Y45268311D01*
X95951100Y45268295D01*
X82130030Y45268295D01*
X82184937Y45508857D01*
X82225500Y45868860D01*
X82225500Y46231140D01*
X82215634Y46318701D01*
X82195953Y46493382D01*
X82184938Y46591131D01*
X82184937Y46591143D01*
X82104322Y46944340D01*
X82085071Y46999355D01*
X82074534Y47029469D01*
X81984669Y47286290D01*
X81827481Y47612694D01*
X81634736Y47919445D01*
X81408858Y48202687D01*
X81152687Y48458858D01*
X80869445Y48684736D01*
X80562694Y48877481D01*
X80562691Y48877483D01*
X80236293Y49034668D01*
X79894351Y49154319D01*
X79894343Y49154322D01*
X79629442Y49214784D01*
X79541143Y49234937D01*
X79541139Y49234938D01*
X79541130Y49234939D01*
X79181144Y49275500D01*
X79181140Y49275500D01*
X78818860Y49275500D01*
X78818855Y49275500D01*
X78458869Y49234939D01*
X78458857Y49234937D01*
X78105656Y49154322D01*
X78105648Y49154319D01*
X77763706Y49034668D01*
X77437308Y48877483D01*
X77130556Y48684737D01*
X76847313Y48458859D01*
X76591141Y48202687D01*
X76365263Y47919444D01*
X76172517Y47612692D01*
X76015332Y47286294D01*
X75895681Y46944352D01*
X75895678Y46944344D01*
X75815063Y46591143D01*
X75815061Y46591131D01*
X75774500Y46231145D01*
X53363719Y46231145D01*
X53363073Y46237701D01*
X53363073Y46237703D01*
X53286395Y46623195D01*
X53286392Y46623206D01*
X53286391Y46623209D01*
X53286390Y46623215D01*
X53172290Y46999353D01*
X53021871Y47362497D01*
X52836582Y47709149D01*
X52618207Y48035969D01*
X52368850Y48339812D01*
X52368849Y48339813D01*
X52368845Y48339818D01*
X52090917Y48617746D01*
X51978019Y48710399D01*
X51787069Y48867107D01*
X51460249Y49085482D01*
X51460244Y49085485D01*
X51460237Y49085489D01*
X51113604Y49270768D01*
X51113599Y49270770D01*
X50750454Y49421190D01*
X50374305Y49535293D01*
X50374294Y49535296D01*
X49988802Y49611974D01*
X49694189Y49640990D01*
X49597632Y49650500D01*
X49204568Y49650500D01*
X49115351Y49641713D01*
X48813397Y49611974D01*
X48427905Y49535296D01*
X48427894Y49535293D01*
X48051745Y49421190D01*
X47688600Y49270770D01*
X47688595Y49270768D01*
X47341962Y49085489D01*
X47341944Y49085478D01*
X47015139Y48867113D01*
X47015129Y48867105D01*
X46711282Y48617746D01*
X46433354Y48339818D01*
X46183997Y48035975D01*
X46183987Y48035961D01*
X45965622Y47709156D01*
X45965611Y47709138D01*
X45780332Y47362505D01*
X45780330Y47362500D01*
X45629910Y46999355D01*
X45515807Y46623206D01*
X45515804Y46623195D01*
X45439126Y46237703D01*
X45400600Y45846529D01*
X-3602150Y45846529D01*
X-3599508Y46653342D01*
X-3579604Y46720314D01*
X-3526651Y46765895D01*
X-3457460Y46775612D01*
X-3437205Y46770868D01*
X-3338560Y46738816D01*
X-3300977Y46732864D01*
X-3113062Y46703100D01*
X-3113057Y46703100D01*
X-2884738Y46703100D01*
X-2659240Y46738816D01*
X-2442101Y46809369D01*
X-2238672Y46913021D01*
X-2053963Y47047221D01*
X-1892521Y47208663D01*
X-1758321Y47393372D01*
X-1654669Y47596801D01*
X-1584116Y47813940D01*
X-1567406Y47919444D01*
X-1548400Y48039438D01*
X-1548400Y48267763D01*
X-1584116Y48493261D01*
X-1654671Y48710404D01*
X-1734519Y48867113D01*
X-1758321Y48913828D01*
X-1892521Y49098537D01*
X-2053963Y49259979D01*
X-2238672Y49394179D01*
X-2291684Y49421190D01*
X-2442097Y49497830D01*
X-2659240Y49568385D01*
X-2884738Y49604100D01*
X-2884743Y49604100D01*
X-3113057Y49604100D01*
X-3113062Y49604100D01*
X-3338562Y49568384D01*
X-3338569Y49568383D01*
X-3427353Y49539535D01*
X-3497194Y49537540D01*
X-3557026Y49573621D01*
X-3587854Y49636322D01*
X-3589668Y49657860D01*
X-3586852Y50517763D01*
X3900600Y50517763D01*
X3900600Y50289438D01*
X3936315Y50063940D01*
X4006870Y49846797D01*
X4103139Y49657860D01*
X4110521Y49643372D01*
X4244721Y49458663D01*
X4406163Y49297221D01*
X4590872Y49163021D01*
X4607951Y49154319D01*
X4794296Y49059371D01*
X4794298Y49059371D01*
X4794301Y49059369D01*
X4870320Y49034669D01*
X5011439Y48988816D01*
X5236938Y48953100D01*
X5236943Y48953100D01*
X5465262Y48953100D01*
X5690760Y48988816D01*
X5907899Y49059369D01*
X6111328Y49163021D01*
X6296037Y49297221D01*
X6391579Y49392763D01*
X31800600Y49392763D01*
X31800600Y49164438D01*
X31836315Y48938940D01*
X31906870Y48721797D01*
X32001920Y48535252D01*
X32010521Y48518372D01*
X32144721Y48333663D01*
X32306163Y48172221D01*
X32490872Y48038021D01*
X32586984Y47989050D01*
X32694296Y47934371D01*
X32694298Y47934371D01*
X32694301Y47934369D01*
X32810692Y47896551D01*
X32911439Y47863816D01*
X33136938Y47828100D01*
X33136943Y47828100D01*
X33365262Y47828100D01*
X33590760Y47863816D01*
X33807899Y47934369D01*
X34011328Y48038021D01*
X34196037Y48172221D01*
X34357479Y48333663D01*
X34491679Y48518372D01*
X34595331Y48721801D01*
X34665884Y48938940D01*
X34684958Y49059369D01*
X34701600Y49164438D01*
X34701600Y49392763D01*
X34665884Y49618261D01*
X34595329Y49835404D01*
X34491678Y50038829D01*
X34473434Y50063940D01*
X34357479Y50223537D01*
X34196037Y50384979D01*
X34011328Y50519179D01*
X33807903Y50622830D01*
X33590760Y50693385D01*
X33365262Y50729100D01*
X33365257Y50729100D01*
X33136943Y50729100D01*
X33136938Y50729100D01*
X32911439Y50693385D01*
X32694296Y50622830D01*
X32490871Y50519179D01*
X32306161Y50384978D01*
X32144722Y50223539D01*
X32010521Y50038829D01*
X31906870Y49835404D01*
X31836315Y49618261D01*
X31800600Y49392763D01*
X6391579Y49392763D01*
X6457479Y49458663D01*
X6591679Y49643372D01*
X6695331Y49846801D01*
X6765884Y50063940D01*
X6791162Y50223539D01*
X6801600Y50289438D01*
X6801600Y50517763D01*
X6765884Y50743261D01*
X6695329Y50960404D01*
X6591678Y51163829D01*
X6457479Y51348537D01*
X6296037Y51509979D01*
X6111328Y51644179D01*
X5907903Y51747830D01*
X5690760Y51818385D01*
X5465262Y51854100D01*
X5465257Y51854100D01*
X5236943Y51854100D01*
X5236938Y51854100D01*
X5011439Y51818385D01*
X4794296Y51747830D01*
X4590871Y51644179D01*
X4406161Y51509978D01*
X4244722Y51348539D01*
X4110521Y51163829D01*
X4006870Y50960404D01*
X3936315Y50743261D01*
X3900600Y50517763D01*
X-3586852Y50517763D01*
X-3564502Y57342763D01*
X15750600Y57342763D01*
X15750600Y57114438D01*
X15786315Y56888940D01*
X15856870Y56671797D01*
X15960521Y56468372D01*
X16094721Y56283663D01*
X16256163Y56122221D01*
X16440872Y55988021D01*
X16536984Y55939050D01*
X16644296Y55884371D01*
X16644298Y55884371D01*
X16644301Y55884369D01*
X16760692Y55846551D01*
X16861439Y55813816D01*
X17086938Y55778100D01*
X17207536Y55778100D01*
X17274575Y55758415D01*
X17320330Y55705611D01*
X17330274Y55636453D01*
X17301249Y55572897D01*
X17263831Y55543616D01*
X17247160Y55535122D01*
X17215871Y55519179D01*
X17031161Y55384978D01*
X16869722Y55223539D01*
X16735521Y55038829D01*
X16631870Y54835404D01*
X16561315Y54618261D01*
X16525600Y54392763D01*
X16525600Y54164438D01*
X16561315Y53938940D01*
X16631870Y53721797D01*
X16735521Y53518372D01*
X16869721Y53333663D01*
X17031163Y53172221D01*
X17215872Y53038021D01*
X17311984Y52989050D01*
X17419296Y52934371D01*
X17419298Y52934371D01*
X17419301Y52934369D01*
X17535692Y52896551D01*
X17636439Y52863816D01*
X17861938Y52828100D01*
X17861943Y52828100D01*
X18090262Y52828100D01*
X18315760Y52863816D01*
X18532899Y52934369D01*
X18736328Y53038021D01*
X18921037Y53172221D01*
X19082479Y53333663D01*
X19216679Y53518372D01*
X19320331Y53721801D01*
X19390884Y53938940D01*
X19417607Y54107661D01*
X19426600Y54164438D01*
X19426600Y54392763D01*
X19390884Y54618261D01*
X19320329Y54835404D01*
X19265650Y54942716D01*
X19216679Y55038828D01*
X19082479Y55223537D01*
X18921037Y55384979D01*
X18736328Y55519179D01*
X18688370Y55543615D01*
X18532903Y55622830D01*
X18315760Y55693385D01*
X18090262Y55729100D01*
X18090257Y55729100D01*
X17969664Y55729100D01*
X17902625Y55748785D01*
X17856870Y55801589D01*
X17846926Y55870747D01*
X17875951Y55934303D01*
X17913368Y55963585D01*
X17961328Y55988021D01*
X18146037Y56122221D01*
X18241579Y56217763D01*
X36825600Y56217763D01*
X36825600Y55989438D01*
X36861315Y55763940D01*
X36931870Y55546797D01*
X37014321Y55384979D01*
X37035521Y55343372D01*
X37169721Y55158663D01*
X37331163Y54997221D01*
X37515872Y54863021D01*
X37611984Y54814050D01*
X37719296Y54759371D01*
X37719298Y54759371D01*
X37719301Y54759369D01*
X37835692Y54721551D01*
X37936439Y54688816D01*
X38161938Y54653100D01*
X38161943Y54653100D01*
X38390262Y54653100D01*
X38615760Y54688816D01*
X38832899Y54759369D01*
X39036328Y54863021D01*
X39221037Y54997221D01*
X39382479Y55158663D01*
X39516679Y55343372D01*
X39620331Y55546801D01*
X39690884Y55763940D01*
X39698784Y55813816D01*
X39726600Y55989438D01*
X39726600Y56217763D01*
X39690884Y56443261D01*
X39620329Y56660404D01*
X39516678Y56863829D01*
X39498434Y56888940D01*
X39382479Y57048537D01*
X39221037Y57209979D01*
X39036328Y57344179D01*
X38832903Y57447830D01*
X38615760Y57518385D01*
X38390262Y57554100D01*
X38390257Y57554100D01*
X38161943Y57554100D01*
X38161938Y57554100D01*
X37936439Y57518385D01*
X37719296Y57447830D01*
X37515871Y57344179D01*
X37331161Y57209978D01*
X37169722Y57048539D01*
X37035521Y56863829D01*
X36931870Y56660404D01*
X36861315Y56443261D01*
X36825600Y56217763D01*
X18241579Y56217763D01*
X18307479Y56283663D01*
X18441679Y56468372D01*
X18545331Y56671801D01*
X18615884Y56888940D01*
X18641162Y57048539D01*
X18651600Y57114438D01*
X18651600Y57342763D01*
X18615884Y57568261D01*
X18545329Y57785404D01*
X18515656Y57843640D01*
X18441678Y57988829D01*
X18307479Y58173537D01*
X18146037Y58334979D01*
X17961328Y58469179D01*
X17944132Y58477941D01*
X17757903Y58572830D01*
X17540760Y58643385D01*
X17315262Y58679100D01*
X17315257Y58679100D01*
X17086943Y58679100D01*
X17086938Y58679100D01*
X16861439Y58643385D01*
X16644296Y58572830D01*
X16440871Y58469179D01*
X16256161Y58334978D01*
X16094722Y58173539D01*
X15960521Y57988829D01*
X15856870Y57785404D01*
X15786315Y57568261D01*
X15750600Y57342763D01*
X-3564502Y57342763D01*
X-3557869Y59368295D01*
X73251100Y59368295D01*
X73251100Y59138906D01*
X73251101Y59138890D01*
X73281042Y58911463D01*
X73340418Y58689870D01*
X73428202Y58477941D01*
X73428206Y58477931D01*
X73542899Y58279276D01*
X73542905Y58279269D01*
X73599481Y58205536D01*
X74246984Y58853040D01*
X74247840Y58850974D01*
X74340862Y58711756D01*
X74459256Y58593362D01*
X74598474Y58500340D01*
X74600537Y58499486D01*
X73953034Y57851983D01*
X73953034Y57851982D01*
X74026766Y57795406D01*
X74225430Y57680707D01*
X74225440Y57680703D01*
X74437369Y57592919D01*
X74658962Y57533543D01*
X74886389Y57503602D01*
X74886406Y57503600D01*
X75115794Y57503600D01*
X75115810Y57503602D01*
X75343237Y57533543D01*
X75564830Y57592919D01*
X75776759Y57680703D01*
X75776768Y57680707D01*
X75975427Y57795403D01*
X75975434Y57795408D01*
X76049164Y57851983D01*
X75401661Y58499486D01*
X75403726Y58500340D01*
X75542944Y58593362D01*
X75661338Y58711756D01*
X75754360Y58850974D01*
X75755214Y58853039D01*
X76402717Y58205536D01*
X76459292Y58279266D01*
X76459297Y58279273D01*
X76573993Y58477932D01*
X76573997Y58477941D01*
X76661781Y58689870D01*
X76721157Y58911463D01*
X76751098Y59138890D01*
X76751100Y59138906D01*
X76751100Y59368295D01*
X76751098Y59368311D01*
X76721157Y59595738D01*
X76661781Y59817331D01*
X76573997Y60029260D01*
X76573993Y60029270D01*
X76459294Y60227934D01*
X76402718Y60301666D01*
X76402717Y60301666D01*
X75755214Y59654163D01*
X75754360Y59656226D01*
X75661338Y59795444D01*
X75542944Y59913838D01*
X75403726Y60006860D01*
X75401660Y60007716D01*
X76049164Y60655219D01*
X76049164Y60655220D01*
X75975431Y60711795D01*
X75975424Y60711801D01*
X75776769Y60826494D01*
X75776759Y60826498D01*
X75564830Y60914282D01*
X75343237Y60973658D01*
X75115810Y61003599D01*
X75115794Y61003600D01*
X74886406Y61003600D01*
X74886389Y61003599D01*
X74658962Y60973658D01*
X74437369Y60914282D01*
X74225440Y60826498D01*
X74225430Y60826494D01*
X74026773Y60711799D01*
X74026759Y60711790D01*
X73953034Y60655220D01*
X74600538Y60007716D01*
X74598474Y60006860D01*
X74459256Y59913838D01*
X74340862Y59795444D01*
X74247840Y59656226D01*
X74246984Y59654162D01*
X73599480Y60301666D01*
X73542910Y60227941D01*
X73542901Y60227927D01*
X73428206Y60029270D01*
X73428202Y60029260D01*
X73340418Y59817331D01*
X73281042Y59595738D01*
X73251101Y59368311D01*
X73251100Y59368295D01*
X-3557869Y59368295D01*
X-3552740Y60934407D01*
X-3532836Y61001379D01*
X-3479883Y61046960D01*
X-3410692Y61056677D01*
X-3409341Y61056471D01*
X-3388060Y61053100D01*
X-3388057Y61053100D01*
X-3159738Y61053100D01*
X-2934240Y61088816D01*
X-2717101Y61159369D01*
X-2513672Y61263021D01*
X-2328963Y61397221D01*
X-2167521Y61558663D01*
X-2033321Y61743372D01*
X-1929669Y61946801D01*
X-1859116Y62163940D01*
X-1823400Y62389438D01*
X-1823400Y62617763D01*
X-1859116Y62843261D01*
X-1929671Y63060404D01*
X-1989755Y63178324D01*
X-2016666Y63231140D01*
X-2016669Y63231145D01*
X1775600Y63231145D01*
X1775600Y62868856D01*
X1816161Y62508870D01*
X1816163Y62508858D01*
X1896778Y62155657D01*
X1896781Y62155649D01*
X2016432Y61813707D01*
X2173617Y61487309D01*
X2173619Y61487306D01*
X2366364Y61180555D01*
X2507481Y61003600D01*
X2562660Y60934407D01*
X2592242Y60897313D01*
X2848413Y60641142D01*
X3131655Y60415264D01*
X3438406Y60222519D01*
X3764810Y60065331D01*
X4021631Y59975466D01*
X4106748Y59945682D01*
X4106756Y59945679D01*
X4106759Y59945679D01*
X4106760Y59945678D01*
X4459957Y59865063D01*
X4819956Y59824501D01*
X4819957Y59824500D01*
X4819960Y59824500D01*
X5182243Y59824500D01*
X5182243Y59824501D01*
X5542243Y59865063D01*
X5895440Y59945678D01*
X6237390Y60065331D01*
X6563794Y60222519D01*
X6870545Y60415264D01*
X7153787Y60641142D01*
X7409958Y60897313D01*
X7635836Y61180555D01*
X7828581Y61487306D01*
X7985769Y61813710D01*
X8105422Y62155660D01*
X8186037Y62508857D01*
X8226600Y62868860D01*
X8226600Y63231140D01*
X8186037Y63591143D01*
X8105422Y63944340D01*
X8102616Y63952358D01*
X8059642Y64075171D01*
X7985769Y64286290D01*
X7828581Y64612694D01*
X7635836Y64919445D01*
X7409958Y65202687D01*
X7153787Y65458858D01*
X6870545Y65684736D01*
X6563794Y65877481D01*
X6563791Y65877483D01*
X6237393Y66034668D01*
X5895451Y66154319D01*
X5895443Y66154322D01*
X5630542Y66214784D01*
X5542243Y66234937D01*
X5542239Y66234938D01*
X5542230Y66234939D01*
X5182244Y66275500D01*
X5182240Y66275500D01*
X4819960Y66275500D01*
X4819955Y66275500D01*
X4459969Y66234939D01*
X4459957Y66234937D01*
X4106756Y66154322D01*
X4106748Y66154319D01*
X3764806Y66034668D01*
X3438408Y65877483D01*
X3131656Y65684737D01*
X2848413Y65458859D01*
X2592241Y65202687D01*
X2366363Y64919444D01*
X2173617Y64612692D01*
X2016432Y64286294D01*
X1896781Y63944352D01*
X1896778Y63944344D01*
X1816163Y63591143D01*
X1816161Y63591131D01*
X1775600Y63231145D01*
X-2016669Y63231145D01*
X-2033321Y63263828D01*
X-2167521Y63448537D01*
X-2328963Y63609979D01*
X-2513672Y63744179D01*
X-2717097Y63847830D01*
X-2934240Y63918385D01*
X-3159738Y63954100D01*
X-3159743Y63954100D01*
X-3388057Y63954100D01*
X-3388060Y63954100D01*
X-3399060Y63952358D01*
X-3468353Y63961315D01*
X-3521804Y64006312D01*
X-3542442Y64073064D01*
X-3542454Y64075171D01*
X-3519574Y71061786D01*
X71724500Y71061786D01*
X71724500Y70720313D01*
X71757969Y70380483D01*
X71757972Y70380466D01*
X71824589Y70045559D01*
X71923718Y69718775D01*
X72054394Y69403296D01*
X72054401Y69403282D01*
X72215362Y69102142D01*
X72215373Y69102124D01*
X72405080Y68818208D01*
X72405090Y68818194D01*
X72621723Y68554226D01*
X72863176Y68312773D01*
X72863181Y68312769D01*
X72863182Y68312768D01*
X73127150Y68096135D01*
X73411081Y67906418D01*
X73712240Y67745446D01*
X74027727Y67614767D01*
X74354504Y67515640D01*
X74689423Y67449020D01*
X75029260Y67415549D01*
X75029263Y67415549D01*
X75370737Y67415549D01*
X75370740Y67415549D01*
X75710577Y67449020D01*
X76045496Y67515640D01*
X76372273Y67614767D01*
X76687760Y67745446D01*
X76988919Y67906418D01*
X77272850Y68096135D01*
X77536818Y68312768D01*
X77778281Y68554231D01*
X77994914Y68818199D01*
X78184631Y69102130D01*
X78345603Y69403289D01*
X78476282Y69718776D01*
X78575409Y70045553D01*
X78642029Y70380472D01*
X78675500Y70720309D01*
X78675500Y71061789D01*
X78642029Y71401626D01*
X78575409Y71736545D01*
X78476282Y72063322D01*
X78406767Y72231145D01*
X79274500Y72231145D01*
X79274500Y71868856D01*
X79315061Y71508870D01*
X79315062Y71508861D01*
X79315063Y71508857D01*
X79335216Y71420558D01*
X79395678Y71155657D01*
X79395681Y71155649D01*
X79515332Y70813707D01*
X79672517Y70487309D01*
X79672519Y70487306D01*
X79865264Y70180555D01*
X80091142Y69897313D01*
X80347313Y69641142D01*
X80630555Y69415264D01*
X80937306Y69222519D01*
X81263710Y69065331D01*
X81520531Y68975466D01*
X81605648Y68945682D01*
X81605656Y68945679D01*
X81605659Y68945679D01*
X81605660Y68945678D01*
X81958857Y68865063D01*
X82318856Y68824501D01*
X82318857Y68824500D01*
X82318860Y68824500D01*
X82681143Y68824500D01*
X82681143Y68824501D01*
X83041143Y68865063D01*
X83394340Y68945678D01*
X83736290Y69065331D01*
X84062694Y69222519D01*
X84369445Y69415264D01*
X84652687Y69641142D01*
X84908858Y69897313D01*
X85134736Y70180555D01*
X85327481Y70487306D01*
X85484669Y70813710D01*
X85604322Y71155660D01*
X85684937Y71508857D01*
X85725500Y71868860D01*
X85725500Y72231140D01*
X85684937Y72591143D01*
X85604322Y72944340D01*
X85484669Y73286290D01*
X85327481Y73612694D01*
X85134736Y73919445D01*
X84908858Y74202687D01*
X84652687Y74458858D01*
X84369445Y74684736D01*
X84062694Y74877481D01*
X84062691Y74877483D01*
X83736293Y75034668D01*
X83394351Y75154319D01*
X83394343Y75154322D01*
X83129442Y75214784D01*
X83041143Y75234937D01*
X83041139Y75234938D01*
X83041130Y75234939D01*
X82681144Y75275500D01*
X82681140Y75275500D01*
X82318860Y75275500D01*
X82318855Y75275500D01*
X81958869Y75234939D01*
X81958857Y75234937D01*
X81605656Y75154322D01*
X81605648Y75154319D01*
X81263706Y75034668D01*
X80937308Y74877483D01*
X80630556Y74684737D01*
X80347313Y74458859D01*
X80091141Y74202687D01*
X79865263Y73919444D01*
X79672517Y73612692D01*
X79515332Y73286294D01*
X79395681Y72944352D01*
X79395678Y72944344D01*
X79315063Y72591143D01*
X79315061Y72591131D01*
X79274500Y72231145D01*
X78406767Y72231145D01*
X78345603Y72378809D01*
X78184631Y72679968D01*
X77994914Y72963899D01*
X77778281Y73227867D01*
X77778280Y73227868D01*
X77778276Y73227873D01*
X77536823Y73469326D01*
X77272855Y73685959D01*
X77272854Y73685960D01*
X77272850Y73685963D01*
X76988919Y73875680D01*
X76988914Y73875683D01*
X76988907Y73875687D01*
X76687767Y74036648D01*
X76687760Y74036652D01*
X76687753Y74036655D01*
X76372274Y74167331D01*
X76045490Y74266460D01*
X75710583Y74333077D01*
X75710566Y74333080D01*
X75453579Y74358391D01*
X75370740Y74366549D01*
X75029260Y74366549D01*
X74952646Y74359004D01*
X74689433Y74333080D01*
X74689416Y74333077D01*
X74354509Y74266460D01*
X74027725Y74167331D01*
X73712246Y74036655D01*
X73712232Y74036648D01*
X73411092Y73875687D01*
X73411074Y73875676D01*
X73127158Y73685969D01*
X73127144Y73685959D01*
X72863176Y73469326D01*
X72621723Y73227873D01*
X72405090Y72963905D01*
X72405080Y72963891D01*
X72215373Y72679975D01*
X72215362Y72679957D01*
X72054401Y72378817D01*
X72054394Y72378803D01*
X71923718Y72063324D01*
X71824589Y71736540D01*
X71757972Y71401633D01*
X71757969Y71401616D01*
X71724500Y71061786D01*
X-3519574Y71061786D01*
X-3504253Y75740102D01*
X-3484349Y75807076D01*
X-3462882Y75832154D01*
X-2300374Y76871008D01*
X-2237272Y76900999D01*
X-2167970Y76892114D01*
X-2114473Y76847171D01*
X-2093765Y76780441D01*
X-2099090Y76742552D01*
X-2114125Y76692988D01*
X-2135293Y76623206D01*
X-2135296Y76623195D01*
X-2211974Y76237703D01*
X-2250500Y75846529D01*
X-2250500Y75453472D01*
X-2211974Y75062298D01*
X-2135296Y74676806D01*
X-2135293Y74676795D01*
X-2021190Y74300646D01*
X-1870770Y73937501D01*
X-1870768Y73937496D01*
X-1685489Y73590863D01*
X-1685478Y73590845D01*
X-1467113Y73264040D01*
X-1467103Y73264026D01*
X-1217746Y72960183D01*
X-939818Y72682255D01*
X-939813Y72682251D01*
X-939812Y72682250D01*
X-635969Y72432893D01*
X-309149Y72214518D01*
X-309140Y72214513D01*
X-309138Y72214512D01*
X37495Y72029233D01*
X37497Y72029233D01*
X37503Y72029229D01*
X400647Y71878810D01*
X776785Y71764710D01*
X776791Y71764709D01*
X776794Y71764708D01*
X776805Y71764705D01*
X1162297Y71688027D01*
X1553468Y71649500D01*
X1553471Y71649500D01*
X1946529Y71649500D01*
X1946532Y71649500D01*
X2337703Y71688027D01*
X2412748Y71702955D01*
X2723194Y71764705D01*
X2723205Y71764708D01*
X2723205Y71764709D01*
X2723215Y71764710D01*
X3099353Y71878810D01*
X3462497Y72029229D01*
X3809149Y72214518D01*
X4135969Y72432893D01*
X4439812Y72682250D01*
X4717750Y72960188D01*
X4967107Y73264031D01*
X5185482Y73590851D01*
X5370771Y73937503D01*
X5521190Y74300647D01*
X5635290Y74676785D01*
X5635292Y74676795D01*
X5635295Y74676806D01*
X5663925Y74820740D01*
X16874500Y74820740D01*
X16874500Y74479260D01*
X16884561Y74377109D01*
X16907969Y74139434D01*
X16907972Y74139417D01*
X16974589Y73804510D01*
X17073718Y73477726D01*
X17204394Y73162247D01*
X17204401Y73162233D01*
X17365362Y72861093D01*
X17365373Y72861075D01*
X17555080Y72577159D01*
X17555090Y72577145D01*
X17771723Y72313177D01*
X18013176Y72071724D01*
X18013181Y72071720D01*
X18013182Y72071719D01*
X18277150Y71855086D01*
X18561081Y71665369D01*
X18862240Y71504397D01*
X19177727Y71373718D01*
X19504504Y71274591D01*
X19839423Y71207971D01*
X20179260Y71174500D01*
X20179263Y71174500D01*
X20520737Y71174500D01*
X20520740Y71174500D01*
X20860577Y71207971D01*
X21195496Y71274591D01*
X21522273Y71373718D01*
X21837760Y71504397D01*
X22138919Y71665369D01*
X22422850Y71855086D01*
X22635049Y72029233D01*
X22685684Y72070788D01*
X22686057Y72071095D01*
X22686818Y72071719D01*
X22928281Y72313182D01*
X23144914Y72577150D01*
X23334631Y72861081D01*
X23495603Y73162240D01*
X23612020Y73443295D01*
X65951100Y73443295D01*
X65951100Y73213906D01*
X65951101Y73213890D01*
X65981042Y72986463D01*
X66040418Y72764870D01*
X66128202Y72552941D01*
X66128206Y72552931D01*
X66242899Y72354276D01*
X66242905Y72354269D01*
X66299481Y72280536D01*
X66946984Y72928040D01*
X66947840Y72925974D01*
X67040862Y72786756D01*
X67159256Y72668362D01*
X67298474Y72575340D01*
X67300537Y72574486D01*
X66653034Y71926983D01*
X66653034Y71926982D01*
X66726766Y71870406D01*
X66925430Y71755707D01*
X66925440Y71755703D01*
X67137369Y71667919D01*
X67358962Y71608543D01*
X67586389Y71578602D01*
X67586406Y71578600D01*
X67815794Y71578600D01*
X67815810Y71578602D01*
X68043237Y71608543D01*
X68264830Y71667919D01*
X68476759Y71755703D01*
X68476768Y71755707D01*
X68675427Y71870403D01*
X68675434Y71870408D01*
X68749164Y71926983D01*
X68101661Y72574486D01*
X68103726Y72575340D01*
X68242944Y72668362D01*
X68361338Y72786756D01*
X68454360Y72925974D01*
X68455214Y72928039D01*
X69102717Y72280536D01*
X69159292Y72354266D01*
X69159297Y72354273D01*
X69273993Y72552932D01*
X69273997Y72552941D01*
X69361781Y72764870D01*
X69421157Y72986463D01*
X69451098Y73213890D01*
X69451100Y73213906D01*
X69451100Y73443295D01*
X69451098Y73443311D01*
X69421157Y73670738D01*
X69361781Y73892331D01*
X69273997Y74104260D01*
X69273993Y74104270D01*
X69159294Y74302934D01*
X69102718Y74376666D01*
X69102717Y74376666D01*
X68455214Y73729163D01*
X68454360Y73731226D01*
X68361338Y73870444D01*
X68242944Y73988838D01*
X68103726Y74081860D01*
X68101660Y74082716D01*
X68749164Y74730219D01*
X68749164Y74730220D01*
X68675431Y74786795D01*
X68675424Y74786801D01*
X68476769Y74901494D01*
X68476759Y74901498D01*
X68264830Y74989282D01*
X68043237Y75048658D01*
X67815810Y75078599D01*
X67815794Y75078600D01*
X67586406Y75078600D01*
X67586389Y75078599D01*
X67358962Y75048658D01*
X67137369Y74989282D01*
X66925440Y74901498D01*
X66925430Y74901494D01*
X66726773Y74786799D01*
X66726759Y74786790D01*
X66653034Y74730220D01*
X67300538Y74082716D01*
X67298474Y74081860D01*
X67159256Y73988838D01*
X67040862Y73870444D01*
X66947840Y73731226D01*
X66946985Y73729162D01*
X66299481Y74376666D01*
X66299480Y74376666D01*
X66242910Y74302941D01*
X66242901Y74302927D01*
X66128206Y74104270D01*
X66128202Y74104260D01*
X66040418Y73892331D01*
X65981042Y73670738D01*
X65951101Y73443311D01*
X65951100Y73443295D01*
X23612020Y73443295D01*
X23626282Y73477727D01*
X23725409Y73804504D01*
X23792029Y74139423D01*
X23825500Y74479260D01*
X23825500Y74820740D01*
X23792029Y75160577D01*
X23725409Y75495496D01*
X23626282Y75822273D01*
X23495603Y76137760D01*
X23334631Y76438919D01*
X23144914Y76722850D01*
X22928281Y76986818D01*
X22928280Y76986819D01*
X22928276Y76986824D01*
X22686823Y77228277D01*
X22422855Y77444910D01*
X22422854Y77444911D01*
X22422850Y77444914D01*
X22138919Y77634631D01*
X22138914Y77634634D01*
X22138907Y77634638D01*
X21908285Y77757907D01*
X21837760Y77795603D01*
X21837753Y77795606D01*
X21522274Y77926282D01*
X21195490Y78025411D01*
X20860583Y78092028D01*
X20860566Y78092031D01*
X20603579Y78117342D01*
X20520740Y78125500D01*
X20179260Y78125500D01*
X20102646Y78117955D01*
X19839433Y78092031D01*
X19839416Y78092028D01*
X19504509Y78025411D01*
X19177725Y77926282D01*
X18862246Y77795606D01*
X18862232Y77795599D01*
X18561092Y77634638D01*
X18561074Y77634627D01*
X18277158Y77444920D01*
X18277144Y77444910D01*
X18013176Y77228277D01*
X17771723Y76986824D01*
X17555090Y76722856D01*
X17555080Y76722842D01*
X17365373Y76438926D01*
X17365362Y76438908D01*
X17204401Y76137768D01*
X17204394Y76137754D01*
X17073718Y75822275D01*
X16974589Y75495491D01*
X16907972Y75160584D01*
X16907969Y75160567D01*
X16895570Y75034669D01*
X16874500Y74820740D01*
X5663925Y74820740D01*
X5669342Y74847975D01*
X5711973Y75062298D01*
X5750500Y75453468D01*
X5750500Y75846532D01*
X5711973Y76237703D01*
X5671949Y76438919D01*
X5635295Y76623195D01*
X5635292Y76623206D01*
X5635291Y76623209D01*
X5635290Y76623215D01*
X5521190Y76999353D01*
X5370771Y77362497D01*
X5347869Y77405343D01*
X5185488Y77709138D01*
X5185487Y77709140D01*
X5185482Y77709149D01*
X4967107Y78035969D01*
X4717750Y78339812D01*
X4717749Y78339813D01*
X4717745Y78339818D01*
X4439817Y78617746D01*
X4135974Y78867103D01*
X4135973Y78867104D01*
X4135969Y78867107D01*
X3809149Y79085482D01*
X3809144Y79085485D01*
X3809137Y79085489D01*
X3462504Y79270768D01*
X3462499Y79270770D01*
X3434926Y79282191D01*
X3226918Y79368351D01*
X3099354Y79421190D01*
X2723205Y79535293D01*
X2723194Y79535296D01*
X2337702Y79611974D01*
X2177558Y79627746D01*
X2125322Y79632891D01*
X1946532Y79650500D01*
X1553468Y79650500D01*
X1481320Y79643394D01*
X1162305Y79611975D01*
X1099173Y79599417D01*
X1029581Y79605646D01*
X974405Y79648509D01*
X951161Y79714399D01*
X959064Y79747845D01*
X37301100Y79747845D01*
X37301100Y79100000D01*
X38218088Y79100000D01*
X38185175Y79042993D01*
X38151100Y78915826D01*
X38151100Y78784174D01*
X38185175Y78657007D01*
X38218088Y78600000D01*
X37301100Y78600000D01*
X37301100Y77952156D01*
X37307501Y77892628D01*
X37307503Y77892621D01*
X37357745Y77757914D01*
X37357749Y77757907D01*
X37443909Y77642813D01*
X37443912Y77642810D01*
X37559006Y77556650D01*
X37559013Y77556646D01*
X37693720Y77506404D01*
X37693727Y77506402D01*
X37753255Y77500001D01*
X37753272Y77500000D01*
X38401100Y77500000D01*
X38401100Y78416988D01*
X38458107Y78384075D01*
X38585274Y78350000D01*
X38716926Y78350000D01*
X38844093Y78384075D01*
X38901100Y78416988D01*
X38901100Y77500000D01*
X39548928Y77500000D01*
X39548944Y77500001D01*
X39608472Y77506402D01*
X39608479Y77506404D01*
X39743186Y77556646D01*
X39743193Y77556650D01*
X39858287Y77642810D01*
X39858290Y77642813D01*
X39944450Y77757907D01*
X39944454Y77757914D01*
X39994696Y77892621D01*
X39994698Y77892628D01*
X40001099Y77952156D01*
X40001100Y77952173D01*
X40001100Y78178470D01*
X73429500Y78178470D01*
X73429500Y77971531D01*
X73469868Y77768588D01*
X73469870Y77768580D01*
X73549058Y77577404D01*
X73664024Y77405343D01*
X73810342Y77259025D01*
X73810345Y77259023D01*
X73982402Y77144059D01*
X74173580Y77064870D01*
X74376530Y77024501D01*
X74376534Y77024500D01*
X74376535Y77024500D01*
X74583466Y77024500D01*
X74583467Y77024501D01*
X74786420Y77064870D01*
X74977598Y77144059D01*
X75149655Y77259023D01*
X75295977Y77405345D01*
X75410941Y77577402D01*
X75490130Y77768580D01*
X75530500Y77971535D01*
X75530500Y78178465D01*
X75530499Y78178470D01*
X75969500Y78178470D01*
X75969500Y77971531D01*
X76009868Y77768588D01*
X76009870Y77768580D01*
X76089058Y77577404D01*
X76204024Y77405343D01*
X76350342Y77259025D01*
X76350345Y77259023D01*
X76522402Y77144059D01*
X76713580Y77064870D01*
X76916530Y77024501D01*
X76916534Y77024500D01*
X76916535Y77024500D01*
X77123466Y77024500D01*
X77123467Y77024501D01*
X77326420Y77064870D01*
X77517598Y77144059D01*
X77689655Y77259023D01*
X77835977Y77405345D01*
X77950941Y77577402D01*
X78030130Y77768580D01*
X78070500Y77971535D01*
X78070500Y78178465D01*
X78070499Y78178470D01*
X78509500Y78178470D01*
X78509500Y77971531D01*
X78549868Y77768588D01*
X78549870Y77768580D01*
X78629058Y77577404D01*
X78744024Y77405343D01*
X78890342Y77259025D01*
X78890345Y77259023D01*
X79062402Y77144059D01*
X79253580Y77064870D01*
X79456530Y77024501D01*
X79456534Y77024500D01*
X79456535Y77024500D01*
X79663466Y77024500D01*
X79663467Y77024501D01*
X79866420Y77064870D01*
X80057598Y77144059D01*
X80229655Y77259023D01*
X80375977Y77405345D01*
X80490941Y77577402D01*
X80570130Y77768580D01*
X80610500Y77971535D01*
X80610500Y78178465D01*
X80610499Y78178470D01*
X81049500Y78178470D01*
X81049500Y77971531D01*
X81089868Y77768588D01*
X81089870Y77768580D01*
X81169058Y77577404D01*
X81284024Y77405343D01*
X81430342Y77259025D01*
X81430345Y77259023D01*
X81602402Y77144059D01*
X81793580Y77064870D01*
X81996530Y77024501D01*
X81996534Y77024500D01*
X81996535Y77024500D01*
X82203466Y77024500D01*
X82203467Y77024501D01*
X82406420Y77064870D01*
X82597598Y77144059D01*
X82769655Y77259023D01*
X82915977Y77405345D01*
X83030941Y77577402D01*
X83051439Y77626888D01*
X83095279Y77681292D01*
X83161573Y77703357D01*
X83229273Y77686078D01*
X83276884Y77634941D01*
X83290000Y77579436D01*
X83290000Y77177156D01*
X83296401Y77117628D01*
X83296403Y77117621D01*
X83346645Y76982914D01*
X83346649Y76982907D01*
X83432809Y76867813D01*
X83432812Y76867810D01*
X83547906Y76781650D01*
X83547913Y76781646D01*
X83682620Y76731404D01*
X83682627Y76731402D01*
X83742155Y76725001D01*
X83742172Y76725000D01*
X84390000Y76725000D01*
X84390000Y77641988D01*
X84447007Y77609075D01*
X84574174Y77575000D01*
X84705826Y77575000D01*
X84832993Y77609075D01*
X84890000Y77641988D01*
X84890000Y76725000D01*
X85537828Y76725000D01*
X85537844Y76725001D01*
X85597372Y76731402D01*
X85597379Y76731404D01*
X85732086Y76781646D01*
X85732093Y76781650D01*
X85847187Y76867810D01*
X85847190Y76867813D01*
X85933350Y76982907D01*
X85933354Y76982914D01*
X85983596Y77117621D01*
X85983598Y77117628D01*
X85989999Y77177156D01*
X85990000Y77177173D01*
X85990000Y77825000D01*
X85073012Y77825000D01*
X85105925Y77882007D01*
X85140000Y78009174D01*
X85140000Y78140826D01*
X85105925Y78267993D01*
X85073012Y78325000D01*
X85990000Y78325000D01*
X85990000Y78972828D01*
X85989999Y78972845D01*
X85983598Y79032373D01*
X85983596Y79032380D01*
X85933354Y79167087D01*
X85933350Y79167094D01*
X85847190Y79282188D01*
X85847187Y79282191D01*
X85732093Y79368351D01*
X85732086Y79368355D01*
X85597379Y79418597D01*
X85597372Y79418599D01*
X85537844Y79425000D01*
X84890000Y79425000D01*
X84890000Y78508012D01*
X84832993Y78540925D01*
X84705826Y78575000D01*
X84574174Y78575000D01*
X84447007Y78540925D01*
X84390000Y78508012D01*
X84390000Y79425000D01*
X83742155Y79425000D01*
X83682627Y79418599D01*
X83682620Y79418597D01*
X83547913Y79368355D01*
X83547906Y79368351D01*
X83432812Y79282191D01*
X83432809Y79282188D01*
X83346649Y79167094D01*
X83346645Y79167087D01*
X83296403Y79032380D01*
X83296401Y79032373D01*
X83290000Y78972845D01*
X83290000Y78570565D01*
X83270315Y78503526D01*
X83217511Y78457771D01*
X83148353Y78447827D01*
X83084797Y78476852D01*
X83051439Y78523112D01*
X83030941Y78572597D01*
X83030941Y78572598D01*
X82915977Y78744655D01*
X82915975Y78744658D01*
X82769657Y78890976D01*
X82647130Y78972845D01*
X82597598Y79005941D01*
X82406420Y79085130D01*
X82406412Y79085132D01*
X82203469Y79125500D01*
X82203465Y79125500D01*
X81996535Y79125500D01*
X81996530Y79125500D01*
X81793587Y79085132D01*
X81793579Y79085130D01*
X81602403Y79005942D01*
X81430342Y78890976D01*
X81284024Y78744658D01*
X81169058Y78572597D01*
X81089870Y78381421D01*
X81089868Y78381413D01*
X81049500Y78178470D01*
X80610499Y78178470D01*
X80570130Y78381420D01*
X80490941Y78572598D01*
X80375977Y78744655D01*
X80375975Y78744658D01*
X80229657Y78890976D01*
X80107130Y78972845D01*
X80057598Y79005941D01*
X79866420Y79085130D01*
X79866412Y79085132D01*
X79663469Y79125500D01*
X79663465Y79125500D01*
X79456535Y79125500D01*
X79456530Y79125500D01*
X79253587Y79085132D01*
X79253579Y79085130D01*
X79062403Y79005942D01*
X78890342Y78890976D01*
X78744024Y78744658D01*
X78629058Y78572597D01*
X78549870Y78381421D01*
X78549868Y78381413D01*
X78509500Y78178470D01*
X78070499Y78178470D01*
X78030130Y78381420D01*
X77950941Y78572598D01*
X77835977Y78744655D01*
X77835975Y78744658D01*
X77689657Y78890976D01*
X77567130Y78972845D01*
X77517598Y79005941D01*
X77326420Y79085130D01*
X77326412Y79085132D01*
X77123469Y79125500D01*
X77123465Y79125500D01*
X76916535Y79125500D01*
X76916530Y79125500D01*
X76713587Y79085132D01*
X76713579Y79085130D01*
X76522403Y79005942D01*
X76350342Y78890976D01*
X76204024Y78744658D01*
X76089058Y78572597D01*
X76009870Y78381421D01*
X76009868Y78381413D01*
X75969500Y78178470D01*
X75530499Y78178470D01*
X75490130Y78381420D01*
X75410941Y78572598D01*
X75295977Y78744655D01*
X75295975Y78744658D01*
X75149657Y78890976D01*
X75027130Y78972845D01*
X74977598Y79005941D01*
X74786420Y79085130D01*
X74786412Y79085132D01*
X74583469Y79125500D01*
X74583465Y79125500D01*
X74376535Y79125500D01*
X74376530Y79125500D01*
X74173587Y79085132D01*
X74173579Y79085130D01*
X73982403Y79005942D01*
X73810342Y78890976D01*
X73664024Y78744658D01*
X73549058Y78572597D01*
X73469870Y78381421D01*
X73469868Y78381413D01*
X73429500Y78178470D01*
X40001100Y78178470D01*
X40001100Y78600000D01*
X39084112Y78600000D01*
X39117025Y78657007D01*
X39151100Y78784174D01*
X39151100Y78915826D01*
X39117025Y79042993D01*
X39084112Y79100000D01*
X40001100Y79100000D01*
X40001100Y79747828D01*
X40001099Y79747845D01*
X39994698Y79807373D01*
X39994696Y79807380D01*
X39944454Y79942087D01*
X39944450Y79942094D01*
X39858290Y80057188D01*
X39858287Y80057191D01*
X39743193Y80143351D01*
X39743186Y80143355D01*
X39608479Y80193597D01*
X39608472Y80193599D01*
X39548944Y80200000D01*
X38901100Y80200000D01*
X38901100Y79283012D01*
X38844093Y79315925D01*
X38716926Y79350000D01*
X38585274Y79350000D01*
X38458107Y79315925D01*
X38401100Y79283012D01*
X38401100Y80200000D01*
X37753255Y80200000D01*
X37693727Y80193599D01*
X37693720Y80193597D01*
X37559013Y80143355D01*
X37559006Y80143351D01*
X37443912Y80057191D01*
X37443909Y80057188D01*
X37357749Y79942094D01*
X37357745Y79942087D01*
X37307503Y79807380D01*
X37307501Y79807373D01*
X37301100Y79747845D01*
X959064Y79747845D01*
X967229Y79782396D01*
X992353Y79813492D01*
X2111735Y80813806D01*
X2174840Y80843799D01*
X2194361Y80845345D01*
X96343906Y80845345D01*
X96410945Y80825660D01*
G37*
%TD.AperFunction*%
%TD*%
D15*
X-3600000Y35650000D02*
X-3600000Y44850000D01*
X98000000Y82050000D02*
X103000000Y77050000D01*
X-4720000Y54170000D02*
X-5000000Y54450000D01*
X-5000000Y77050000D02*
X0Y82050000D01*
X-4720000Y48730000D02*
X-4720000Y54170000D01*
X-5000000Y54450000D02*
X-5000000Y77050000D01*
X36000000Y82050000D02*
X62000000Y82050000D01*
X-5000000Y48450000D02*
X-4720000Y48730000D01*
X98000000Y32100000D02*
X98000000Y0D01*
X103000000Y37100000D02*
X98000000Y32100000D01*
X0Y32050000D02*
X-3600000Y35650000D01*
X0Y82050000D02*
X36000000Y82050000D01*
X-5000000Y46250000D02*
X-5000000Y48450000D01*
X103000000Y77050000D02*
X103000000Y37100000D01*
X98000000Y0D02*
X0Y0D01*
X0Y32050000D02*
X0Y0D01*
X-3600000Y44850000D02*
X-5000000Y46250000D01*
X62000000Y82050000D02*
X98000000Y82050000D01*
M02*
