%TF.GenerationSoftware,KiCad,Pcbnew,9.0.0*%
%TF.CreationDate,2025-08-29T01:04:51+01:00*%
%TF.ProjectId,FED3,46454433-2e6b-4696-9361-645f70636258,rev?*%
%TF.SameCoordinates,Original*%
%TF.FileFunction,Paste,Bot*%
%TF.FilePolarity,Positive*%
%FSLAX46Y46*%
G04 Gerber Fmt 4.6, Leading zero omitted, Abs format (unit mm)*
G04 Created by KiCad (PCBNEW 9.0.0) date 2025-08-29 01:04:51*
%MOMM*%
%LPD*%
G01*
G04 APERTURE LIST*
G04 Aperture macros list*
%AMRoundRect*
0 Rectangle with rounded corners*
0 $1 Rounding radius*
0 $2 $3 $4 $5 $6 $7 $8 $9 X,Y pos of 4 corners*
0 Add a 4 corners polygon primitive as box body*
4,1,4,$2,$3,$4,$5,$6,$7,$8,$9,$2,$3,0*
0 Add four circle primitives for the rounded corners*
1,1,$1+$1,$2,$3*
1,1,$1+$1,$4,$5*
1,1,$1+$1,$6,$7*
1,1,$1+$1,$8,$9*
0 Add four rect primitives between the rounded corners*
20,1,$1+$1,$2,$3,$4,$5,0*
20,1,$1+$1,$4,$5,$6,$7,0*
20,1,$1+$1,$6,$7,$8,$9,0*
20,1,$1+$1,$8,$9,$2,$3,0*%
G04 Aperture macros list end*
%ADD10R,0.800000X1.000000*%
%ADD11R,1.500000X0.700000*%
%ADD12RoundRect,0.250000X0.450000X-0.262500X0.450000X0.262500X-0.450000X0.262500X-0.450000X-0.262500X0*%
%ADD13R,1.500000X0.900000*%
%ADD14R,0.900000X1.500000*%
%TA.AperFunction,Profile*%
%ADD15C,0.250000*%
%TD*%
G04 APERTURE END LIST*
D10*
%TO.C,SW1*%
X198350000Y-124700000D03*
X200550000Y-124700000D03*
X200550000Y-117400000D03*
X198350000Y-117400000D03*
D11*
X197200000Y-123300000D03*
X197200000Y-121800000D03*
X197200000Y-118800000D03*
%TD*%
D12*
%TO.C,R26*%
X198750000Y-107912500D03*
X198750000Y-106087500D03*
%TD*%
D13*
%TO.C,LED10*%
X176551100Y-97650400D03*
X176551100Y-94350400D03*
X181451100Y-94350400D03*
X181451100Y-97650400D03*
%TD*%
D14*
%TO.C,LED4*%
X153351900Y-123716000D03*
X150051900Y-123716000D03*
X150051900Y-118816000D03*
X153351900Y-118816000D03*
%TD*%
D13*
%TO.C,LED9*%
X115551100Y-97650400D03*
X115551100Y-94350400D03*
X120451100Y-94350400D03*
X120451100Y-97650400D03*
%TD*%
D14*
%TO.C,LED8*%
X127951900Y-123716000D03*
X124651900Y-123716000D03*
X124651900Y-118816000D03*
X127951900Y-118816000D03*
%TD*%
%TO.C,LED3*%
X159701900Y-123716000D03*
X156401900Y-123716000D03*
X156401900Y-118816000D03*
X159701900Y-118816000D03*
%TD*%
%TO.C,LED1*%
X172401900Y-123716000D03*
X169101900Y-123716000D03*
X169101900Y-118816000D03*
X172401900Y-118816000D03*
%TD*%
%TO.C,LED2*%
X166051900Y-123716000D03*
X162751900Y-123716000D03*
X162751900Y-118816000D03*
X166051900Y-118816000D03*
%TD*%
%TO.C,LED6*%
X140651900Y-123716000D03*
X137351900Y-123716000D03*
X137351900Y-118816000D03*
X140651900Y-118816000D03*
%TD*%
%TO.C,LED7*%
X134301900Y-123716000D03*
X131001900Y-123716000D03*
X131001900Y-118816000D03*
X134301900Y-118816000D03*
%TD*%
%TO.C,LED5*%
X147001900Y-123716000D03*
X143701900Y-123716000D03*
X143701900Y-118816000D03*
X147001900Y-118816000D03*
%TD*%
D15*
X201101100Y-126403600D02*
X201101100Y-117203600D01*
X161501100Y-103003600D02*
X135501100Y-103003600D01*
X161501100Y-80003600D02*
X161501100Y-85751600D01*
X161501100Y-85751600D02*
X164097100Y-88347600D01*
X99501100Y-80003600D02*
X94501100Y-85003600D01*
X202221100Y-107883600D02*
X202501100Y-107603600D01*
X202501100Y-85003600D02*
X197501100Y-80003600D01*
X202221100Y-113323600D02*
X202221100Y-107883600D01*
X202501100Y-107603600D02*
X202501100Y-85003600D01*
X161501100Y-96983600D02*
X161501100Y-103003600D01*
X202501100Y-113603600D02*
X202221100Y-113323600D01*
X135501100Y-103003600D02*
X135501100Y-80003600D01*
X94501100Y-125003600D02*
X99501100Y-130003600D01*
X164097100Y-88347600D02*
X164097100Y-94443600D01*
X197501100Y-130003600D02*
X201101100Y-126403600D01*
X197501100Y-80003600D02*
X161501100Y-80003600D01*
X202501100Y-115803600D02*
X202501100Y-113603600D01*
X94501100Y-85003600D02*
X94501100Y-125003600D01*
X99501100Y-130003600D02*
X197501100Y-130003600D01*
X164097100Y-94443600D02*
X161501100Y-96983600D01*
X201101100Y-117203600D02*
X202501100Y-115803600D01*
X135501100Y-80003600D02*
X99501100Y-80003600D01*
M02*
