%TF.GenerationSoftware,KiCad,Pcbnew,9.0.0*%
%TF.CreationDate,2025-08-25T22:56:13+01:00*%
%TF.ProjectId,FED3,46454433-2e6b-4696-9361-645f70636258,rev?*%
%TF.SameCoordinates,Original*%
%TF.FileFunction,Soldermask,Bot*%
%TF.FilePolarity,Negative*%
%FSLAX46Y46*%
G04 Gerber Fmt 4.6, Leading zero omitted, Abs format (unit mm)*
G04 Created by KiCad (PCBNEW 9.0.0) date 2025-08-25 22:56:13*
%MOMM*%
%LPD*%
G01*
G04 APERTURE LIST*
G04 Aperture macros list*
%AMOutline5P*
0 Free polygon, 5 corners , with rotation*
0 The origin of the aperture is its center*
0 number of corners: always 5*
0 $1 to $10 corner X, Y*
0 $11 Rotation angle, in degrees counterclockwise*
0 create outline with 5 corners*
4,1,5,$1,$2,$3,$4,$5,$6,$7,$8,$9,$10,$1,$2,$11*%
%AMOutline6P*
0 Free polygon, 6 corners , with rotation*
0 The origin of the aperture is its center*
0 number of corners: always 6*
0 $1 to $12 corner X, Y*
0 $13 Rotation angle, in degrees counterclockwise*
0 create outline with 6 corners*
4,1,6,$1,$2,$3,$4,$5,$6,$7,$8,$9,$10,$11,$12,$1,$2,$13*%
%AMOutline7P*
0 Free polygon, 7 corners , with rotation*
0 The origin of the aperture is its center*
0 number of corners: always 7*
0 $1 to $14 corner X, Y*
0 $15 Rotation angle, in degrees counterclockwise*
0 create outline with 7 corners*
4,1,7,$1,$2,$3,$4,$5,$6,$7,$8,$9,$10,$11,$12,$13,$14,$1,$2,$15*%
%AMOutline8P*
0 Free polygon, 8 corners , with rotation*
0 The origin of the aperture is its center*
0 number of corners: always 8*
0 $1 to $16 corner X, Y*
0 $17 Rotation angle, in degrees counterclockwise*
0 create outline with 8 corners*
4,1,8,$1,$2,$3,$4,$5,$6,$7,$8,$9,$10,$11,$12,$13,$14,$15,$16,$1,$2,$17*%
G04 Aperture macros list end*
%ADD10O,3.048000X1.524000*%
%ADD11C,2.900000*%
%ADD12R,1.700000X1.700000*%
%ADD13C,1.700000*%
%ADD14C,1.500000*%
%ADD15C,1.524000*%
%ADD16C,0.650000*%
%ADD17O,2.100000X1.000000*%
%ADD18O,1.800000X1.000000*%
%ADD19R,2.000000X2.000000*%
%ADD20C,3.500000*%
%ADD21Outline8P,-0.762000X0.315631X-0.315631X0.762000X0.315631X0.762000X0.762000X0.315631X0.762000X-0.315631X0.315631X-0.762000X-0.315631X-0.762000X-0.762000X-0.315631X180.000000*%
%ADD22O,1.524000X3.048000*%
%ADD23C,1.600000*%
%ADD24R,1.500000X0.900000*%
%ADD25R,0.900000X1.500000*%
%ADD26C,0.900000*%
%ADD27R,1.500000X0.700000*%
%ADD28R,0.800000X1.000000*%
%ADD29C,0.700000*%
%ADD30C,1.208000*%
%TA.AperFunction,Profile*%
%ADD31C,0.250000*%
%TD*%
G04 APERTURE END LIST*
D10*
%TO.C,SCREEN0*%
X97251100Y-98903600D03*
X97251100Y-101443600D03*
X97251100Y-103983600D03*
X97251100Y-106523600D03*
X97251100Y-109063600D03*
X97251100Y-111603600D03*
%TD*%
D11*
%TO.C,*%
X192500000Y-99003600D03*
%TD*%
D12*
%TO.C,J1*%
X148582050Y-128109743D03*
D13*
X148582050Y-125569743D03*
X151122050Y-128109743D03*
X151122050Y-125569743D03*
X153662050Y-128109743D03*
X153662050Y-125569743D03*
%TD*%
D14*
%TO.C,@HOLE2*%
X161501100Y-103003600D03*
%TD*%
%TO.C,@HOLE2*%
X135501100Y-103003600D03*
%TD*%
D15*
%TO.C,X3*%
X141694300Y-125736400D03*
X139154300Y-125736400D03*
%TD*%
D11*
%TO.C,@HOLE6*%
X118501100Y-116003600D03*
%TD*%
D16*
%TO.C,J3*%
X196929200Y-109923600D03*
X196929200Y-104143600D03*
D17*
X196429200Y-111353600D03*
D18*
X200609200Y-111353600D03*
D17*
X196429200Y-102713600D03*
D18*
X200609200Y-102713600D03*
%TD*%
D19*
%TO.C,TP5*%
X99800000Y-116900000D03*
%TD*%
D20*
%TO.C,@HOLE5*%
X104788100Y-100793600D03*
%TD*%
D21*
%TO.C,BZ1*%
X131459200Y-110180000D03*
X126510000Y-110180000D03*
%TD*%
D22*
%TO.C,MOTOR0*%
X112921100Y-84003600D03*
X115461100Y-84003600D03*
X118001100Y-84003600D03*
X120541100Y-84003600D03*
X123081100Y-84003600D03*
%TD*%
D23*
%TO.C,EXT0*%
X199844300Y-92614800D03*
X192844300Y-92614800D03*
%TD*%
D12*
%TO.C,J2*%
X160550000Y-126400000D03*
D13*
X158010000Y-126400000D03*
%TD*%
D11*
%TO.C,@HOLE0*%
X115001100Y-90003600D03*
%TD*%
D24*
%TO.C,LED10*%
X176551100Y-97650400D03*
X176551100Y-94350400D03*
X181451100Y-94350400D03*
X181451100Y-97650400D03*
%TD*%
D25*
%TO.C,LED4*%
X153351900Y-123716000D03*
X150051900Y-123716000D03*
X150051900Y-118816000D03*
X153351900Y-118816000D03*
%TD*%
D26*
%TO.C,SW1*%
X199450000Y-119550000D03*
X199450000Y-122550000D03*
D27*
X197200000Y-118800000D03*
X197200000Y-121800000D03*
X197200000Y-123300000D03*
D28*
X198350000Y-117400000D03*
X200550000Y-117400000D03*
X200550000Y-124700000D03*
X198350000Y-124700000D03*
%TD*%
D24*
%TO.C,LED9*%
X115551100Y-97650400D03*
X115551100Y-94350400D03*
X120451100Y-94350400D03*
X120451100Y-97650400D03*
%TD*%
D25*
%TO.C,LED8*%
X127951900Y-123716000D03*
X124651900Y-123716000D03*
X124651900Y-118816000D03*
X127951900Y-118816000D03*
%TD*%
%TO.C,LED3*%
X159701900Y-123716000D03*
X156401900Y-123716000D03*
X156401900Y-118816000D03*
X159701900Y-118816000D03*
%TD*%
%TO.C,LED1*%
X172401900Y-123716000D03*
X169101900Y-123716000D03*
X169101900Y-118816000D03*
X172401900Y-118816000D03*
%TD*%
D29*
%TO.C,PI3*%
X126951100Y-100003600D03*
D14*
X118001100Y-102003600D03*
D30*
X125601100Y-100763600D03*
X125621100Y-103273600D03*
X110401100Y-103303600D03*
X111851100Y-102003600D03*
X110381100Y-100733600D03*
%TD*%
D29*
%TO.C,PI1*%
X187951100Y-100003600D03*
D14*
X179001100Y-102003600D03*
D30*
X186601100Y-100763600D03*
X186621100Y-103273600D03*
X171401100Y-103303600D03*
X172851100Y-102003600D03*
X171381100Y-100733600D03*
%TD*%
D29*
%TO.C,PI2*%
X157451100Y-107003600D03*
D14*
X148501100Y-109003600D03*
D30*
X156101100Y-107763600D03*
X156121100Y-110273600D03*
X140901100Y-110303600D03*
X142351100Y-109003600D03*
X140881100Y-107733600D03*
%TD*%
D25*
%TO.C,LED2*%
X166051900Y-123716000D03*
X162751900Y-123716000D03*
X162751900Y-118816000D03*
X166051900Y-118816000D03*
%TD*%
%TO.C,LED6*%
X140651900Y-123716000D03*
X137351900Y-123716000D03*
X137351900Y-118816000D03*
X140651900Y-118816000D03*
%TD*%
%TO.C,LED7*%
X134301900Y-123716000D03*
X131001900Y-123716000D03*
X131001900Y-118816000D03*
X134301900Y-118816000D03*
%TD*%
%TO.C,LED5*%
X147001900Y-123716000D03*
X143701900Y-123716000D03*
X143701900Y-118816000D03*
X147001900Y-118816000D03*
%TD*%
D31*
X201101100Y-126403600D02*
X201101100Y-117203600D01*
X161501100Y-103003600D02*
X135501100Y-103003600D01*
X161501100Y-80003600D02*
X161501100Y-85751600D01*
X161501100Y-85751600D02*
X164097100Y-88347600D01*
X99501100Y-80003600D02*
X94501100Y-85003600D01*
X202221100Y-107883600D02*
X202501100Y-107603600D01*
X202501100Y-85003600D02*
X197501100Y-80003600D01*
X202221100Y-113323600D02*
X202221100Y-107883600D01*
X202501100Y-107603600D02*
X202501100Y-85003600D01*
X161501100Y-96983600D02*
X161501100Y-103003600D01*
X202501100Y-113603600D02*
X202221100Y-113323600D01*
X135501100Y-103003600D02*
X135501100Y-80003600D01*
X94501100Y-125003600D02*
X99501100Y-130003600D01*
X164097100Y-88347600D02*
X164097100Y-94443600D01*
X197501100Y-130003600D02*
X201101100Y-126403600D01*
X197501100Y-80003600D02*
X161501100Y-80003600D01*
X202501100Y-115803600D02*
X202501100Y-113603600D01*
X94501100Y-85003600D02*
X94501100Y-125003600D01*
X99501100Y-130003600D02*
X197501100Y-130003600D01*
X164097100Y-94443600D02*
X161501100Y-96983600D01*
X201101100Y-117203600D02*
X202501100Y-115803600D01*
X135501100Y-80003600D02*
X99501100Y-80003600D01*
M02*
