%TF.GenerationSoftware,KiCad,Pcbnew,9.0.7*%
%TF.CreationDate,2026-02-04T16:30:56+00:00*%
%TF.ProjectId,FED3 tester - support,46454433-2074-4657-9374-6572202d2073,rev?*%
%TF.SameCoordinates,PX6146580PY6dc4960*%
%TF.FileFunction,AssemblyDrawing,Top*%
%FSLAX46Y46*%
G04 Gerber Fmt 4.6, Leading zero omitted, Abs format (unit mm)*
G04 Created by KiCad (PCBNEW 9.0.7) date 2026-02-04 16:30:56*
%MOMM*%
%LPD*%
G01*
G04 APERTURE LIST*
%ADD10C,0.100000*%
%TA.AperFunction,Profile*%
%ADD11C,0.250000*%
%TD*%
G04 APERTURE END LIST*
D10*
X68077500Y6340500D02*
G75*
G02*
X67758500Y6340500I-159500J0D01*
G01*
X67758500Y6340500D02*
G75*
G02*
X68077500Y6340500I159500J0D01*
G01*
%TO.C,J2*%
X42569050Y37753857D02*
X50189050Y37753857D01*
X42569050Y33943857D02*
X42569050Y37753857D01*
X43839050Y32673857D02*
X42569050Y33943857D01*
X50189050Y37753857D02*
X50189050Y32673857D01*
X50189050Y32673857D02*
X43839050Y32673857D01*
%TD*%
D11*
X-3600000Y35650000D02*
X-3600000Y44850000D01*
X98000000Y82050000D02*
X103000000Y77050000D01*
X-4720000Y54170000D02*
X-5000000Y54450000D01*
X-5000000Y77050000D02*
X0Y82050000D01*
X-4720000Y48730000D02*
X-4720000Y54170000D01*
X-5000000Y54450000D02*
X-5000000Y77050000D01*
X36000000Y82050000D02*
X62000000Y82050000D01*
X-5000000Y48450000D02*
X-4720000Y48730000D01*
X98000000Y32100000D02*
X98000000Y0D01*
X103000000Y37100000D02*
X98000000Y32100000D01*
X0Y32050000D02*
X-3600000Y35650000D01*
X0Y82050000D02*
X36000000Y82050000D01*
X-5000000Y46250000D02*
X-5000000Y48450000D01*
X103000000Y77050000D02*
X103000000Y37100000D01*
X98000000Y0D02*
X0Y0D01*
X0Y32050000D02*
X0Y0D01*
X-3600000Y44850000D02*
X-5000000Y46250000D01*
X62000000Y82050000D02*
X98000000Y82050000D01*
M02*
