%TF.GenerationSoftware,KiCad,Pcbnew,9.0.7*%
%TF.CreationDate,2026-02-04T15:46:56+00:00*%
%TF.ProjectId,FED3 tester base - support,46454433-2074-4657-9374-657220626173,rev?*%
%TF.SameCoordinates,PX6146580PY6dc4960*%
%TF.FileFunction,Legend,Top*%
%TF.FilePolarity,Positive*%
%FSLAX46Y46*%
G04 Gerber Fmt 4.6, Leading zero omitted, Abs format (unit mm)*
G04 Created by KiCad (PCBNEW 9.0.7) date 2026-02-04 15:46:56*
%MOMM*%
%LPD*%
G01*
G04 APERTURE LIST*
%ADD10C,0.300000*%
%ADD11C,0.100000*%
%ADD12C,0.700000*%
%ADD13C,0.328168*%
%TA.AperFunction,Profile*%
%ADD14C,0.250000*%
%TD*%
G04 APERTURE END LIST*
D10*
X94641049Y26625000D02*
G75*
G02*
X90658951Y26625000I-1991049J0D01*
G01*
X90658951Y26625000D02*
G75*
G02*
X94641049Y26625000I1991049J0D01*
G01*
X53091049Y21833951D02*
G75*
G02*
X49108951Y21833951I-1991049J0D01*
G01*
X49108951Y21833951D02*
G75*
G02*
X53091049Y21833951I1991049J0D01*
G01*
D11*
X7651270Y63053600D02*
G75*
G02*
X2350930Y63053600I-2650170J0D01*
G01*
X2350930Y63053600D02*
G75*
G02*
X7651270Y63053600I2650170J0D01*
G01*
D10*
X5691049Y37025000D02*
G75*
G02*
X1708951Y37025000I-1991049J0D01*
G01*
X1708951Y37025000D02*
G75*
G02*
X5691049Y37025000I1991049J0D01*
G01*
D12*
X7491049Y5516049D02*
G75*
G02*
X3508951Y5516049I-1991049J0D01*
G01*
X3508951Y5516049D02*
G75*
G02*
X7491049Y5516049I1991049J0D01*
G01*
D11*
X81651119Y46053600D02*
G75*
G02*
X76351081Y46053600I-2650019J0D01*
G01*
X76351081Y46053600D02*
G75*
G02*
X81651119Y46053600I2650019J0D01*
G01*
D12*
X3741049Y75633951D02*
G75*
G02*
X-241049Y75633951I-1991049J0D01*
G01*
X-241049Y75633951D02*
G75*
G02*
X3741049Y75633951I1991049J0D01*
G01*
X51391049Y45660655D02*
G75*
G02*
X47408951Y45660655I-1991049J0D01*
G01*
X47408951Y45660655D02*
G75*
G02*
X51391049Y45660655I1991049J0D01*
G01*
X94491049Y5558951D02*
G75*
G02*
X90508951Y5558951I-1991049J0D01*
G01*
X90508951Y5558951D02*
G75*
G02*
X94491049Y5558951I1991049J0D01*
G01*
X98291049Y75633951D02*
G75*
G02*
X94308951Y75633951I-1991049J0D01*
G01*
X94308951Y75633951D02*
G75*
G02*
X98291049Y75633951I1991049J0D01*
G01*
D10*
X22341049Y74650000D02*
G75*
G02*
X18358951Y74650000I-1991049J0D01*
G01*
X18358951Y74650000D02*
G75*
G02*
X22341049Y74650000I1991049J0D01*
G01*
X77166049Y70875000D02*
G75*
G02*
X73183951Y70875000I-1991049J0D01*
G01*
X73183951Y70875000D02*
G75*
G02*
X77166049Y70875000I1991049J0D01*
G01*
D13*
X11403522Y6769021D02*
X10856576Y6769021D01*
X10856576Y5909533D02*
X10856576Y7550373D01*
X10856576Y7550373D02*
X11637928Y7550373D01*
X12263010Y6769021D02*
X12809956Y6769021D01*
X13044362Y5909533D02*
X12263010Y5909533D01*
X12263010Y5909533D02*
X12263010Y7550373D01*
X12263010Y7550373D02*
X13044362Y7550373D01*
X13747580Y5909533D02*
X13747580Y7550373D01*
X13747580Y7550373D02*
X14138256Y7550373D01*
X14138256Y7550373D02*
X14372662Y7472238D01*
X14372662Y7472238D02*
X14528932Y7315968D01*
X14528932Y7315968D02*
X14607067Y7159697D01*
X14607067Y7159697D02*
X14685203Y6847156D01*
X14685203Y6847156D02*
X14685203Y6612750D01*
X14685203Y6612750D02*
X14607067Y6300209D01*
X14607067Y6300209D02*
X14528932Y6143939D01*
X14528932Y6143939D02*
X14372662Y5987668D01*
X14372662Y5987668D02*
X14138256Y5909533D01*
X14138256Y5909533D02*
X13747580Y5909533D01*
X15232149Y7550373D02*
X16247907Y7550373D01*
X16247907Y7550373D02*
X15700961Y6925291D01*
X15700961Y6925291D02*
X15935366Y6925291D01*
X15935366Y6925291D02*
X16091637Y6847156D01*
X16091637Y6847156D02*
X16169772Y6769021D01*
X16169772Y6769021D02*
X16247907Y6612750D01*
X16247907Y6612750D02*
X16247907Y6222074D01*
X16247907Y6222074D02*
X16169772Y6065804D01*
X16169772Y6065804D02*
X16091637Y5987668D01*
X16091637Y5987668D02*
X15935366Y5909533D01*
X15935366Y5909533D02*
X15466555Y5909533D01*
X15466555Y5909533D02*
X15310284Y5987668D01*
X15310284Y5987668D02*
X15232149Y6065804D01*
X17966883Y7003427D02*
X18591965Y7003427D01*
X18201289Y7550373D02*
X18201289Y6143939D01*
X18201289Y6143939D02*
X18279424Y5987668D01*
X18279424Y5987668D02*
X18435694Y5909533D01*
X18435694Y5909533D02*
X18591965Y5909533D01*
X19763994Y5987668D02*
X19607723Y5909533D01*
X19607723Y5909533D02*
X19295182Y5909533D01*
X19295182Y5909533D02*
X19138912Y5987668D01*
X19138912Y5987668D02*
X19060776Y6143939D01*
X19060776Y6143939D02*
X19060776Y6769021D01*
X19060776Y6769021D02*
X19138912Y6925291D01*
X19138912Y6925291D02*
X19295182Y7003427D01*
X19295182Y7003427D02*
X19607723Y7003427D01*
X19607723Y7003427D02*
X19763994Y6925291D01*
X19763994Y6925291D02*
X19842129Y6769021D01*
X19842129Y6769021D02*
X19842129Y6612750D01*
X19842129Y6612750D02*
X19060776Y6456480D01*
X20467210Y5987668D02*
X20623481Y5909533D01*
X20623481Y5909533D02*
X20936022Y5909533D01*
X20936022Y5909533D02*
X21092292Y5987668D01*
X21092292Y5987668D02*
X21170428Y6143939D01*
X21170428Y6143939D02*
X21170428Y6222074D01*
X21170428Y6222074D02*
X21092292Y6378345D01*
X21092292Y6378345D02*
X20936022Y6456480D01*
X20936022Y6456480D02*
X20701616Y6456480D01*
X20701616Y6456480D02*
X20545346Y6534615D01*
X20545346Y6534615D02*
X20467210Y6690886D01*
X20467210Y6690886D02*
X20467210Y6769021D01*
X20467210Y6769021D02*
X20545346Y6925291D01*
X20545346Y6925291D02*
X20701616Y7003427D01*
X20701616Y7003427D02*
X20936022Y7003427D01*
X20936022Y7003427D02*
X21092292Y6925291D01*
X21639239Y7003427D02*
X22264321Y7003427D01*
X21873645Y7550373D02*
X21873645Y6143939D01*
X21873645Y6143939D02*
X21951780Y5987668D01*
X21951780Y5987668D02*
X22108050Y5909533D01*
X22108050Y5909533D02*
X22264321Y5909533D01*
X23436350Y5987668D02*
X23280079Y5909533D01*
X23280079Y5909533D02*
X22967538Y5909533D01*
X22967538Y5909533D02*
X22811268Y5987668D01*
X22811268Y5987668D02*
X22733132Y6143939D01*
X22733132Y6143939D02*
X22733132Y6769021D01*
X22733132Y6769021D02*
X22811268Y6925291D01*
X22811268Y6925291D02*
X22967538Y7003427D01*
X22967538Y7003427D02*
X23280079Y7003427D01*
X23280079Y7003427D02*
X23436350Y6925291D01*
X23436350Y6925291D02*
X23514485Y6769021D01*
X23514485Y6769021D02*
X23514485Y6612750D01*
X23514485Y6612750D02*
X22733132Y6456480D01*
X24217702Y5909533D02*
X24217702Y7003427D01*
X24217702Y6690886D02*
X24295837Y6847156D01*
X24295837Y6847156D02*
X24373972Y6925291D01*
X24373972Y6925291D02*
X24530243Y7003427D01*
X24530243Y7003427D02*
X24686513Y7003427D01*
X26483624Y5909533D02*
X26483624Y7550373D01*
X26483624Y6925291D02*
X26639894Y7003427D01*
X26639894Y7003427D02*
X26952435Y7003427D01*
X26952435Y7003427D02*
X27108706Y6925291D01*
X27108706Y6925291D02*
X27186841Y6847156D01*
X27186841Y6847156D02*
X27264976Y6690886D01*
X27264976Y6690886D02*
X27264976Y6222074D01*
X27264976Y6222074D02*
X27186841Y6065804D01*
X27186841Y6065804D02*
X27108706Y5987668D01*
X27108706Y5987668D02*
X26952435Y5909533D01*
X26952435Y5909533D02*
X26639894Y5909533D01*
X26639894Y5909533D02*
X26483624Y5987668D01*
X28671411Y5909533D02*
X28671411Y6769021D01*
X28671411Y6769021D02*
X28593276Y6925291D01*
X28593276Y6925291D02*
X28437005Y7003427D01*
X28437005Y7003427D02*
X28124464Y7003427D01*
X28124464Y7003427D02*
X27968194Y6925291D01*
X28671411Y5987668D02*
X28515140Y5909533D01*
X28515140Y5909533D02*
X28124464Y5909533D01*
X28124464Y5909533D02*
X27968194Y5987668D01*
X27968194Y5987668D02*
X27890058Y6143939D01*
X27890058Y6143939D02*
X27890058Y6300209D01*
X27890058Y6300209D02*
X27968194Y6456480D01*
X27968194Y6456480D02*
X28124464Y6534615D01*
X28124464Y6534615D02*
X28515140Y6534615D01*
X28515140Y6534615D02*
X28671411Y6612750D01*
X29374628Y5987668D02*
X29530899Y5909533D01*
X29530899Y5909533D02*
X29843440Y5909533D01*
X29843440Y5909533D02*
X29999710Y5987668D01*
X29999710Y5987668D02*
X30077846Y6143939D01*
X30077846Y6143939D02*
X30077846Y6222074D01*
X30077846Y6222074D02*
X29999710Y6378345D01*
X29999710Y6378345D02*
X29843440Y6456480D01*
X29843440Y6456480D02*
X29609034Y6456480D01*
X29609034Y6456480D02*
X29452764Y6534615D01*
X29452764Y6534615D02*
X29374628Y6690886D01*
X29374628Y6690886D02*
X29374628Y6769021D01*
X29374628Y6769021D02*
X29452764Y6925291D01*
X29452764Y6925291D02*
X29609034Y7003427D01*
X29609034Y7003427D02*
X29843440Y7003427D01*
X29843440Y7003427D02*
X29999710Y6925291D01*
X31406145Y5987668D02*
X31249874Y5909533D01*
X31249874Y5909533D02*
X30937333Y5909533D01*
X30937333Y5909533D02*
X30781063Y5987668D01*
X30781063Y5987668D02*
X30702927Y6143939D01*
X30702927Y6143939D02*
X30702927Y6769021D01*
X30702927Y6769021D02*
X30781063Y6925291D01*
X30781063Y6925291D02*
X30937333Y7003427D01*
X30937333Y7003427D02*
X31249874Y7003427D01*
X31249874Y7003427D02*
X31406145Y6925291D01*
X31406145Y6925291D02*
X31484280Y6769021D01*
X31484280Y6769021D02*
X31484280Y6612750D01*
X31484280Y6612750D02*
X30702927Y6456480D01*
X33437661Y6534615D02*
X34687825Y6534615D01*
X36641205Y5987668D02*
X36797476Y5909533D01*
X36797476Y5909533D02*
X37110017Y5909533D01*
X37110017Y5909533D02*
X37266287Y5987668D01*
X37266287Y5987668D02*
X37344423Y6143939D01*
X37344423Y6143939D02*
X37344423Y6222074D01*
X37344423Y6222074D02*
X37266287Y6378345D01*
X37266287Y6378345D02*
X37110017Y6456480D01*
X37110017Y6456480D02*
X36875611Y6456480D01*
X36875611Y6456480D02*
X36719341Y6534615D01*
X36719341Y6534615D02*
X36641205Y6690886D01*
X36641205Y6690886D02*
X36641205Y6769021D01*
X36641205Y6769021D02*
X36719341Y6925291D01*
X36719341Y6925291D02*
X36875611Y7003427D01*
X36875611Y7003427D02*
X37110017Y7003427D01*
X37110017Y7003427D02*
X37266287Y6925291D01*
X38750857Y7003427D02*
X38750857Y5909533D01*
X38047640Y7003427D02*
X38047640Y6143939D01*
X38047640Y6143939D02*
X38125775Y5987668D01*
X38125775Y5987668D02*
X38282045Y5909533D01*
X38282045Y5909533D02*
X38516451Y5909533D01*
X38516451Y5909533D02*
X38672722Y5987668D01*
X38672722Y5987668D02*
X38750857Y6065804D01*
X39532210Y7003427D02*
X39532210Y5362587D01*
X39532210Y6925291D02*
X39688480Y7003427D01*
X39688480Y7003427D02*
X40001021Y7003427D01*
X40001021Y7003427D02*
X40157292Y6925291D01*
X40157292Y6925291D02*
X40235427Y6847156D01*
X40235427Y6847156D02*
X40313562Y6690886D01*
X40313562Y6690886D02*
X40313562Y6222074D01*
X40313562Y6222074D02*
X40235427Y6065804D01*
X40235427Y6065804D02*
X40157292Y5987668D01*
X40157292Y5987668D02*
X40001021Y5909533D01*
X40001021Y5909533D02*
X39688480Y5909533D01*
X39688480Y5909533D02*
X39532210Y5987668D01*
X41016780Y7003427D02*
X41016780Y5362587D01*
X41016780Y6925291D02*
X41173050Y7003427D01*
X41173050Y7003427D02*
X41485591Y7003427D01*
X41485591Y7003427D02*
X41641862Y6925291D01*
X41641862Y6925291D02*
X41719997Y6847156D01*
X41719997Y6847156D02*
X41798132Y6690886D01*
X41798132Y6690886D02*
X41798132Y6222074D01*
X41798132Y6222074D02*
X41719997Y6065804D01*
X41719997Y6065804D02*
X41641862Y5987668D01*
X41641862Y5987668D02*
X41485591Y5909533D01*
X41485591Y5909533D02*
X41173050Y5909533D01*
X41173050Y5909533D02*
X41016780Y5987668D01*
X42735755Y5909533D02*
X42579485Y5987668D01*
X42579485Y5987668D02*
X42501350Y6065804D01*
X42501350Y6065804D02*
X42423214Y6222074D01*
X42423214Y6222074D02*
X42423214Y6690886D01*
X42423214Y6690886D02*
X42501350Y6847156D01*
X42501350Y6847156D02*
X42579485Y6925291D01*
X42579485Y6925291D02*
X42735755Y7003427D01*
X42735755Y7003427D02*
X42970161Y7003427D01*
X42970161Y7003427D02*
X43126432Y6925291D01*
X43126432Y6925291D02*
X43204567Y6847156D01*
X43204567Y6847156D02*
X43282702Y6690886D01*
X43282702Y6690886D02*
X43282702Y6222074D01*
X43282702Y6222074D02*
X43204567Y6065804D01*
X43204567Y6065804D02*
X43126432Y5987668D01*
X43126432Y5987668D02*
X42970161Y5909533D01*
X42970161Y5909533D02*
X42735755Y5909533D01*
X43985920Y5909533D02*
X43985920Y7003427D01*
X43985920Y6690886D02*
X44064055Y6847156D01*
X44064055Y6847156D02*
X44142190Y6925291D01*
X44142190Y6925291D02*
X44298461Y7003427D01*
X44298461Y7003427D02*
X44454731Y7003427D01*
X44767272Y7003427D02*
X45392354Y7003427D01*
X45001678Y7550373D02*
X45001678Y6143939D01*
X45001678Y6143939D02*
X45079813Y5987668D01*
X45079813Y5987668D02*
X45236083Y5909533D01*
X45236083Y5909533D02*
X45392354Y5909533D01*
X10856576Y3267872D02*
X10856576Y4361766D01*
X10856576Y4049225D02*
X10934711Y4205495D01*
X10934711Y4205495D02*
X11012846Y4283630D01*
X11012846Y4283630D02*
X11169117Y4361766D01*
X11169117Y4361766D02*
X11325387Y4361766D01*
X12497416Y3346007D02*
X12341145Y3267872D01*
X12341145Y3267872D02*
X12028604Y3267872D01*
X12028604Y3267872D02*
X11872334Y3346007D01*
X11872334Y3346007D02*
X11794198Y3502278D01*
X11794198Y3502278D02*
X11794198Y4127360D01*
X11794198Y4127360D02*
X11872334Y4283630D01*
X11872334Y4283630D02*
X12028604Y4361766D01*
X12028604Y4361766D02*
X12341145Y4361766D01*
X12341145Y4361766D02*
X12497416Y4283630D01*
X12497416Y4283630D02*
X12575551Y4127360D01*
X12575551Y4127360D02*
X12575551Y3971089D01*
X12575551Y3971089D02*
X11794198Y3814819D01*
X13122497Y4361766D02*
X13513173Y3267872D01*
X13513173Y3267872D02*
X13903850Y4361766D01*
X14528932Y3424143D02*
X14607067Y3346007D01*
X14607067Y3346007D02*
X14528932Y3267872D01*
X14528932Y3267872D02*
X14450796Y3346007D01*
X14450796Y3346007D02*
X14528932Y3424143D01*
X14528932Y3424143D02*
X14528932Y3267872D01*
X15232148Y3736684D02*
X16013501Y3736684D01*
X15075878Y3267872D02*
X15622825Y4908712D01*
X15622825Y4908712D02*
X16169771Y3267872D01*
D11*
%TO.C,TP6*%
X35941197Y41053600D02*
G75*
G02*
X33111003Y41053600I-1415097J0D01*
G01*
X33111003Y41053600D02*
G75*
G02*
X35941197Y41053600I1415097J0D01*
G01*
%TO.C,TP3*%
X18616197Y57228600D02*
G75*
G02*
X15786003Y57228600I-1415097J0D01*
G01*
X15786003Y57228600D02*
G75*
G02*
X18616197Y57228600I1415097J0D01*
G01*
%TO.C,TP11*%
X19391197Y54278600D02*
G75*
G02*
X16561003Y54278600I-1415097J0D01*
G01*
X16561003Y54278600D02*
G75*
G02*
X19391197Y54278600I1415097J0D01*
G01*
%TO.C,TP12*%
X34666197Y49278600D02*
G75*
G02*
X31836003Y49278600I-1415097J0D01*
G01*
X31836003Y49278600D02*
G75*
G02*
X34666197Y49278600I1415097J0D01*
G01*
%TO.C,TP7*%
X99116197Y45153600D02*
G75*
G02*
X96286003Y45153600I-1415097J0D01*
G01*
X96286003Y45153600D02*
G75*
G02*
X99116197Y45153600I1415097J0D01*
G01*
%TO.C,TP10*%
X-1858803Y62503600D02*
G75*
G02*
X-4688997Y62503600I-1415097J0D01*
G01*
X-4688997Y62503600D02*
G75*
G02*
X-1858803Y62503600I1415097J0D01*
G01*
%TO.C,TP8*%
X76416197Y59253600D02*
G75*
G02*
X73586003Y59253600I-1415097J0D01*
G01*
X73586003Y59253600D02*
G75*
G02*
X76416197Y59253600I1415097J0D01*
G01*
%TO.C,TP9*%
X-1583803Y48153600D02*
G75*
G02*
X-4413997Y48153600I-1415097J0D01*
G01*
X-4413997Y48153600D02*
G75*
G02*
X-1583803Y48153600I1415097J0D01*
G01*
%TO.C,TP4*%
X6766197Y50403600D02*
G75*
G02*
X3936003Y50403600I-1415097J0D01*
G01*
X3936003Y50403600D02*
G75*
G02*
X6766197Y50403600I1415097J0D01*
G01*
%TO.C,TP2*%
X76616197Y34028600D02*
G75*
G02*
X73786003Y34028600I-1415097J0D01*
G01*
X73786003Y34028600D02*
G75*
G02*
X76616197Y34028600I1415097J0D01*
G01*
%TO.C,J2*%
X42459050Y37863857D02*
X50299050Y37863857D01*
X42459050Y35213857D02*
X42459050Y37863857D01*
X42459050Y32563857D02*
X42459050Y33943857D01*
X43839050Y32563857D02*
X42459050Y32563857D01*
X45109050Y35213857D02*
X42459050Y35213857D01*
X45109050Y32563857D02*
X45109050Y35213857D01*
X45109050Y32563857D02*
X50299050Y32563857D01*
X50299050Y32563857D02*
X50299050Y37863857D01*
%TO.C,TP5*%
X69116197Y73328600D02*
G75*
G02*
X66286003Y73328600I-1415097J0D01*
G01*
X66286003Y73328600D02*
G75*
G02*
X69116197Y73328600I1415097J0D01*
G01*
%TO.C,TP13*%
X39691197Y56103600D02*
G75*
G02*
X36861003Y56103600I-1415097J0D01*
G01*
X36861003Y56103600D02*
G75*
G02*
X39691197Y56103600I1415097J0D01*
G01*
%TO.C,G\u002A\u002A\u002A*%
X15239789Y17747141D02*
X15223973Y17731325D01*
X15208157Y17747141D01*
X15223973Y17762956D01*
X15239789Y17747141D01*
G36*
X15239789Y17747141D02*
G01*
X15223973Y17731325D01*
X15208157Y17747141D01*
X15223973Y17762956D01*
X15239789Y17747141D01*
G37*
X16916252Y22523479D02*
X16916252Y21527091D01*
X15129079Y21527091D01*
X13341906Y21527091D01*
X13341906Y22523479D01*
X13341906Y23519868D01*
X15129079Y23519868D01*
X16916252Y23519868D01*
X16916252Y22523479D01*
G36*
X16916252Y22523479D02*
G01*
X16916252Y21527091D01*
X15129079Y21527091D01*
X13341906Y21527091D01*
X13341906Y22523479D01*
X13341906Y23519868D01*
X15129079Y23519868D01*
X16916252Y23519868D01*
X16916252Y22523479D01*
G37*
X12055857Y18911553D02*
X12134478Y18845437D01*
X12169401Y18733735D01*
X12171544Y18688374D01*
X12165797Y18598341D01*
X12140869Y18547987D01*
X12085237Y18514193D01*
X12084558Y18513892D01*
X11984240Y18458286D01*
X11926873Y18393185D01*
X11909808Y18356045D01*
X11866425Y18310919D01*
X11804742Y18304380D01*
X11754651Y18337408D01*
X11747905Y18350724D01*
X11731144Y18441931D01*
X11729966Y18566632D01*
X11742827Y18697421D01*
X11768184Y18806893D01*
X11774538Y18823624D01*
X11813760Y18897514D01*
X11863829Y18928019D01*
X11932333Y18933317D01*
X12055857Y18911553D01*
G36*
X12055857Y18911553D02*
G01*
X12134478Y18845437D01*
X12169401Y18733735D01*
X12171544Y18688374D01*
X12165797Y18598341D01*
X12140869Y18547987D01*
X12085237Y18514193D01*
X12084558Y18513892D01*
X11984240Y18458286D01*
X11926873Y18393185D01*
X11909808Y18356045D01*
X11866425Y18310919D01*
X11804742Y18304380D01*
X11754651Y18337408D01*
X11747905Y18350724D01*
X11731144Y18441931D01*
X11729966Y18566632D01*
X11742827Y18697421D01*
X11768184Y18806893D01*
X11774538Y18823624D01*
X11813760Y18897514D01*
X11863829Y18928019D01*
X11932333Y18933317D01*
X12055857Y18911553D01*
G37*
X12988306Y18790879D02*
X13063935Y18738264D01*
X13106140Y18641637D01*
X13120388Y18493686D01*
X13120486Y18476861D01*
X13108565Y18332198D01*
X13075647Y18221993D01*
X13025995Y18156690D01*
X12984259Y18143269D01*
X12946659Y18165847D01*
X12880928Y18225033D01*
X12799789Y18309132D01*
X12780449Y18330587D01*
X12701635Y18425522D01*
X12643067Y18508233D01*
X12615310Y18563481D01*
X12614384Y18570112D01*
X12631922Y18630724D01*
X12674662Y18707544D01*
X12679800Y18714923D01*
X12737605Y18777690D01*
X12808360Y18803341D01*
X12873786Y18806792D01*
X12988306Y18790879D01*
G36*
X12988306Y18790879D02*
G01*
X13063935Y18738264D01*
X13106140Y18641637D01*
X13120388Y18493686D01*
X13120486Y18476861D01*
X13108565Y18332198D01*
X13075647Y18221993D01*
X13025995Y18156690D01*
X12984259Y18143269D01*
X12946659Y18165847D01*
X12880928Y18225033D01*
X12799789Y18309132D01*
X12780449Y18330587D01*
X12701635Y18425522D01*
X12643067Y18508233D01*
X12615310Y18563481D01*
X12614384Y18570112D01*
X12631922Y18630724D01*
X12674662Y18707544D01*
X12679800Y18714923D01*
X12737605Y18777690D01*
X12808360Y18803341D01*
X12873786Y18806792D01*
X12988306Y18790879D01*
G37*
X14211785Y15214961D02*
X14405933Y15207774D01*
X14596880Y15196517D01*
X14774357Y15181664D01*
X14928092Y15163689D01*
X15047816Y15143067D01*
X15123257Y15120273D01*
X15144894Y15099625D01*
X15114648Y15092828D01*
X15029445Y15086720D01*
X14897591Y15081557D01*
X14727390Y15077594D01*
X14527147Y15075088D01*
X14322478Y15074289D01*
X14101849Y15075310D01*
X13903583Y15078185D01*
X13735984Y15082636D01*
X13607358Y15088380D01*
X13526009Y15095139D01*
X13500063Y15102047D01*
X13521817Y15142528D01*
X13552509Y15173218D01*
X13608601Y15193505D01*
X13712845Y15207349D01*
X13854971Y15215223D01*
X14024708Y15217602D01*
X14211785Y15214961D01*
G36*
X14211785Y15214961D02*
G01*
X14405933Y15207774D01*
X14596880Y15196517D01*
X14774357Y15181664D01*
X14928092Y15163689D01*
X15047816Y15143067D01*
X15123257Y15120273D01*
X15144894Y15099625D01*
X15114648Y15092828D01*
X15029445Y15086720D01*
X14897591Y15081557D01*
X14727390Y15077594D01*
X14527147Y15075088D01*
X14322478Y15074289D01*
X14101849Y15075310D01*
X13903583Y15078185D01*
X13735984Y15082636D01*
X13607358Y15088380D01*
X13526009Y15095139D01*
X13500063Y15102047D01*
X13521817Y15142528D01*
X13552509Y15173218D01*
X13608601Y15193505D01*
X13712845Y15207349D01*
X13854971Y15215223D01*
X14024708Y15217602D01*
X14211785Y15214961D01*
G37*
X14670424Y13998822D02*
X14670424Y13809034D01*
X14472728Y13806118D01*
X14375009Y13805096D01*
X14229094Y13804106D01*
X14050050Y13803226D01*
X13852943Y13802531D01*
X13701285Y13802176D01*
X13127538Y13801150D01*
X13122446Y13172464D01*
X13117355Y12543778D01*
X13783179Y12543778D01*
X14449004Y12543778D01*
X14449004Y12353990D01*
X14449004Y12164202D01*
X13788371Y12164202D01*
X13127738Y12164202D01*
X13122522Y11547390D01*
X13117307Y10930578D01*
X13893865Y10930578D01*
X14670424Y10930578D01*
X14670424Y10756605D01*
X14670424Y10582633D01*
X13705667Y10582633D01*
X12740909Y10582633D01*
X12740909Y12385621D01*
X12740909Y14188610D01*
X13705667Y14188610D01*
X14670424Y14188610D01*
X14670424Y13998822D01*
G36*
X14670424Y13998822D02*
G01*
X14670424Y13809034D01*
X14472728Y13806118D01*
X14375009Y13805096D01*
X14229094Y13804106D01*
X14050050Y13803226D01*
X13852943Y13802531D01*
X13701285Y13802176D01*
X13127538Y13801150D01*
X13122446Y13172464D01*
X13117355Y12543778D01*
X13783179Y12543778D01*
X14449004Y12543778D01*
X14449004Y12353990D01*
X14449004Y12164202D01*
X13788371Y12164202D01*
X13127738Y12164202D01*
X13122522Y11547390D01*
X13117307Y10930578D01*
X13893865Y10930578D01*
X14670424Y10930578D01*
X14670424Y10756605D01*
X14670424Y10582633D01*
X13705667Y10582633D01*
X12740909Y10582633D01*
X12740909Y12385621D01*
X12740909Y14188610D01*
X13705667Y14188610D01*
X14670424Y14188610D01*
X14670424Y13998822D01*
G37*
X12298080Y13990914D02*
X12298090Y13793218D01*
X11542407Y13799567D01*
X10786724Y13805916D01*
X10781702Y13159032D01*
X10776679Y12512147D01*
X11458296Y12512147D01*
X12139913Y12512147D01*
X12139913Y12322359D01*
X12139913Y12132570D01*
X11463353Y12132570D01*
X11228611Y12131724D01*
X11050968Y12128945D01*
X10924278Y12123873D01*
X10842398Y12116148D01*
X10799183Y12105411D01*
X10788261Y12093031D01*
X10788472Y12051256D01*
X10788264Y11955643D01*
X10787679Y11815614D01*
X10786760Y11640593D01*
X10785549Y11440002D01*
X10784747Y11318062D01*
X10779764Y10582633D01*
X10589975Y10582633D01*
X10400187Y10582633D01*
X10400187Y12385621D01*
X10400187Y14188610D01*
X11349129Y14188610D01*
X12298070Y14188610D01*
X12298080Y13990914D01*
G36*
X12298080Y13990914D02*
G01*
X12298090Y13793218D01*
X11542407Y13799567D01*
X10786724Y13805916D01*
X10781702Y13159032D01*
X10776679Y12512147D01*
X11458296Y12512147D01*
X12139913Y12512147D01*
X12139913Y12322359D01*
X12139913Y12132570D01*
X11463353Y12132570D01*
X11228611Y12131724D01*
X11050968Y12128945D01*
X10924278Y12123873D01*
X10842398Y12116148D01*
X10799183Y12105411D01*
X10788261Y12093031D01*
X10788472Y12051256D01*
X10788264Y11955643D01*
X10787679Y11815614D01*
X10786760Y11640593D01*
X10785549Y11440002D01*
X10784747Y11318062D01*
X10779764Y10582633D01*
X10589975Y10582633D01*
X10400187Y10582633D01*
X10400187Y12385621D01*
X10400187Y14188610D01*
X11349129Y14188610D01*
X12298070Y14188610D01*
X12298080Y13990914D01*
G37*
X12482889Y18357018D02*
X12588037Y18337725D01*
X12639289Y18304597D01*
X12646015Y18281185D01*
X12671364Y18242327D01*
X12692819Y18237427D01*
X12741446Y18208961D01*
X12790776Y18135109D01*
X12833136Y18033191D01*
X12860853Y17920528D01*
X12867435Y17843295D01*
X12856500Y17743909D01*
X12820477Y17700902D01*
X12754538Y17712049D01*
X12679519Y17756708D01*
X12623383Y17784062D01*
X12541614Y17800804D01*
X12420495Y17808874D01*
X12299942Y17810403D01*
X12157446Y17807596D01*
X12029994Y17800078D01*
X11937056Y17789209D01*
X11910586Y17783251D01*
X11853236Y17769671D01*
X11829003Y17787630D01*
X11823655Y17851527D01*
X11823599Y17871253D01*
X11835602Y17980938D01*
X11866577Y18085014D01*
X11908976Y18165534D01*
X11955247Y18204552D01*
X11964326Y18205796D01*
X12007303Y18229850D01*
X12013388Y18252130D01*
X12043108Y18309495D01*
X12130625Y18346709D01*
X12273476Y18362876D01*
X12319714Y18363521D01*
X12482889Y18357018D01*
G36*
X12482889Y18357018D02*
G01*
X12588037Y18337725D01*
X12639289Y18304597D01*
X12646015Y18281185D01*
X12671364Y18242327D01*
X12692819Y18237427D01*
X12741446Y18208961D01*
X12790776Y18135109D01*
X12833136Y18033191D01*
X12860853Y17920528D01*
X12867435Y17843295D01*
X12856500Y17743909D01*
X12820477Y17700902D01*
X12754538Y17712049D01*
X12679519Y17756708D01*
X12623383Y17784062D01*
X12541614Y17800804D01*
X12420495Y17808874D01*
X12299942Y17810403D01*
X12157446Y17807596D01*
X12029994Y17800078D01*
X11937056Y17789209D01*
X11910586Y17783251D01*
X11853236Y17769671D01*
X11829003Y17787630D01*
X11823655Y17851527D01*
X11823599Y17871253D01*
X11835602Y17980938D01*
X11866577Y18085014D01*
X11908976Y18165534D01*
X11955247Y18204552D01*
X11964326Y18205796D01*
X12007303Y18229850D01*
X12013388Y18252130D01*
X12043108Y18309495D01*
X12130625Y18346709D01*
X12273476Y18362876D01*
X12319714Y18363521D01*
X12482889Y18357018D01*
G37*
X12494003Y17664621D02*
X12574287Y17651455D01*
X12650673Y17624846D01*
X12733064Y17586539D01*
X12961684Y17439901D01*
X13154987Y17240833D01*
X13312882Y16989452D01*
X13435275Y16685878D01*
X13437817Y16677821D01*
X13476379Y16502510D01*
X13498084Y16290499D01*
X13502965Y16062914D01*
X13491059Y15840881D01*
X13462398Y15645526D01*
X13435966Y15546285D01*
X13381434Y15402230D01*
X13319828Y15267559D01*
X13257965Y15154621D01*
X13202663Y15075763D01*
X13160738Y15043332D01*
X13158158Y15043113D01*
X13130864Y15026627D01*
X13134380Y15014135D01*
X13125707Y14972817D01*
X13074442Y14908959D01*
X12992110Y14832789D01*
X12890234Y14754536D01*
X12780335Y14684431D01*
X12736343Y14660776D01*
X12636316Y14614193D01*
X12548762Y14586459D01*
X12450497Y14572964D01*
X12318340Y14569099D01*
X12275248Y14569104D01*
X12134715Y14571634D01*
X12033373Y14581903D01*
X11947183Y14605597D01*
X11852109Y14648400D01*
X11779383Y14686375D01*
X11673725Y14748345D01*
X11592141Y14806742D01*
X11549597Y14850602D01*
X11547131Y14856506D01*
X11507874Y14910874D01*
X11480637Y14924665D01*
X11430466Y14963339D01*
X11366152Y15048348D01*
X11295193Y15166578D01*
X11225088Y15304919D01*
X11163335Y15450257D01*
X11136021Y15527279D01*
X11100361Y15652876D01*
X11078357Y15777908D01*
X11067295Y15924044D01*
X11064446Y16098642D01*
X11087766Y16450170D01*
X11156850Y16765077D01*
X11270387Y17040603D01*
X11427064Y17273992D01*
X11625571Y17462486D01*
X11753365Y17546746D01*
X11845522Y17596252D01*
X11926178Y17628038D01*
X12015614Y17646918D01*
X12134112Y17657706D01*
X12242777Y17662923D01*
X12390081Y17667418D01*
X12494003Y17664621D01*
G36*
X12494003Y17664621D02*
G01*
X12574287Y17651455D01*
X12650673Y17624846D01*
X12733064Y17586539D01*
X12961684Y17439901D01*
X13154987Y17240833D01*
X13312882Y16989452D01*
X13435275Y16685878D01*
X13437817Y16677821D01*
X13476379Y16502510D01*
X13498084Y16290499D01*
X13502965Y16062914D01*
X13491059Y15840881D01*
X13462398Y15645526D01*
X13435966Y15546285D01*
X13381434Y15402230D01*
X13319828Y15267559D01*
X13257965Y15154621D01*
X13202663Y15075763D01*
X13160738Y15043332D01*
X13158158Y15043113D01*
X13130864Y15026627D01*
X13134380Y15014135D01*
X13125707Y14972817D01*
X13074442Y14908959D01*
X12992110Y14832789D01*
X12890234Y14754536D01*
X12780335Y14684431D01*
X12736343Y14660776D01*
X12636316Y14614193D01*
X12548762Y14586459D01*
X12450497Y14572964D01*
X12318340Y14569099D01*
X12275248Y14569104D01*
X12134715Y14571634D01*
X12033373Y14581903D01*
X11947183Y14605597D01*
X11852109Y14648400D01*
X11779383Y14686375D01*
X11673725Y14748345D01*
X11592141Y14806742D01*
X11549597Y14850602D01*
X11547131Y14856506D01*
X11507874Y14910874D01*
X11480637Y14924665D01*
X11430466Y14963339D01*
X11366152Y15048348D01*
X11295193Y15166578D01*
X11225088Y15304919D01*
X11163335Y15450257D01*
X11136021Y15527279D01*
X11100361Y15652876D01*
X11078357Y15777908D01*
X11067295Y15924044D01*
X11064446Y16098642D01*
X11087766Y16450170D01*
X11156850Y16765077D01*
X11270387Y17040603D01*
X11427064Y17273992D01*
X11625571Y17462486D01*
X11753365Y17546746D01*
X11845522Y17596252D01*
X11926178Y17628038D01*
X12015614Y17646918D01*
X12134112Y17657706D01*
X12242777Y17662923D01*
X12390081Y17667418D01*
X12494003Y17664621D01*
G37*
X15880324Y14180511D02*
X16121657Y14174178D01*
X16309702Y14167117D01*
X16454432Y14158433D01*
X16565823Y14147232D01*
X16653848Y14132620D01*
X16728482Y14113703D01*
X16768078Y14100918D01*
X16933937Y14027566D01*
X17054316Y13939668D01*
X17120694Y13843594D01*
X17123589Y13835203D01*
X17152868Y13796447D01*
X17176468Y13797646D01*
X17195832Y13798854D01*
X17189490Y13784475D01*
X17188017Y13741532D01*
X17197564Y13732038D01*
X17225586Y13692919D01*
X17248473Y13611360D01*
X17266419Y13484218D01*
X17279619Y13308351D01*
X17288268Y13080618D01*
X17292561Y12797876D01*
X17292693Y12456983D01*
X17290899Y12227464D01*
X17287538Y11921644D01*
X17283525Y11671962D01*
X17277601Y11471299D01*
X17268506Y11312532D01*
X17254981Y11188543D01*
X17235768Y11092209D01*
X17209606Y11016410D01*
X17175237Y10954024D01*
X17131401Y10897932D01*
X17076840Y10841012D01*
X17039233Y10804279D01*
X16964368Y10738676D01*
X16884913Y10687163D01*
X16792323Y10648109D01*
X16678052Y10619884D01*
X16533556Y10600857D01*
X16350289Y10589397D01*
X16119706Y10583876D01*
X15877544Y10582633D01*
X15176526Y10582633D01*
X15176526Y10958276D01*
X15554354Y10958276D01*
X16067010Y10964643D01*
X16579666Y10971011D01*
X16697733Y11087903D01*
X16759259Y11154622D01*
X16808188Y11224843D01*
X16845927Y11306505D01*
X16873879Y11407547D01*
X16893452Y11535910D01*
X16906049Y11699532D01*
X16913077Y11906352D01*
X16915941Y12164311D01*
X16916252Y12322290D01*
X16914497Y12634558D01*
X16908781Y12890217D01*
X16898423Y13095836D01*
X16882744Y13257985D01*
X16861065Y13383232D01*
X16832705Y13478146D01*
X16796985Y13549296D01*
X16787930Y13562609D01*
X16745480Y13631484D01*
X16726530Y13681378D01*
X16726464Y13683094D01*
X16706565Y13701764D01*
X16690034Y13695358D01*
X16642889Y13697123D01*
X16618863Y13717215D01*
X16601655Y13736828D01*
X16579003Y13751565D01*
X16541626Y13762634D01*
X16480247Y13771239D01*
X16385585Y13778588D01*
X16248360Y13785886D01*
X16059293Y13794340D01*
X16008691Y13796523D01*
X15559786Y13815857D01*
X15557070Y12387067D01*
X15554354Y10958276D01*
X15176526Y10958276D01*
X15176526Y12389701D01*
X15176526Y14196769D01*
X15880324Y14180511D01*
G36*
X15880324Y14180511D02*
G01*
X16121657Y14174178D01*
X16309702Y14167117D01*
X16454432Y14158433D01*
X16565823Y14147232D01*
X16653848Y14132620D01*
X16728482Y14113703D01*
X16768078Y14100918D01*
X16933937Y14027566D01*
X17054316Y13939668D01*
X17120694Y13843594D01*
X17123589Y13835203D01*
X17152868Y13796447D01*
X17176468Y13797646D01*
X17195832Y13798854D01*
X17189490Y13784475D01*
X17188017Y13741532D01*
X17197564Y13732038D01*
X17225586Y13692919D01*
X17248473Y13611360D01*
X17266419Y13484218D01*
X17279619Y13308351D01*
X17288268Y13080618D01*
X17292561Y12797876D01*
X17292693Y12456983D01*
X17290899Y12227464D01*
X17287538Y11921644D01*
X17283525Y11671962D01*
X17277601Y11471299D01*
X17268506Y11312532D01*
X17254981Y11188543D01*
X17235768Y11092209D01*
X17209606Y11016410D01*
X17175237Y10954024D01*
X17131401Y10897932D01*
X17076840Y10841012D01*
X17039233Y10804279D01*
X16964368Y10738676D01*
X16884913Y10687163D01*
X16792323Y10648109D01*
X16678052Y10619884D01*
X16533556Y10600857D01*
X16350289Y10589397D01*
X16119706Y10583876D01*
X15877544Y10582633D01*
X15176526Y10582633D01*
X15176526Y10958276D01*
X15554354Y10958276D01*
X16067010Y10964643D01*
X16579666Y10971011D01*
X16697733Y11087903D01*
X16759259Y11154622D01*
X16808188Y11224843D01*
X16845927Y11306505D01*
X16873879Y11407547D01*
X16893452Y11535910D01*
X16906049Y11699532D01*
X16913077Y11906352D01*
X16915941Y12164311D01*
X16916252Y12322290D01*
X16914497Y12634558D01*
X16908781Y12890217D01*
X16898423Y13095836D01*
X16882744Y13257985D01*
X16861065Y13383232D01*
X16832705Y13478146D01*
X16796985Y13549296D01*
X16787930Y13562609D01*
X16745480Y13631484D01*
X16726530Y13681378D01*
X16726464Y13683094D01*
X16706565Y13701764D01*
X16690034Y13695358D01*
X16642889Y13697123D01*
X16618863Y13717215D01*
X16601655Y13736828D01*
X16579003Y13751565D01*
X16541626Y13762634D01*
X16480247Y13771239D01*
X16385585Y13778588D01*
X16248360Y13785886D01*
X16059293Y13794340D01*
X16008691Y13796523D01*
X15559786Y13815857D01*
X15557070Y12387067D01*
X15554354Y10958276D01*
X15176526Y10958276D01*
X15176526Y12389701D01*
X15176526Y14196769D01*
X15880324Y14180511D01*
G37*
X18959874Y14199355D02*
X19128323Y14155797D01*
X19179569Y14133125D01*
X19328301Y14035248D01*
X19449474Y13914304D01*
X19528250Y13786095D01*
X19541719Y13747430D01*
X19553418Y13673881D01*
X19563147Y13552906D01*
X19569992Y13400331D01*
X19573038Y13231984D01*
X19573112Y13204479D01*
X19573288Y12773897D01*
X19475765Y12650930D01*
X19403579Y12569544D01*
X19333991Y12506150D01*
X19309701Y12489544D01*
X19271463Y12461121D01*
X19278271Y12450005D01*
X19342725Y12423176D01*
X19422743Y12355894D01*
X19503646Y12263274D01*
X19570759Y12160430D01*
X19583114Y12136052D01*
X19611911Y12068118D01*
X19631529Y11997956D01*
X19643661Y11911565D01*
X19650000Y11794944D01*
X19652238Y11634091D01*
X19652366Y11563205D01*
X19651414Y11386280D01*
X19647351Y11258819D01*
X19638368Y11167037D01*
X19622655Y11097149D01*
X19598402Y11035369D01*
X19577626Y10993841D01*
X19481910Y10835869D01*
X19377704Y10721338D01*
X19252834Y10643529D01*
X19095130Y10595724D01*
X18892419Y10571203D01*
X18803734Y10566694D01*
X18651514Y10563818D01*
X18508622Y10566099D01*
X18396224Y10572982D01*
X18355480Y10578451D01*
X18200294Y10624160D01*
X18067159Y10694154D01*
X17969928Y10779183D01*
X17923039Y10867201D01*
X17889984Y10929623D01*
X17873448Y10946279D01*
X17844931Y10996556D01*
X17816256Y11090760D01*
X17791554Y11209699D01*
X17774960Y11334182D01*
X17770299Y11425182D01*
X17770299Y11531574D01*
X17958868Y11531574D01*
X18147437Y11531574D01*
X18181368Y11397141D01*
X18215616Y11281313D01*
X18261693Y11171281D01*
X18322147Y11054650D01*
X18378841Y11007167D01*
X18479884Y10970755D01*
X18606857Y10948589D01*
X18741340Y10943844D01*
X18864916Y10959694D01*
X18868268Y10960522D01*
X19003392Y11006847D01*
X19099249Y11075942D01*
X19177183Y11185040D01*
X19200603Y11228819D01*
X19231615Y11300461D01*
X19249106Y11376713D01*
X19255305Y11475967D01*
X19252443Y11616617D01*
X19251209Y11646143D01*
X19240821Y11803915D01*
X19224572Y11910244D01*
X19200244Y11976844D01*
X19184420Y11998835D01*
X19142909Y12058142D01*
X19130449Y12095522D01*
X19105861Y12130402D01*
X19093400Y12132570D01*
X19042797Y12152132D01*
X18999321Y12184182D01*
X18925001Y12219678D01*
X18796572Y12244396D01*
X18720055Y12251695D01*
X18497821Y12267596D01*
X18497821Y12448628D01*
X18497821Y12629660D01*
X18687416Y12649477D01*
X18864325Y12676402D01*
X18989992Y12718054D01*
X19075834Y12780451D01*
X19133268Y12869610D01*
X19141365Y12888702D01*
X19183708Y13062144D01*
X19189381Y13263809D01*
X19158222Y13470255D01*
X19145702Y13516378D01*
X19073156Y13664458D01*
X18962394Y13767259D01*
X18822658Y13821332D01*
X18663190Y13823229D01*
X18493233Y13769502D01*
X18482005Y13763984D01*
X18401212Y13721135D01*
X18354534Y13691876D01*
X18350152Y13683497D01*
X18352450Y13659541D01*
X18325817Y13601079D01*
X18313268Y13579706D01*
X18262769Y13473779D01*
X18228561Y13360776D01*
X18228090Y13358286D01*
X18206098Y13239669D01*
X17999715Y13239669D01*
X17793332Y13239669D01*
X17813620Y13387686D01*
X17866342Y13639767D01*
X17950385Y13840131D01*
X18069569Y13994035D01*
X18227714Y14106735D01*
X18382211Y14169934D01*
X18564137Y14207471D01*
X18764252Y14216928D01*
X18959874Y14199355D01*
G36*
X18959874Y14199355D02*
G01*
X19128323Y14155797D01*
X19179569Y14133125D01*
X19328301Y14035248D01*
X19449474Y13914304D01*
X19528250Y13786095D01*
X19541719Y13747430D01*
X19553418Y13673881D01*
X19563147Y13552906D01*
X19569992Y13400331D01*
X19573038Y13231984D01*
X19573112Y13204479D01*
X19573288Y12773897D01*
X19475765Y12650930D01*
X19403579Y12569544D01*
X19333991Y12506150D01*
X19309701Y12489544D01*
X19271463Y12461121D01*
X19278271Y12450005D01*
X19342725Y12423176D01*
X19422743Y12355894D01*
X19503646Y12263274D01*
X19570759Y12160430D01*
X19583114Y12136052D01*
X19611911Y12068118D01*
X19631529Y11997956D01*
X19643661Y11911565D01*
X19650000Y11794944D01*
X19652238Y11634091D01*
X19652366Y11563205D01*
X19651414Y11386280D01*
X19647351Y11258819D01*
X19638368Y11167037D01*
X19622655Y11097149D01*
X19598402Y11035369D01*
X19577626Y10993841D01*
X19481910Y10835869D01*
X19377704Y10721338D01*
X19252834Y10643529D01*
X19095130Y10595724D01*
X18892419Y10571203D01*
X18803734Y10566694D01*
X18651514Y10563818D01*
X18508622Y10566099D01*
X18396224Y10572982D01*
X18355480Y10578451D01*
X18200294Y10624160D01*
X18067159Y10694154D01*
X17969928Y10779183D01*
X17923039Y10867201D01*
X17889984Y10929623D01*
X17873448Y10946279D01*
X17844931Y10996556D01*
X17816256Y11090760D01*
X17791554Y11209699D01*
X17774960Y11334182D01*
X17770299Y11425182D01*
X17770299Y11531574D01*
X17958868Y11531574D01*
X18147437Y11531574D01*
X18181368Y11397141D01*
X18215616Y11281313D01*
X18261693Y11171281D01*
X18322147Y11054650D01*
X18378841Y11007167D01*
X18479884Y10970755D01*
X18606857Y10948589D01*
X18741340Y10943844D01*
X18864916Y10959694D01*
X18868268Y10960522D01*
X19003392Y11006847D01*
X19099249Y11075942D01*
X19177183Y11185040D01*
X19200603Y11228819D01*
X19231615Y11300461D01*
X19249106Y11376713D01*
X19255305Y11475967D01*
X19252443Y11616617D01*
X19251209Y11646143D01*
X19240821Y11803915D01*
X19224572Y11910244D01*
X19200244Y11976844D01*
X19184420Y11998835D01*
X19142909Y12058142D01*
X19130449Y12095522D01*
X19105861Y12130402D01*
X19093400Y12132570D01*
X19042797Y12152132D01*
X18999321Y12184182D01*
X18925001Y12219678D01*
X18796572Y12244396D01*
X18720055Y12251695D01*
X18497821Y12267596D01*
X18497821Y12448628D01*
X18497821Y12629660D01*
X18687416Y12649477D01*
X18864325Y12676402D01*
X18989992Y12718054D01*
X19075834Y12780451D01*
X19133268Y12869610D01*
X19141365Y12888702D01*
X19183708Y13062144D01*
X19189381Y13263809D01*
X19158222Y13470255D01*
X19145702Y13516378D01*
X19073156Y13664458D01*
X18962394Y13767259D01*
X18822658Y13821332D01*
X18663190Y13823229D01*
X18493233Y13769502D01*
X18482005Y13763984D01*
X18401212Y13721135D01*
X18354534Y13691876D01*
X18350152Y13683497D01*
X18352450Y13659541D01*
X18325817Y13601079D01*
X18313268Y13579706D01*
X18262769Y13473779D01*
X18228561Y13360776D01*
X18228090Y13358286D01*
X18206098Y13239669D01*
X17999715Y13239669D01*
X17793332Y13239669D01*
X17813620Y13387686D01*
X17866342Y13639767D01*
X17950385Y13840131D01*
X18069569Y13994035D01*
X18227714Y14106735D01*
X18382211Y14169934D01*
X18564137Y14207471D01*
X18764252Y14216928D01*
X18959874Y14199355D01*
G37*
X17200934Y22618374D02*
X17200934Y21400565D01*
X18576899Y21400565D01*
X19952865Y21400565D01*
X19952865Y18237427D01*
X19952865Y15074289D01*
X17912640Y15074289D01*
X17559792Y15074688D01*
X17226275Y15075838D01*
X16917362Y15077673D01*
X16638326Y15080122D01*
X16394440Y15083119D01*
X16190978Y15086594D01*
X16033211Y15090479D01*
X15926414Y15094706D01*
X15875859Y15099206D01*
X15872416Y15100746D01*
X15900549Y15116964D01*
X15973837Y15142173D01*
X16075616Y15171934D01*
X16189220Y15201804D01*
X16297986Y15227344D01*
X16385248Y15244112D01*
X16425965Y15248261D01*
X16470758Y15268601D01*
X16512952Y15303616D01*
X16580776Y15347321D01*
X16630456Y15358971D01*
X16692106Y15384563D01*
X16730063Y15428960D01*
X16752966Y15475707D01*
X16741513Y15480106D01*
X16687064Y15446232D01*
X16603667Y15410234D01*
X16461248Y15371627D01*
X16263950Y15331285D01*
X16015917Y15290080D01*
X15800332Y15259304D01*
X15630613Y15245392D01*
X15433222Y15243252D01*
X15224929Y15251655D01*
X15022506Y15269371D01*
X14842723Y15295170D01*
X14702350Y15327823D01*
X14660094Y15342902D01*
X14548943Y15375742D01*
X14434552Y15390536D01*
X14428150Y15390603D01*
X14348538Y15393805D01*
X14224477Y15402471D01*
X14074403Y15415191D01*
X13949160Y15427223D01*
X13587950Y15463843D01*
X13608409Y15640735D01*
X13631406Y15850007D01*
X13645361Y16011656D01*
X13650321Y16140663D01*
X13646336Y16252011D01*
X13633453Y16360681D01*
X13611720Y16481655D01*
X13611128Y16484642D01*
X13578720Y16628224D01*
X13541193Y16764957D01*
X13505471Y16870206D01*
X13497496Y16889015D01*
X13451983Y17023034D01*
X13444571Y17095628D01*
X14381599Y17095628D01*
X15049901Y17100606D01*
X15718203Y17105585D01*
X15711070Y17462511D01*
X15703938Y17819438D01*
X15050098Y17824309D01*
X14396257Y17829179D01*
X14388928Y17462404D01*
X14381599Y17095628D01*
X13444571Y17095628D01*
X13439857Y17141800D01*
X13461724Y17230013D01*
X13482991Y17255812D01*
X13522714Y17307552D01*
X13577727Y17403799D01*
X13640784Y17529949D01*
X13704636Y17671398D01*
X13762038Y17813540D01*
X13768899Y17831991D01*
X13794300Y17917156D01*
X13808920Y18013594D01*
X13814084Y18137637D01*
X13811117Y18305619D01*
X13809961Y18338093D01*
X13807777Y18381633D01*
X16232267Y18381633D01*
X16237246Y18102664D01*
X16246269Y18038935D01*
X16295369Y17826093D01*
X16366530Y17622105D01*
X16452475Y17444219D01*
X16545928Y17309686D01*
X16560514Y17293930D01*
X16617801Y17225778D01*
X16645997Y17173539D01*
X16645633Y17159126D01*
X16652976Y17132666D01*
X16669242Y17129329D01*
X16721794Y17107912D01*
X16789285Y17058054D01*
X16850255Y16998600D01*
X16883246Y16948395D01*
X16884620Y16940191D01*
X16901440Y16917824D01*
X16910579Y16921219D01*
X16951511Y16916407D01*
X17021641Y16884713D01*
X17045012Y16871191D01*
X17115594Y16837681D01*
X17227545Y16794363D01*
X17361146Y16747881D01*
X17496682Y16704884D01*
X17614435Y16672017D01*
X17675627Y16658613D01*
X17711207Y16665268D01*
X17793261Y16685404D01*
X17907354Y16715399D01*
X17973657Y16733442D01*
X18099891Y16765792D01*
X18203080Y16787801D01*
X18268195Y16796475D01*
X18281840Y16794838D01*
X18306672Y16801802D01*
X18308033Y16811336D01*
X18332891Y16846681D01*
X18390613Y16885789D01*
X18455915Y16915259D01*
X18503517Y16921691D01*
X18509626Y16918191D01*
X18527736Y16922910D01*
X18529452Y16936786D01*
X18553099Y16984208D01*
X18609749Y17044697D01*
X18677968Y17099089D01*
X18736320Y17128222D01*
X18744831Y17129329D01*
X18771930Y17146611D01*
X18768264Y17159410D01*
X18773740Y17201422D01*
X18802578Y17240779D01*
X18912222Y17381042D01*
X19012951Y17565925D01*
X19097705Y17776813D01*
X19159425Y17995089D01*
X19191051Y18202137D01*
X19193711Y18272150D01*
X19183807Y18386993D01*
X19156837Y18530158D01*
X19116921Y18689149D01*
X19068176Y18851467D01*
X19014719Y19004618D01*
X18960669Y19136104D01*
X18910142Y19233428D01*
X18867258Y19284094D01*
X18859053Y19287795D01*
X18821760Y19314670D01*
X18757352Y19375981D01*
X18682726Y19455235D01*
X18603747Y19537482D01*
X18535858Y19598322D01*
X18495466Y19623791D01*
X18433198Y19652437D01*
X18402927Y19674070D01*
X18349488Y19706478D01*
X18258155Y19750711D01*
X18165691Y19790196D01*
X17978604Y19843378D01*
X17769403Y19866744D01*
X17553964Y19861811D01*
X17348164Y19830092D01*
X17167879Y19773103D01*
X17028984Y19692359D01*
X17015022Y19680399D01*
X16952348Y19637565D01*
X16917886Y19623791D01*
X16867527Y19594226D01*
X16804611Y19535555D01*
X16796456Y19526406D01*
X16736912Y19468720D01*
X16688947Y19440103D01*
X16683705Y19439420D01*
X16640296Y19414605D01*
X16615347Y19380559D01*
X16579419Y19319533D01*
X16524370Y19232723D01*
X16496567Y19190498D01*
X16366116Y18944819D01*
X16276620Y18668774D01*
X16232267Y18381633D01*
X13807777Y18381633D01*
X13801434Y18508083D01*
X13786800Y18639473D01*
X13760486Y18753046D01*
X13716915Y18869579D01*
X13650511Y19009852D01*
X13606506Y19096355D01*
X13574800Y19174301D01*
X13563325Y19230788D01*
X13539306Y19274637D01*
X13515878Y19281263D01*
X13471114Y19306754D01*
X13463894Y19378694D01*
X13464685Y19384065D01*
X13442807Y19405231D01*
X13422556Y19407788D01*
X13366446Y19431953D01*
X13351385Y19449713D01*
X13301003Y19496677D01*
X13270735Y19511983D01*
X13223876Y19552815D01*
X13215380Y19582635D01*
X13199208Y19615594D01*
X13178950Y19610426D01*
X13132802Y19612887D01*
X13107779Y19634951D01*
X13059386Y19669063D01*
X12965583Y19712685D01*
X12842422Y19760354D01*
X12705959Y19806605D01*
X12572248Y19845974D01*
X12457342Y19872997D01*
X12381158Y19882259D01*
X12285027Y19870252D01*
X12167103Y19839725D01*
X12108282Y19818996D01*
X12006008Y19783048D01*
X11919524Y19760129D01*
X11885691Y19755733D01*
X11811960Y19735588D01*
X11768244Y19707743D01*
X11630997Y19592346D01*
X11535607Y19520666D01*
X11479797Y19491091D01*
X11464390Y19492858D01*
X11447275Y19485744D01*
X11444023Y19460507D01*
X11420008Y19415305D01*
X11394709Y19407788D01*
X11361124Y19393649D01*
X11363289Y19378835D01*
X11356730Y19338106D01*
X11317724Y19274462D01*
X11306343Y19260217D01*
X11212594Y19127115D01*
X11132293Y18964848D01*
X11061039Y18762568D01*
X10994433Y18509432D01*
X10984984Y18468234D01*
X10962285Y18363017D01*
X10951135Y18283072D01*
X10952718Y18209013D01*
X10968218Y18121455D01*
X10998819Y18001011D01*
X11017810Y17930998D01*
X11062429Y17782387D01*
X11111828Y17641734D01*
X11158212Y17530383D01*
X11178165Y17491808D01*
X11235002Y17377483D01*
X11249170Y17286210D01*
X11221062Y17194696D01*
X11184288Y17130329D01*
X11125789Y17026276D01*
X11075603Y16919355D01*
X11071423Y16908909D01*
X11012558Y16752962D01*
X10972353Y16627818D01*
X10947207Y16513460D01*
X10933522Y16389872D01*
X10927698Y16237037D01*
X10926373Y16102309D01*
X10926256Y15932082D01*
X10929696Y15807528D01*
X10939596Y15711060D01*
X10958860Y15625092D01*
X10990391Y15532038D01*
X11037092Y15414311D01*
X11041897Y15402497D01*
X11091838Y15277881D01*
X11131223Y15176007D01*
X11154864Y15110497D01*
X11159340Y15094091D01*
X11129474Y15087405D01*
X11046935Y15081683D01*
X10922308Y15077340D01*
X10766180Y15074789D01*
X10653238Y15074289D01*
X10147136Y15074289D01*
X10147136Y18237427D01*
X10147136Y21367554D01*
X13244906Y21367554D01*
X15129072Y21369678D01*
X17013239Y21371802D01*
X17009948Y22491852D01*
X17006657Y23611901D01*
X15129085Y23614018D01*
X13251513Y23616135D01*
X13248210Y22491844D01*
X13244906Y21367554D01*
X10147136Y21367554D01*
X10147136Y21400565D01*
X11562640Y21405548D01*
X11856789Y21406549D01*
X12132001Y21407418D01*
X12381708Y21408139D01*
X12599343Y21408697D01*
X12778336Y21409075D01*
X12912119Y21409259D01*
X12994124Y21409231D01*
X13017684Y21409063D01*
X13028180Y21421572D01*
X13036774Y21463169D01*
X13043625Y21538683D01*
X13048888Y21652937D01*
X13052722Y21810759D01*
X13055284Y22016975D01*
X13056731Y22276412D01*
X13057221Y22593894D01*
X13057223Y22621888D01*
X13057223Y23836182D01*
X15129079Y23836182D01*
X17200934Y23836182D01*
X17200934Y22618374D01*
G36*
X17200934Y22618374D02*
G01*
X17200934Y21400565D01*
X18576899Y21400565D01*
X19952865Y21400565D01*
X19952865Y18237427D01*
X19952865Y15074289D01*
X17912640Y15074289D01*
X17559792Y15074688D01*
X17226275Y15075838D01*
X16917362Y15077673D01*
X16638326Y15080122D01*
X16394440Y15083119D01*
X16190978Y15086594D01*
X16033211Y15090479D01*
X15926414Y15094706D01*
X15875859Y15099206D01*
X15872416Y15100746D01*
X15900549Y15116964D01*
X15973837Y15142173D01*
X16075616Y15171934D01*
X16189220Y15201804D01*
X16297986Y15227344D01*
X16385248Y15244112D01*
X16425965Y15248261D01*
X16470758Y15268601D01*
X16512952Y15303616D01*
X16580776Y15347321D01*
X16630456Y15358971D01*
X16692106Y15384563D01*
X16730063Y15428960D01*
X16752966Y15475707D01*
X16741513Y15480106D01*
X16687064Y15446232D01*
X16603667Y15410234D01*
X16461248Y15371627D01*
X16263950Y15331285D01*
X16015917Y15290080D01*
X15800332Y15259304D01*
X15630613Y15245392D01*
X15433222Y15243252D01*
X15224929Y15251655D01*
X15022506Y15269371D01*
X14842723Y15295170D01*
X14702350Y15327823D01*
X14660094Y15342902D01*
X14548943Y15375742D01*
X14434552Y15390536D01*
X14428150Y15390603D01*
X14348538Y15393805D01*
X14224477Y15402471D01*
X14074403Y15415191D01*
X13949160Y15427223D01*
X13587950Y15463843D01*
X13608409Y15640735D01*
X13631406Y15850007D01*
X13645361Y16011656D01*
X13650321Y16140663D01*
X13646336Y16252011D01*
X13633453Y16360681D01*
X13611720Y16481655D01*
X13611128Y16484642D01*
X13578720Y16628224D01*
X13541193Y16764957D01*
X13505471Y16870206D01*
X13497496Y16889015D01*
X13451983Y17023034D01*
X13444571Y17095628D01*
X14381599Y17095628D01*
X15049901Y17100606D01*
X15718203Y17105585D01*
X15711070Y17462511D01*
X15703938Y17819438D01*
X15050098Y17824309D01*
X14396257Y17829179D01*
X14388928Y17462404D01*
X14381599Y17095628D01*
X13444571Y17095628D01*
X13439857Y17141800D01*
X13461724Y17230013D01*
X13482991Y17255812D01*
X13522714Y17307552D01*
X13577727Y17403799D01*
X13640784Y17529949D01*
X13704636Y17671398D01*
X13762038Y17813540D01*
X13768899Y17831991D01*
X13794300Y17917156D01*
X13808920Y18013594D01*
X13814084Y18137637D01*
X13811117Y18305619D01*
X13809961Y18338093D01*
X13807777Y18381633D01*
X16232267Y18381633D01*
X16237246Y18102664D01*
X16246269Y18038935D01*
X16295369Y17826093D01*
X16366530Y17622105D01*
X16452475Y17444219D01*
X16545928Y17309686D01*
X16560514Y17293930D01*
X16617801Y17225778D01*
X16645997Y17173539D01*
X16645633Y17159126D01*
X16652976Y17132666D01*
X16669242Y17129329D01*
X16721794Y17107912D01*
X16789285Y17058054D01*
X16850255Y16998600D01*
X16883246Y16948395D01*
X16884620Y16940191D01*
X16901440Y16917824D01*
X16910579Y16921219D01*
X16951511Y16916407D01*
X17021641Y16884713D01*
X17045012Y16871191D01*
X17115594Y16837681D01*
X17227545Y16794363D01*
X17361146Y16747881D01*
X17496682Y16704884D01*
X17614435Y16672017D01*
X17675627Y16658613D01*
X17711207Y16665268D01*
X17793261Y16685404D01*
X17907354Y16715399D01*
X17973657Y16733442D01*
X18099891Y16765792D01*
X18203080Y16787801D01*
X18268195Y16796475D01*
X18281840Y16794838D01*
X18306672Y16801802D01*
X18308033Y16811336D01*
X18332891Y16846681D01*
X18390613Y16885789D01*
X18455915Y16915259D01*
X18503517Y16921691D01*
X18509626Y16918191D01*
X18527736Y16922910D01*
X18529452Y16936786D01*
X18553099Y16984208D01*
X18609749Y17044697D01*
X18677968Y17099089D01*
X18736320Y17128222D01*
X18744831Y17129329D01*
X18771930Y17146611D01*
X18768264Y17159410D01*
X18773740Y17201422D01*
X18802578Y17240779D01*
X18912222Y17381042D01*
X19012951Y17565925D01*
X19097705Y17776813D01*
X19159425Y17995089D01*
X19191051Y18202137D01*
X19193711Y18272150D01*
X19183807Y18386993D01*
X19156837Y18530158D01*
X19116921Y18689149D01*
X19068176Y18851467D01*
X19014719Y19004618D01*
X18960669Y19136104D01*
X18910142Y19233428D01*
X18867258Y19284094D01*
X18859053Y19287795D01*
X18821760Y19314670D01*
X18757352Y19375981D01*
X18682726Y19455235D01*
X18603747Y19537482D01*
X18535858Y19598322D01*
X18495466Y19623791D01*
X18433198Y19652437D01*
X18402927Y19674070D01*
X18349488Y19706478D01*
X18258155Y19750711D01*
X18165691Y19790196D01*
X17978604Y19843378D01*
X17769403Y19866744D01*
X17553964Y19861811D01*
X17348164Y19830092D01*
X17167879Y19773103D01*
X17028984Y19692359D01*
X17015022Y19680399D01*
X16952348Y19637565D01*
X16917886Y19623791D01*
X16867527Y19594226D01*
X16804611Y19535555D01*
X16796456Y19526406D01*
X16736912Y19468720D01*
X16688947Y19440103D01*
X16683705Y19439420D01*
X16640296Y19414605D01*
X16615347Y19380559D01*
X16579419Y19319533D01*
X16524370Y19232723D01*
X16496567Y19190498D01*
X16366116Y18944819D01*
X16276620Y18668774D01*
X16232267Y18381633D01*
X13807777Y18381633D01*
X13801434Y18508083D01*
X13786800Y18639473D01*
X13760486Y18753046D01*
X13716915Y18869579D01*
X13650511Y19009852D01*
X13606506Y19096355D01*
X13574800Y19174301D01*
X13563325Y19230788D01*
X13539306Y19274637D01*
X13515878Y19281263D01*
X13471114Y19306754D01*
X13463894Y19378694D01*
X13464685Y19384065D01*
X13442807Y19405231D01*
X13422556Y19407788D01*
X13366446Y19431953D01*
X13351385Y19449713D01*
X13301003Y19496677D01*
X13270735Y19511983D01*
X13223876Y19552815D01*
X13215380Y19582635D01*
X13199208Y19615594D01*
X13178950Y19610426D01*
X13132802Y19612887D01*
X13107779Y19634951D01*
X13059386Y19669063D01*
X12965583Y19712685D01*
X12842422Y19760354D01*
X12705959Y19806605D01*
X12572248Y19845974D01*
X12457342Y19872997D01*
X12381158Y19882259D01*
X12285027Y19870252D01*
X12167103Y19839725D01*
X12108282Y19818996D01*
X12006008Y19783048D01*
X11919524Y19760129D01*
X11885691Y19755733D01*
X11811960Y19735588D01*
X11768244Y19707743D01*
X11630997Y19592346D01*
X11535607Y19520666D01*
X11479797Y19491091D01*
X11464390Y19492858D01*
X11447275Y19485744D01*
X11444023Y19460507D01*
X11420008Y19415305D01*
X11394709Y19407788D01*
X11361124Y19393649D01*
X11363289Y19378835D01*
X11356730Y19338106D01*
X11317724Y19274462D01*
X11306343Y19260217D01*
X11212594Y19127115D01*
X11132293Y18964848D01*
X11061039Y18762568D01*
X10994433Y18509432D01*
X10984984Y18468234D01*
X10962285Y18363017D01*
X10951135Y18283072D01*
X10952718Y18209013D01*
X10968218Y18121455D01*
X10998819Y18001011D01*
X11017810Y17930998D01*
X11062429Y17782387D01*
X11111828Y17641734D01*
X11158212Y17530383D01*
X11178165Y17491808D01*
X11235002Y17377483D01*
X11249170Y17286210D01*
X11221062Y17194696D01*
X11184288Y17130329D01*
X11125789Y17026276D01*
X11075603Y16919355D01*
X11071423Y16908909D01*
X11012558Y16752962D01*
X10972353Y16627818D01*
X10947207Y16513460D01*
X10933522Y16389872D01*
X10927698Y16237037D01*
X10926373Y16102309D01*
X10926256Y15932082D01*
X10929696Y15807528D01*
X10939596Y15711060D01*
X10958860Y15625092D01*
X10990391Y15532038D01*
X11037092Y15414311D01*
X11041897Y15402497D01*
X11091838Y15277881D01*
X11131223Y15176007D01*
X11154864Y15110497D01*
X11159340Y15094091D01*
X11129474Y15087405D01*
X11046935Y15081683D01*
X10922308Y15077340D01*
X10766180Y15074789D01*
X10653238Y15074289D01*
X10147136Y15074289D01*
X10147136Y18237427D01*
X10147136Y21367554D01*
X13244906Y21367554D01*
X15129072Y21369678D01*
X17013239Y21371802D01*
X17009948Y22491852D01*
X17006657Y23611901D01*
X15129085Y23614018D01*
X13251513Y23616135D01*
X13248210Y22491844D01*
X13244906Y21367554D01*
X10147136Y21367554D01*
X10147136Y21400565D01*
X11562640Y21405548D01*
X11856789Y21406549D01*
X12132001Y21407418D01*
X12381708Y21408139D01*
X12599343Y21408697D01*
X12778336Y21409075D01*
X12912119Y21409259D01*
X12994124Y21409231D01*
X13017684Y21409063D01*
X13028180Y21421572D01*
X13036774Y21463169D01*
X13043625Y21538683D01*
X13048888Y21652937D01*
X13052722Y21810759D01*
X13055284Y22016975D01*
X13056731Y22276412D01*
X13057221Y22593894D01*
X13057223Y22621888D01*
X13057223Y23836182D01*
X15129079Y23836182D01*
X17200934Y23836182D01*
X17200934Y22618374D01*
G37*
%TD*%
D14*
X-3600000Y35650000D02*
X-3600000Y44850000D01*
X98000000Y82050000D02*
X103000000Y77050000D01*
X-4720000Y54170000D02*
X-5000000Y54450000D01*
X-5000000Y77050000D02*
X0Y82050000D01*
X-4720000Y48730000D02*
X-4720000Y54170000D01*
X-5000000Y54450000D02*
X-5000000Y77050000D01*
X36000000Y82050000D02*
X62000000Y82050000D01*
X-5000000Y48450000D02*
X-4720000Y48730000D01*
X98000000Y32100000D02*
X98000000Y0D01*
X103000000Y37100000D02*
X98000000Y32100000D01*
X0Y32050000D02*
X-3600000Y35650000D01*
X0Y82050000D02*
X36000000Y82050000D01*
X-5000000Y46250000D02*
X-5000000Y48450000D01*
X103000000Y77050000D02*
X103000000Y37100000D01*
X98000000Y0D02*
X0Y0D01*
X0Y32050000D02*
X0Y0D01*
X-3600000Y44850000D02*
X-5000000Y46250000D01*
X62000000Y82050000D02*
X98000000Y82050000D01*
M02*
