%TF.GenerationSoftware,KiCad,Pcbnew,9.0.7*%
%TF.CreationDate,2026-02-04T15:51:41+00:00*%
%TF.ProjectId,FED3 tester 1st production aux,46454433-2074-4657-9374-657220317374,rev?*%
%TF.SameCoordinates,PX6146580PY6dc4960*%
%TF.FileFunction,Other,User*%
%FSLAX46Y46*%
G04 Gerber Fmt 4.6, Leading zero omitted, Abs format (unit mm)*
G04 Created by KiCad (PCBNEW 9.0.7) date 2026-02-04 15:51:41*
%MOMM*%
%LPD*%
G01*
G04 APERTURE LIST*
%ADD10C,0.050000*%
%TA.AperFunction,Profile*%
%ADD11C,0.250000*%
%TD*%
G04 APERTURE END LIST*
D10*
%TO.C,TP6*%
X35746756Y41053600D02*
G75*
G02*
X33305444Y41053600I-1220656J0D01*
G01*
X33305444Y41053600D02*
G75*
G02*
X35746756Y41053600I1220656J0D01*
G01*
%TO.C,TP3*%
X18421756Y57228600D02*
G75*
G02*
X15980444Y57228600I-1220656J0D01*
G01*
X15980444Y57228600D02*
G75*
G02*
X18421756Y57228600I1220656J0D01*
G01*
%TO.C,TP11*%
X19196756Y54278600D02*
G75*
G02*
X16755444Y54278600I-1220656J0D01*
G01*
X16755444Y54278600D02*
G75*
G02*
X19196756Y54278600I1220656J0D01*
G01*
%TO.C,TP12*%
X34471756Y49278600D02*
G75*
G02*
X32030444Y49278600I-1220656J0D01*
G01*
X32030444Y49278600D02*
G75*
G02*
X34471756Y49278600I1220656J0D01*
G01*
%TO.C,TP7*%
X98921756Y45153600D02*
G75*
G02*
X96480444Y45153600I-1220656J0D01*
G01*
X96480444Y45153600D02*
G75*
G02*
X98921756Y45153600I1220656J0D01*
G01*
%TO.C,TP10*%
X-2053244Y62503600D02*
G75*
G02*
X-4494556Y62503600I-1220656J0D01*
G01*
X-4494556Y62503600D02*
G75*
G02*
X-2053244Y62503600I1220656J0D01*
G01*
%TO.C,TP8*%
X76221756Y59253600D02*
G75*
G02*
X73780444Y59253600I-1220656J0D01*
G01*
X73780444Y59253600D02*
G75*
G02*
X76221756Y59253600I1220656J0D01*
G01*
%TO.C,J7*%
X35151100Y37403600D02*
X41251100Y37403600D01*
X35151100Y33853600D02*
X35151100Y37403600D01*
X41251100Y37403600D02*
X41251100Y33853600D01*
X41251100Y33853600D02*
X35151100Y33853600D01*
%TO.C,TP9*%
X-1778244Y48153600D02*
G75*
G02*
X-4219556Y48153600I-1220656J0D01*
G01*
X-4219556Y48153600D02*
G75*
G02*
X-1778244Y48153600I1220656J0D01*
G01*
%TO.C,TP4*%
X6571756Y50403600D02*
G75*
G02*
X4130444Y50403600I-1220656J0D01*
G01*
X4130444Y50403600D02*
G75*
G02*
X6571756Y50403600I1220656J0D01*
G01*
%TO.C,TP2*%
X76421756Y34028600D02*
G75*
G02*
X73980444Y34028600I-1220656J0D01*
G01*
X73980444Y34028600D02*
G75*
G02*
X76421756Y34028600I1220656J0D01*
G01*
%TO.C,J2*%
X50689050Y32173857D02*
X50689050Y38263857D01*
X50689050Y38263857D02*
X42069050Y38263857D01*
X42069050Y32173857D02*
X50689050Y32173857D01*
X42069050Y38263857D02*
X42069050Y32173857D01*
%TO.C,TP1*%
X36881100Y80620000D02*
X36881100Y77080000D01*
X36881100Y77080000D02*
X40421100Y77080000D01*
X40421100Y80620000D02*
X36881100Y80620000D01*
X40421100Y77080000D02*
X40421100Y80620000D01*
%TO.C,TP5*%
X68921756Y73328600D02*
G75*
G02*
X66480444Y73328600I-1220656J0D01*
G01*
X66480444Y73328600D02*
G75*
G02*
X68921756Y73328600I1220656J0D01*
G01*
%TO.C,TP13*%
X39496756Y56103600D02*
G75*
G02*
X37055444Y56103600I-1220656J0D01*
G01*
X37055444Y56103600D02*
G75*
G02*
X39496756Y56103600I1220656J0D01*
G01*
%TO.C,J4*%
X72740000Y79875000D02*
X86440000Y79875000D01*
X72740000Y76325000D02*
X72740000Y79875000D01*
X86440000Y79875000D02*
X86440000Y76325000D01*
X86440000Y76325000D02*
X72740000Y76325000D01*
%TD*%
D11*
X-3600000Y35650000D02*
X-3600000Y44850000D01*
X98000000Y82050000D02*
X103000000Y77050000D01*
X-4720000Y54170000D02*
X-5000000Y54450000D01*
X-5000000Y77050000D02*
X0Y82050000D01*
X-4720000Y48730000D02*
X-4720000Y54170000D01*
X-5000000Y54450000D02*
X-5000000Y77050000D01*
X36000000Y82050000D02*
X62000000Y82050000D01*
X-5000000Y48450000D02*
X-4720000Y48730000D01*
X98000000Y32100000D02*
X98000000Y0D01*
X103000000Y37100000D02*
X98000000Y32100000D01*
X0Y32050000D02*
X-3600000Y35650000D01*
X0Y82050000D02*
X36000000Y82050000D01*
X-5000000Y46250000D02*
X-5000000Y48450000D01*
X103000000Y77050000D02*
X103000000Y37100000D01*
X98000000Y0D02*
X0Y0D01*
X0Y32050000D02*
X0Y0D01*
X-3600000Y44850000D02*
X-5000000Y46250000D01*
X62000000Y82050000D02*
X98000000Y82050000D01*
M02*
